<svg xmlns="http://www.w3.org/2000/svg" viewBox="0 0 800 800" width="800" height="800">
<defs><linearGradient id="vol0044542" x1="0" y1="0" x2="1" y2="1"><stop offset="0" stop-color="#ffffff"/><stop offset="0.5" stop-color="#fff"/><stop offset="1" stop-color="#d6d6d6"/></linearGradient><linearGradient id="vol08584ba" x1="0" y1="0" x2="1" y2="1"><stop offset="0" stop-color="#468752"/><stop offset="0.5" stop-color="#237132"/><stop offset="1" stop-color="#1d5e2a"/></linearGradient><radialGradient id="vol4507a25" cx="0.5" cy="0.5" r="0.5"><stop offset="0" stop-color="#000" stop-opacity="0.308"/><stop offset="0.55" stop-color="#000" stop-opacity="0.154"/><stop offset="1" stop-color="#000" stop-opacity="0"/></radialGradient><linearGradient id="vol482dad2" x1="0" y1="0" x2="1" y2="0"><stop offset="0" stop-color="#98714f"/><stop offset="0.38" stop-color="#7c4a1e"/><stop offset="1" stop-color="#5e3816"/></linearGradient><linearGradient id="vol8624084" x1="0" y1="0" x2="1" y2="0"><stop offset="0" stop-color="#55a164"/><stop offset="0.38" stop-color="#2b8a3e"/><stop offset="1" stop-color="#1e602b"/></linearGradient><linearGradient id="vol8ba2bf6" x1="0" y1="0" x2="1" y2="1"><stop offset="0" stop-color="#404c6d"/><stop offset="0.5" stop-color="#1c2a52"/><stop offset="1" stop-color="#172344"/></linearGradient><radialGradient id="vol8d65416" cx="0.5" cy="0.5" r="0.7"><stop offset="0.5" stop-color="#1c2a52" stop-opacity="0"/><stop offset="0.8" stop-color="#1c2a52" stop-opacity="0.023"/><stop offset="1" stop-color="#1c2a52" stop-opacity="0.05"/></radialGradient><linearGradient id="vola8ff84f" x1="0" y1="0" x2="1" y2="1"><stop offset="0" stop-color="#eb7332"/><stop offset="0.5" stop-color="#e8590c"/><stop offset="1" stop-color="#c24a0a"/></linearGradient><linearGradient id="volc79b55d" x1="0" y1="0" x2="1" y2="1"><stop offset="0" stop-color="#566bcf"/><stop offset="0.5" stop-color="#364fc7"/><stop offset="1" stop-color="#2d42a7"/></linearGradient><linearGradient id="vold803b94" x1="0" y1="0" x2="1" y2="0"><stop offset="0" stop-color="#58b169"/><stop offset="0.38" stop-color="#2f9e44"/><stop offset="1" stop-color="#206e2f"/></linearGradient><linearGradient id="voldd0729c" x1="0" y1="0" x2="1" y2="1"><stop offset="0" stop-color="#4c9c5c"/><stop offset="0.5" stop-color="#2b8a3e"/><stop offset="1" stop-color="#247334"/></linearGradient><radialGradient id="voldfc4575" cx="0.5" cy="0.5" r="0.5"><stop offset="0" stop-color="#1c2a52" stop-opacity="0.126"/><stop offset="0.6" stop-color="#1c2a52" stop-opacity="0.063"/><stop offset="1" stop-color="#1c2a52" stop-opacity="0"/></radialGradient><linearGradient id="vole40f4f4" x1="0" y1="0" x2="1" y2="1"><stop offset="0" stop-color="#489557"/><stop offset="0.5" stop-color="#268137"/><stop offset="1" stop-color="#1f6c2e"/></linearGradient></defs>
<rect x="0" y="0" width="800" height="800" fill="#fff4e6"/>
<g><clipPath id="c59"><rect x="30" y="120" width="230" height="300" rx="18" fill="#000"/></clipPath><g clip-path="url(#c59)"><rect x="30" y="120" width="230" height="300" fill="url(#vol8ba2bf6)"/><g data-relief="non"><g transform="translate(209.4 195)"><circle cx="0" cy="0" r="22" fill="#fff3bf"/><clipPath id="l60"><circle cx="0" cy="0" r="22" fill="#000"/></clipPath><g clip-path="url(#l60)" opacity="0.7"><circle cx="-6.6" cy="-6.6" r="4" fill="#e9d8a6"/><circle cx="7" cy="6.2" r="2.9" fill="#e9d8a6"/><circle cx="8.4" cy="-8.4" r="2" fill="#e9d8a6"/><circle cx="-4.4" cy="9.2" r="2.2" fill="#e9d8a6"/><circle cx="1.1" cy="0.4" r="1.8" fill="#e9d8a6"/></g></g></g><path d="M 30 336.0 Q 99.0 255.0 168.0 330.0 Q 214.0 285.0 260 330.0 L 260 420 L 30 420 Z" fill="url(#volc79b55d)"/><rect x="30" y="354" width="230" height="66" fill="url(#voldd0729c)"/><g transform="translate(220 405) scale(0.75 0.75)"><ellipse cx="4" cy="-1.8" rx="84" ry="11.2" fill="url(#voldfc4575)"/><ellipse cx="4" cy="0" rx="73.5" ry="11.7" fill="url(#vol4507a25)"/><rect x="-12" y="-40" width="24" height="40" rx="4" fill="url(#vol482dad2)"/><polygon points="-90,-40 0,-150 90,-40" fill="url(#vol8624084)"/><path d="M -90 -40 L -78.8 -33 L -67.5 -40 L -56.2 -33 L -45 -40 L -33.8 -33 L -22.5 -40 L -11.2 -33 L 0 -40 L 11.2 -33 L 22.5 -40 L 33.8 -33 L 45 -40 L 56.2 -33 L 67.5 -40 L 78.8 -33 L 90 -40 Z" fill="url(#vol08584ba)"/><polygon points="-32.7,-110 32.7,-110 45.8,-94 -45.8,-94" fill="#000" opacity="0.16"/><polygon points="-72,-110 0,-220 72,-110" fill="url(#vold803b94)"/><path d="M -72 -110 L -63 -103 L -54 -110 L -45 -103 L -36 -110 L -27 -103 L -18 -110 L -9 -103 L 0 -110 L 9 -103 L 18 -110 L 27 -103 L 36 -110 L 45 -103 L 54 -110 L 63 -103 L 72 -110 Z" fill="url(#vole40f4f4)"/><polygon points="-32.7,-170 32.7,-170 43.2,-154 -43.2,-154" fill="#000" opacity="0.16"/><polygon points="-52,-170 0,-280 52,-170" fill="url(#vol8624084)"/><path d="M -52 -170 L -45.5 -163 L -39 -170 L -32.5 -163 L -26 -170 L -19.5 -163 L -13 -170 L -6.5 -163 L 0 -170 L 6.5 -163 L 13 -170 L 19.5 -163 L 26 -170 L 32.5 -163 L 39 -170 L 45.5 -163 L 52 -170 Z" fill="url(#vol08584ba)"/></g></g><rect x="30" y="120" width="230" height="300" rx="18" fill="none" stroke="#495057" stroke-width="10"/><circle cx="60" cy="150" r="22" fill="url(#vol0044542)" stroke="#2b2b3a" stroke-width="3"/><text x="60" y="161" font-family="Fredoka, Andika, sans-serif" font-weight="700" font-size="30" text-anchor="middle" fill="#2b2b3a">1</text></g>
<g><clipPath id="c61"><rect x="282" y="120" width="230" height="300" rx="18" fill="#000"/></clipPath><g clip-path="url(#c61)"><rect x="282" y="120" width="230" height="300" fill="url(#vol8ba2bf6)"/><g data-relief="non"><g transform="translate(461.4 195)"><circle cx="0" cy="0" r="22" fill="#fff3bf"/><clipPath id="l62"><circle cx="0" cy="0" r="22" fill="#000"/></clipPath><g clip-path="url(#l62)" opacity="0.7"><circle cx="-6.6" cy="-6.6" r="4" fill="#e9d8a6"/><circle cx="7" cy="6.2" r="2.9" fill="#e9d8a6"/><circle cx="8.4" cy="-8.4" r="2" fill="#e9d8a6"/><circle cx="-4.4" cy="9.2" r="2.2" fill="#e9d8a6"/><circle cx="1.1" cy="0.4" r="1.8" fill="#e9d8a6"/></g></g></g><path d="M 282 336.0 Q 351.0 255.0 420.0 330.0 Q 466.0 285.0 512 330.0 L 512 420 L 282 420 Z" fill="url(#volc79b55d)"/><rect x="282" y="354" width="230" height="66" fill="url(#voldd0729c)"/><g transform="translate(397 405) scale(0.75 0.75)"><ellipse cx="4" cy="-1.8" rx="84" ry="11.2" fill="url(#voldfc4575)"/><ellipse cx="4" cy="0" rx="73.5" ry="11.7" fill="url(#vol4507a25)"/><rect x="-12" y="-40" width="24" height="40" rx="4" fill="url(#vol482dad2)"/><polygon points="-90,-40 0,-150 90,-40" fill="url(#vol8624084)"/><path d="M -90 -40 L -78.8 -33 L -67.5 -40 L -56.2 -33 L -45 -40 L -33.8 -33 L -22.5 -40 L -11.2 -33 L 0 -40 L 11.2 -33 L 22.5 -40 L 33.8 -33 L 45 -40 L 56.2 -33 L 67.5 -40 L 78.8 -33 L 90 -40 Z" fill="url(#vol08584ba)"/><polygon points="-32.7,-110 32.7,-110 45.8,-94 -45.8,-94" fill="#000" opacity="0.16"/><polygon points="-72,-110 0,-220 72,-110" fill="url(#vold803b94)"/><path d="M -72 -110 L -63 -103 L -54 -110 L -45 -103 L -36 -110 L -27 -103 L -18 -110 L -9 -103 L 0 -110 L 9 -103 L 18 -110 L 27 -103 L 36 -110 L 45 -103 L 54 -110 L 63 -103 L 72 -110 Z" fill="url(#vole40f4f4)"/><polygon points="-32.7,-170 32.7,-170 43.2,-154 -43.2,-154" fill="#000" opacity="0.16"/><polygon points="-52,-170 0,-280 52,-170" fill="url(#vol8624084)"/><path d="M -52 -170 L -45.5 -163 L -39 -170 L -32.5 -163 L -26 -170 L -19.5 -163 L -13 -170 L -6.5 -163 L 0 -170 L 6.5 -163 L 13 -170 L 19.5 -163 L 26 -170 L 32.5 -163 L 39 -170 L 45.5 -163 L 52 -170 Z" fill="url(#vol08584ba)"/></g></g><rect x="282" y="120" width="230" height="300" rx="18" fill="none" stroke="#495057" stroke-width="10"/><circle cx="312" cy="150" r="22" fill="url(#vol0044542)" stroke="#2b2b3a" stroke-width="3"/><text x="312" y="161" font-family="Fredoka, Andika, sans-serif" font-weight="700" font-size="30" text-anchor="middle" fill="#2b2b3a">2</text></g>
<g><clipPath id="c63"><rect x="534" y="120" width="230" height="300" rx="18" fill="#000"/></clipPath><g clip-path="url(#c63)"><rect x="534" y="120" width="230" height="300" fill="url(#vol8ba2bf6)"/><g data-relief="non"><g transform="translate(713.4 195)"><circle cx="0" cy="0" r="22" fill="#fff3bf"/><clipPath id="l64"><circle cx="0" cy="0" r="22" fill="#000"/></clipPath><g clip-path="url(#l64)" opacity="0.7"><circle cx="-6.6" cy="-6.6" r="4" fill="#e9d8a6"/><circle cx="7" cy="6.2" r="2.9" fill="#e9d8a6"/><circle cx="8.4" cy="-8.4" r="2" fill="#e9d8a6"/><circle cx="-4.4" cy="9.2" r="2.2" fill="#e9d8a6"/><circle cx="1.1" cy="0.4" r="1.8" fill="#e9d8a6"/></g></g></g><path d="M 534 336.0 Q 603.0 255.0 672.0 330.0 Q 718.0 285.0 764 330.0 L 764 420 L 534 420 Z" fill="url(#volc79b55d)"/><rect x="534" y="354" width="230" height="66" fill="url(#voldd0729c)"/><g transform="translate(574 405) scale(0.75 0.75)"><ellipse cx="4" cy="-1.8" rx="84" ry="11.2" fill="url(#voldfc4575)"/><ellipse cx="4" cy="0" rx="73.5" ry="11.7" fill="url(#vol4507a25)"/><rect x="-12" y="-40" width="24" height="40" rx="4" fill="url(#vol482dad2)"/><polygon points="-90,-40 0,-150 90,-40" fill="url(#vol8624084)"/><path d="M -90 -40 L -78.8 -33 L -67.5 -40 L -56.2 -33 L -45 -40 L -33.8 -33 L -22.5 -40 L -11.2 -33 L 0 -40 L 11.2 -33 L 22.5 -40 L 33.8 -33 L 45 -40 L 56.2 -33 L 67.5 -40 L 78.8 -33 L 90 -40 Z" fill="url(#vol08584ba)"/><polygon points="-32.7,-110 32.7,-110 45.8,-94 -45.8,-94" fill="#000" opacity="0.16"/><polygon points="-72,-110 0,-220 72,-110" fill="url(#vold803b94)"/><path d="M -72 -110 L -63 -103 L -54 -110 L -45 -103 L -36 -110 L -27 -103 L -18 -110 L -9 -103 L 0 -110 L 9 -103 L 18 -110 L 27 -103 L 36 -110 L 45 -103 L 54 -110 L 63 -103 L 72 -110 Z" fill="url(#vole40f4f4)"/><polygon points="-32.7,-170 32.7,-170 43.2,-154 -43.2,-154" fill="#000" opacity="0.16"/><polygon points="-52,-170 0,-280 52,-170" fill="url(#vol8624084)"/><path d="M -52 -170 L -45.5 -163 L -39 -170 L -32.5 -163 L -26 -170 L -19.5 -163 L -13 -170 L -6.5 -163 L 0 -170 L 6.5 -163 L 13 -170 L 19.5 -163 L 26 -170 L 32.5 -163 L 39 -170 L 45.5 -163 L 52 -170 Z" fill="url(#vol08584ba)"/></g></g><rect x="534" y="120" width="230" height="300" rx="18" fill="none" stroke="#495057" stroke-width="10"/><circle cx="564" cy="150" r="22" fill="url(#vol0044542)" stroke="#2b2b3a" stroke-width="3"/><text x="564" y="161" font-family="Fredoka, Andika, sans-serif" font-weight="700" font-size="30" text-anchor="middle" fill="#2b2b3a">3</text></g>
<g><line x1="270" y1="560" x2="510.8" y2="560" stroke="#e8590c" stroke-width="8" stroke-linecap="round"/><polygon points="530,560 508.4,570.4 508.4,549.6" fill="url(#vola8ff84f)" stroke="#e8590c" stroke-width="3" stroke-linejoin="round"/></g>
<text x="400" y="620" font-family="Fredoka, Andika, sans-serif" font-weight="700" font-size="40" text-anchor="middle" fill="#e8590c">La voiture avance…</text>
<text x="400" y="680" font-family="Fredoka, Andika, sans-serif" font-weight="700" font-size="40" text-anchor="middle" fill="#1c2a52">le sapin file, la Lune reste !</text>
<text x="400" y="80" font-family="Fredoka, Andika, sans-serif" font-weight="600" font-size="38" text-anchor="middle" fill="#495057">Par la vitre de Jade</text>
<g data-finition="oui"><rect x="0" y="0" width="800" height="800" fill="url(#vol8d65416)"/></g>
</svg>
