<svg xmlns="http://www.w3.org/2000/svg" viewBox="0 0 800 800" width="800" height="800">
<defs><linearGradient id="d2" x1="0" y1="0" x2="0" y2="1"><stop offset="0" stop-color="#74c0fc"/><stop offset="1" stop-color="#fff3bf"/></linearGradient><linearGradient id="vol0044542" x1="0" y1="0" x2="1" y2="1"><stop offset="0" stop-color="#ffffff"/><stop offset="0.5" stop-color="#fff"/><stop offset="1" stop-color="#d6d6d6"/></linearGradient><linearGradient id="vol03b1cc2" x1="0" y1="0" x2="1" y2="1"><stop offset="0" stop-color="#8ac33b"/><stop offset="0.5" stop-color="#74b816"/><stop offset="1" stop-color="#619a12"/></linearGradient><linearGradient id="vol38c8b34" x1="0" y1="0" x2="1" y2="1"><stop offset="0" stop-color="#4c4c59"/><stop offset="0.5" stop-color="#2b2b3a"/><stop offset="1" stop-color="#242430"/></linearGradient><linearGradient id="vol3a9f983" x1="0" y1="0" x2="1" y2="1"><stop offset="0" stop-color="#d14c4c"/><stop offset="0.5" stop-color="#c92a2a"/><stop offset="1" stop-color="#a82323"/></linearGradient><linearGradient id="vol40e19dd" x1="0" y1="0" x2="1" y2="1"><stop offset="0" stop-color="#906642"/><stop offset="0.5" stop-color="#7c4a1e"/><stop offset="1" stop-color="#683e19"/></linearGradient><linearGradient id="vol433c2db" x1="0" y1="0" x2="1" y2="1"><stop offset="0" stop-color="#9fa5aa"/><stop offset="0.5" stop-color="#8d949a"/><stop offset="1" stop-color="#767c81"/></linearGradient><linearGradient id="vol50c55a9" x1="0" y1="0" x2="1" y2="1"><stop offset="0" stop-color="#96d142"/><stop offset="0.5" stop-color="#82c91e"/><stop offset="1" stop-color="#6da819"/></linearGradient><linearGradient id="vol70a03d4" x1="0" y1="0" x2="0" y2="1"><stop offset="0" stop-color="#ecdeb4"/><stop offset="0.22" stop-color="#e9d8a6"/><stop offset="1" stop-color="#baac84"/></linearGradient><linearGradient id="vol7ac0c66" x1="0" y1="0" x2="1" y2="1"><stop offset="0" stop-color="#bac0c7"/><stop offset="0.5" stop-color="#adb5bd"/><stop offset="1" stop-color="#91989e"/></linearGradient><linearGradient id="vol8d309e7" x1="0" y1="0" x2="1" y2="1"><stop offset="0" stop-color="#666c71"/><stop offset="0.5" stop-color="#495057"/><stop offset="1" stop-color="#3d4349"/></linearGradient><linearGradient id="vola3c69f5" x1="0" y1="0" x2="0" y2="1"><stop offset="0" stop-color="#f5db9f"/><stop offset="0.22" stop-color="#f4d58d"/><stop offset="1" stop-color="#c3aa70"/></linearGradient><linearGradient id="vold8d14a6" x1="0" y1="0" x2="1" y2="1"><stop offset="0" stop-color="#d5d9dd"/><stop offset="0.5" stop-color="#cdd2d7"/><stop offset="1" stop-color="#acb0b4"/></linearGradient></defs>
<rect x="0" y="0" width="800" height="800" fill="url(#d2)"/>
<path d="M 0 450 Q 120 370 260 424 Q 420 480 560 400 Q 680 350 800 430 L 800 520 L 0 520 Z" fill="#f4e5b2" opacity="0.7"/>
<path d="M 0 480 Q 180 430 360 470 T 800 460 L 800 530 L 0 530 Z" fill="url(#vol70a03d4)"/>
<g transform="translate(130 500) scale(0.45 0.45)"><path d="M -14 0 Q -8 -90 -4 -150 Q -40 -190 -90 -204 L -84 -214 Q -36 -200 0 -170 Q 20 -210 70 -226 L 76 -216 Q 34 -196 14 -150 Q 12 -80 16 0 Z" fill="url(#vol40e19dd)"/><ellipse cx="-60" cy="-228" rx="120" ry="34" fill="url(#vol03b1cc2)"/><ellipse cx="30" cy="-246" rx="130" ry="36" fill="url(#vol50c55a9)"/><ellipse cx="-20" cy="-262" rx="90" ry="26" fill="url(#vol50c55a9)"/></g>
<g transform="translate(660 490) scale(0.55 0.55)"><path d="M -14 0 Q -8 -90 -4 -150 Q -40 -190 -90 -204 L -84 -214 Q -36 -200 0 -170 Q 20 -210 70 -226 L 76 -216 Q 34 -196 14 -150 Q 12 -80 16 0 Z" fill="url(#vol40e19dd)"/><ellipse cx="-60" cy="-228" rx="120" ry="34" fill="url(#vol03b1cc2)"/><ellipse cx="30" cy="-246" rx="130" ry="36" fill="url(#vol50c55a9)"/><ellipse cx="-20" cy="-262" rx="90" ry="26" fill="url(#vol50c55a9)"/></g>
<path d="M 0 520 Q 200 502 400 520 T 800 514 L 800 800 L 0 800 Z" fill="url(#vola3c69f5)"/>
<path d="M 0 520 Q 200 502 400 520 T 800 514" fill="none" stroke="#f8e7c0" stroke-width="4" stroke-linecap="round" stroke-linejoin="round" opacity="0.6"/>
<path d="M 747.7 777 L 743.7 757 M 755.7 777 L 755.7 751 M 763.7 777 L 768.7 758" fill="none" stroke="#d9a441" stroke-width="3.5" stroke-linecap="round" stroke-linejoin="round"/>
<path d="M 46.1 561.2 L 42.1 541.2 M 54.1 561.2 L 54.1 535.2 M 62.1 561.2 L 67.1 542.2" fill="none" stroke="#d9a441" stroke-width="3.5" stroke-linecap="round" stroke-linejoin="round"/>
<path d="M 653.7 724 L 649.7 704 M 661.7 724 L 661.7 698 M 669.7 724 L 674.7 705" fill="none" stroke="#d9a441" stroke-width="3.5" stroke-linecap="round" stroke-linejoin="round"/>
<path d="M 524.4 617 L 520.4 597 M 532.4 617 L 532.4 591 M 540.4 617 L 545.4 598" fill="none" stroke="#d9a441" stroke-width="3.5" stroke-linecap="round" stroke-linejoin="round"/>
<path d="M 474.6 691.7 L 470.6 671.7 M 482.6 691.7 L 482.6 665.7 M 490.6 691.7 L 495.6 672.7" fill="none" stroke="#d9a441" stroke-width="3.5" stroke-linecap="round" stroke-linejoin="round"/>
<path d="M 455.3 579.6 L 451.3 559.6 M 463.3 579.6 L 463.3 553.6 M 471.3 579.6 L 476.3 560.6" fill="none" stroke="#d9a441" stroke-width="3.5" stroke-linecap="round" stroke-linejoin="round"/>
<path d="M 337.9 638.4 L 333.9 618.4 M 345.9 638.4 L 345.9 612.4 M 353.9 638.4 L 358.9 619.4" fill="none" stroke="#d9a441" stroke-width="3.5" stroke-linecap="round" stroke-linejoin="round"/>
<path d="M 565.9 788.7 L 561.9 768.7 M 573.9 788.7 L 573.9 762.7 M 581.9 788.7 L 586.9 769.7" fill="none" stroke="#d9a441" stroke-width="3.5" stroke-linecap="round" stroke-linejoin="round"/>
<path d="M 742.5 676 L 738.5 656 M 750.5 676 L 750.5 650 M 758.5 676 L 763.5 657" fill="none" stroke="#d9a441" stroke-width="3.5" stroke-linecap="round" stroke-linejoin="round"/>
<path d="M 349 607.1 L 345 587.1 M 357 607.1 L 357 581.1 M 365 607.1 L 370 588.1" fill="none" stroke="#d9a441" stroke-width="3.5" stroke-linecap="round" stroke-linejoin="round"/>
<path d="M 30 546.9 L 26 526.9 M 38 546.9 L 38 520.9 M 46 546.9 L 51 527.9" fill="none" stroke="#d9a441" stroke-width="3.5" stroke-linecap="round" stroke-linejoin="round"/>
<path d="M 364.6 619.6 L 360.6 599.6 M 372.6 619.6 L 372.6 593.6 M 380.6 619.6 L 385.6 600.6" fill="none" stroke="#d9a441" stroke-width="3.5" stroke-linecap="round" stroke-linejoin="round"/>
<path d="M 298.4 762.9 L 294.4 742.9 M 306.4 762.9 L 306.4 736.9 M 314.4 762.9 L 319.4 743.9" fill="none" stroke="#d9a441" stroke-width="3.5" stroke-linecap="round" stroke-linejoin="round"/>
<path d="M 412.1 680.1 L 408.1 660.1 M 420.1 680.1 L 420.1 654.1 M 428.1 680.1 L 433.1 661.1" fill="none" stroke="#d9a441" stroke-width="3.5" stroke-linecap="round" stroke-linejoin="round"/>
<path d="M 186.2 546 L 182.2 526 M 194.2 546 L 194.2 520 M 202.2 546 L 207.2 527" fill="none" stroke="#d9a441" stroke-width="3.5" stroke-linecap="round" stroke-linejoin="round"/>
<path d="M 255.6 574.2 L 251.6 554.2 M 263.6 574.2 L 263.6 548.2 M 271.6 574.2 L 276.6 555.2" fill="none" stroke="#d9a441" stroke-width="3.5" stroke-linecap="round" stroke-linejoin="round"/>
<path d="M 400 789.7 L 396 769.7 M 408 789.7 L 408 763.7 M 416 789.7 L 421 770.7" fill="none" stroke="#d9a441" stroke-width="3.5" stroke-linecap="round" stroke-linejoin="round"/>
<path d="M 528.1 585.5 L 524.1 565.5 M 536.1 585.5 L 536.1 559.5 M 544.1 585.5 L 549.1 566.5" fill="none" stroke="#d9a441" stroke-width="3.5" stroke-linecap="round" stroke-linejoin="round"/>
<path d="M 699 739.2 L 695 719.2 M 707 739.2 L 707 713.2 M 715 739.2 L 720 720.2" fill="none" stroke="#d9a441" stroke-width="3.5" stroke-linecap="round" stroke-linejoin="round"/>
<path d="M 574.8 766.6 L 570.8 746.6 M 582.8 766.6 L 582.8 740.6 M 590.8 766.6 L 595.8 747.6" fill="none" stroke="#d9a441" stroke-width="3.5" stroke-linecap="round" stroke-linejoin="round"/>
<path d="M 597.1 737.4 L 593.1 717.4 M 605.1 737.4 L 605.1 711.4 M 613.1 737.4 L 618.1 718.4" fill="none" stroke="#d9a441" stroke-width="3.5" stroke-linecap="round" stroke-linejoin="round"/>
<path d="M 278 785.2 L 274 765.2 M 286 785.2 L 286 759.2 M 294 785.2 L 299 766.2" fill="none" stroke="#d9a441" stroke-width="3.5" stroke-linecap="round" stroke-linejoin="round"/>
<path d="M 752.3 580.3 L 748.3 560.3 M 760.3 580.3 L 760.3 554.3 M 768.3 580.3 L 773.3 561.3" fill="none" stroke="#d9a441" stroke-width="3.5" stroke-linecap="round" stroke-linejoin="round"/>
<path d="M 590.1 718.8 L 586.1 698.8 M 598.1 718.8 L 598.1 692.8 M 606.1 718.8 L 611.1 699.8" fill="none" stroke="#d9a441" stroke-width="3.5" stroke-linecap="round" stroke-linejoin="round"/>
<path d="M 361.9 672.6 L 357.9 652.6 M 369.9 672.6 L 369.9 646.6 M 377.9 672.6 L 382.9 653.6" fill="none" stroke="#d9a441" stroke-width="3.5" stroke-linecap="round" stroke-linejoin="round"/>
<path d="M 384.2 771.2 L 380.2 751.2 M 392.2 771.2 L 392.2 745.2 M 400.2 771.2 L 405.2 752.2" fill="none" stroke="#d9a441" stroke-width="3.5" stroke-linecap="round" stroke-linejoin="round"/>
<path d="M 392.7 747.9 L 388.7 727.9 M 400.7 747.9 L 400.7 721.9 M 408.7 747.9 L 413.7 728.9" fill="none" stroke="#d9a441" stroke-width="3.5" stroke-linecap="round" stroke-linejoin="round"/>
<path d="M 278.1 760.7 L 274.1 740.7 M 286.1 760.7 L 286.1 734.7 M 294.1 760.7 L 299.1 741.7" fill="none" stroke="#d9a441" stroke-width="3.5" stroke-linecap="round" stroke-linejoin="round"/>
<g transform="translate(630 640) scale(0.7 0.7)"><path d="M -146 -230 Q -166 -190 -160 -140" fill="none" stroke="#8d949a" stroke-width="7" stroke-linecap="round" stroke-linejoin="round"/><ellipse cx="-160" cy="-134" rx="6" ry="12" fill="url(#vol8d309e7)"/><rect x="-96" y="-170" width="52" height="170" rx="18" fill="url(#vol433c2db)"/><rect x="34" y="-170" width="52" height="170" rx="18" fill="url(#vol433c2db)"/><ellipse cx="0" cy="-205" rx="150" ry="108" fill="url(#vol7ac0c66)"/><path d="M -110 -290 Q 0 -330 110 -280" fill="none" stroke="#c1c7cd" stroke-width="10" stroke-linecap="round" stroke-linejoin="round" opacity="0.6"/><rect x="-138" y="-160" width="56" height="160" rx="18" fill="url(#vol7ac0c66)"/><ellipse cx="-110" cy="-4" rx="30" ry="8" fill="url(#vold8d14a6)"/><line x1="-126" y1="-60" x2="-94" y2="-60" stroke="#8d949a" stroke-width="2.5" stroke-linecap="round"/><line x1="-126" y1="-46" x2="-94" y2="-46" stroke="#8d949a" stroke-width="2.5" stroke-linecap="round"/><line x1="-126" y1="-32" x2="-94" y2="-32" stroke="#8d949a" stroke-width="2.5" stroke-linecap="round"/><rect x="72" y="-160" width="56" height="160" rx="18" fill="url(#vol7ac0c66)"/><ellipse cx="100" cy="-4" rx="30" ry="8" fill="url(#vold8d14a6)"/><line x1="84" y1="-60" x2="116" y2="-60" stroke="#8d949a" stroke-width="2.5" stroke-linecap="round"/><line x1="84" y1="-46" x2="116" y2="-46" stroke="#8d949a" stroke-width="2.5" stroke-linecap="round"/><line x1="84" y1="-32" x2="116" y2="-32" stroke="#8d949a" stroke-width="2.5" stroke-linecap="round"/><g><ellipse cx="150" cy="-260" rx="72" ry="78" fill="url(#vol7ac0c66)"/><path d="M 196 -240 Q 236 -190 226 -120 Q 220 -70 236 -40" fill="none" stroke="#adb5bd" stroke-width="34" stroke-linecap="round" stroke-linejoin="round"/><path d="M 186 -200 Q 214 -150 250 -150" fill="none" stroke="#fff9db" stroke-width="13" stroke-linecap="round" stroke-linejoin="round"/><path d="M 174 -196 Q 186 -180 200 -196" fill="none" stroke="#2b2b3a" stroke-width="3.5" stroke-linecap="round" stroke-linejoin="round"/><g><path d="M 120 -330 Q 30 -350 26 -260 Q 22 -170 90 -150 Q 110 -160 112 -190 Q 140 -230 120 -330 Z" fill="url(#vol7ac0c66)"/><path d="M 110 -316 Q 44 -330 40 -260 Q 38 -190 88 -168 Q 102 -180 100 -200 Q 124 -236 110 -316 Z" fill="#f3c4c4" opacity="0.5"/></g><path d="M 164 -269 Q 172 -281 180 -269" fill="none" stroke="#2b2b3a" stroke-width="3.8" stroke-linecap="round" stroke-linejoin="round"/><ellipse cx="190" cy="-232" rx="8" ry="5" fill="#ff8fab" opacity="0.7"/></g></g>
<g transform="translate(420 660) scale(0.6 0.6)"><path d="M -146 -230 Q -166 -190 -160 -140" fill="none" stroke="#8d949a" stroke-width="7" stroke-linecap="round" stroke-linejoin="round"/><ellipse cx="-160" cy="-134" rx="6" ry="12" fill="url(#vol8d309e7)"/><rect x="-96" y="-170" width="52" height="170" rx="18" fill="url(#vol433c2db)"/><rect x="34" y="-170" width="52" height="170" rx="18" fill="url(#vol433c2db)"/><ellipse cx="0" cy="-205" rx="150" ry="108" fill="url(#vol7ac0c66)"/><path d="M -110 -290 Q 0 -330 110 -280" fill="none" stroke="#c1c7cd" stroke-width="10" stroke-linecap="round" stroke-linejoin="round" opacity="0.6"/><rect x="-138" y="-160" width="56" height="160" rx="18" fill="url(#vol7ac0c66)"/><ellipse cx="-110" cy="-4" rx="30" ry="8" fill="url(#vold8d14a6)"/><line x1="-126" y1="-60" x2="-94" y2="-60" stroke="#8d949a" stroke-width="2.5" stroke-linecap="round"/><line x1="-126" y1="-46" x2="-94" y2="-46" stroke="#8d949a" stroke-width="2.5" stroke-linecap="round"/><line x1="-126" y1="-32" x2="-94" y2="-32" stroke="#8d949a" stroke-width="2.5" stroke-linecap="round"/><rect x="72" y="-160" width="56" height="160" rx="18" fill="url(#vol7ac0c66)"/><ellipse cx="100" cy="-4" rx="30" ry="8" fill="url(#vold8d14a6)"/><line x1="84" y1="-60" x2="116" y2="-60" stroke="#8d949a" stroke-width="2.5" stroke-linecap="round"/><line x1="84" y1="-46" x2="116" y2="-46" stroke="#8d949a" stroke-width="2.5" stroke-linecap="round"/><line x1="84" y1="-32" x2="116" y2="-32" stroke="#8d949a" stroke-width="2.5" stroke-linecap="round"/><g><ellipse cx="150" cy="-260" rx="72" ry="78" fill="url(#vol7ac0c66)"/><path d="M 196 -240 Q 236 -190 226 -120 Q 220 -70 236 -40" fill="none" stroke="#adb5bd" stroke-width="34" stroke-linecap="round" stroke-linejoin="round"/><path d="M 186 -200 Q 214 -150 250 -150" fill="none" stroke="#fff9db" stroke-width="13" stroke-linecap="round" stroke-linejoin="round"/><path d="M 174 -196 Q 186 -180 200 -196" fill="none" stroke="#2b2b3a" stroke-width="3.5" stroke-linecap="round" stroke-linejoin="round"/><g><path d="M 120 -330 Q 30 -350 26 -260 Q 22 -170 90 -150 Q 110 -160 112 -190 Q 140 -230 120 -330 Z" fill="url(#vol7ac0c66)"/><path d="M 110 -316 Q 44 -330 40 -260 Q 38 -190 88 -168 Q 102 -180 100 -200 Q 124 -236 110 -316 Z" fill="#f3c4c4" opacity="0.5"/></g><ellipse cx="175" cy="-272" rx="6.5" ry="8.5" fill="url(#vol38c8b34)"/><circle cx="177" cy="-275" r="2.2" fill="url(#vol0044542)"/><circle cx="172.8" cy="-268.4" r="1.1" fill="#fff" opacity="0.75"/><ellipse cx="190" cy="-232" rx="8" ry="5" fill="#ff8fab" opacity="0.7"/></g></g>
<g transform="translate(300 700) scale(0.32 0.32)"><path d="M -146 -230 Q -166 -190 -160 -140" fill="none" stroke="#8d949a" stroke-width="7" stroke-linecap="round" stroke-linejoin="round"/><ellipse cx="-160" cy="-134" rx="6" ry="12" fill="url(#vol8d309e7)"/><rect x="-96" y="-170" width="52" height="170" rx="18" fill="url(#vol433c2db)"/><rect x="34" y="-170" width="52" height="170" rx="18" fill="url(#vol433c2db)"/><ellipse cx="0" cy="-205" rx="150" ry="108" fill="url(#vol7ac0c66)"/><path d="M -110 -290 Q 0 -330 110 -280" fill="none" stroke="#c1c7cd" stroke-width="10" stroke-linecap="round" stroke-linejoin="round" opacity="0.6"/><rect x="-138" y="-160" width="56" height="160" rx="18" fill="url(#vol7ac0c66)"/><ellipse cx="-110" cy="-4" rx="30" ry="8" fill="url(#vold8d14a6)"/><line x1="-126" y1="-60" x2="-94" y2="-60" stroke="#8d949a" stroke-width="2.5" stroke-linecap="round"/><line x1="-126" y1="-46" x2="-94" y2="-46" stroke="#8d949a" stroke-width="2.5" stroke-linecap="round"/><line x1="-126" y1="-32" x2="-94" y2="-32" stroke="#8d949a" stroke-width="2.5" stroke-linecap="round"/><rect x="72" y="-160" width="56" height="160" rx="18" fill="url(#vol7ac0c66)"/><ellipse cx="100" cy="-4" rx="30" ry="8" fill="url(#vold8d14a6)"/><line x1="84" y1="-60" x2="116" y2="-60" stroke="#8d949a" stroke-width="2.5" stroke-linecap="round"/><line x1="84" y1="-46" x2="116" y2="-46" stroke="#8d949a" stroke-width="2.5" stroke-linecap="round"/><line x1="84" y1="-32" x2="116" y2="-32" stroke="#8d949a" stroke-width="2.5" stroke-linecap="round"/><g transform="translate(-37.5 105) scale(1.25)"><ellipse cx="150" cy="-260" rx="72" ry="78" fill="url(#vol7ac0c66)"/><path d="M 196 -240 Q 236 -190 226 -120 Q 220 -70 236 -40" fill="none" stroke="#adb5bd" stroke-width="34" stroke-linecap="round" stroke-linejoin="round"/><path d="M 174 -196 Q 186 -180 200 -196" fill="none" stroke="#2b2b3a" stroke-width="3.5" stroke-linecap="round" stroke-linejoin="round"/><g><path d="M 120 -330 Q 30 -350 26 -260 Q 22 -170 90 -150 Q 110 -160 112 -190 Q 140 -230 120 -330 Z" fill="url(#vol7ac0c66)"/><path d="M 110 -316 Q 44 -330 40 -260 Q 38 -190 88 -168 Q 102 -180 100 -200 Q 124 -236 110 -316 Z" fill="#f3c4c4" opacity="0.5"/></g><path d="M 164 -269 Q 172 -281 180 -269" fill="none" stroke="#2b2b3a" stroke-width="3.8" stroke-linecap="round" stroke-linejoin="round"/><ellipse cx="190" cy="-232" rx="8" ry="5" fill="#ff8fab" opacity="0.7"/><path d="M 120 -334 q 10 -14 20 0 q 10 -14 20 0" fill="none" stroke="#8d949a" stroke-width="3" stroke-linecap="round" stroke-linejoin="round"/></g></g>
<g transform="translate(190 650) scale(0.6 0.6)"><path d="M -146 -230 Q -166 -190 -160 -140" fill="none" stroke="#8d949a" stroke-width="7" stroke-linecap="round" stroke-linejoin="round"/><ellipse cx="-160" cy="-134" rx="6" ry="12" fill="url(#vol8d309e7)"/><rect x="-96" y="-170" width="52" height="170" rx="18" fill="url(#vol433c2db)"/><rect x="34" y="-170" width="52" height="170" rx="18" fill="url(#vol433c2db)"/><ellipse cx="0" cy="-205" rx="150" ry="108" fill="url(#vol7ac0c66)"/><path d="M -110 -290 Q 0 -330 110 -280" fill="none" stroke="#c1c7cd" stroke-width="10" stroke-linecap="round" stroke-linejoin="round" opacity="0.6"/><rect x="-138" y="-160" width="56" height="160" rx="18" fill="url(#vol7ac0c66)"/><ellipse cx="-110" cy="-4" rx="30" ry="8" fill="url(#vold8d14a6)"/><line x1="-126" y1="-60" x2="-94" y2="-60" stroke="#8d949a" stroke-width="2.5" stroke-linecap="round"/><line x1="-126" y1="-46" x2="-94" y2="-46" stroke="#8d949a" stroke-width="2.5" stroke-linecap="round"/><line x1="-126" y1="-32" x2="-94" y2="-32" stroke="#8d949a" stroke-width="2.5" stroke-linecap="round"/><rect x="72" y="-160" width="56" height="160" rx="18" fill="url(#vol7ac0c66)"/><ellipse cx="100" cy="-4" rx="30" ry="8" fill="url(#vold8d14a6)"/><line x1="84" y1="-60" x2="116" y2="-60" stroke="#8d949a" stroke-width="2.5" stroke-linecap="round"/><line x1="84" y1="-46" x2="116" y2="-46" stroke="#8d949a" stroke-width="2.5" stroke-linecap="round"/><line x1="84" y1="-32" x2="116" y2="-32" stroke="#8d949a" stroke-width="2.5" stroke-linecap="round"/><g><ellipse cx="150" cy="-260" rx="72" ry="78" fill="url(#vol7ac0c66)"/><path d="M 196 -240 Q 236 -190 226 -120 Q 220 -70 236 -40" fill="none" stroke="#adb5bd" stroke-width="34" stroke-linecap="round" stroke-linejoin="round"/><path d="M 186 -200 Q 214 -150 250 -150" fill="none" stroke="#fff9db" stroke-width="13" stroke-linecap="round" stroke-linejoin="round"/><path d="M 174 -196 Q 186 -180 200 -196" fill="none" stroke="#2b2b3a" stroke-width="3.5" stroke-linecap="round" stroke-linejoin="round"/><g><path d="M 120 -330 Q 30 -350 26 -260 Q 22 -170 90 -150 Q 110 -160 112 -190 Q 140 -230 120 -330 Z" fill="url(#vol7ac0c66)"/><path d="M 110 -316 Q 44 -330 40 -260 Q 38 -190 88 -168 Q 102 -180 100 -200 Q 124 -236 110 -316 Z" fill="#f3c4c4" opacity="0.5"/></g><ellipse cx="175" cy="-272" rx="6.5" ry="8.5" fill="url(#vol38c8b34)"/><circle cx="177" cy="-275" r="2.2" fill="url(#vol0044542)"/><circle cx="172.8" cy="-268.4" r="1.1" fill="#fff" opacity="0.75"/><ellipse cx="190" cy="-232" rx="8" ry="5" fill="#ff8fab" opacity="0.7"/></g></g>
<g transform="translate(80 700) scale(0.3 0.3)"><path d="M -146 -230 Q -166 -190 -160 -140" fill="none" stroke="#8d949a" stroke-width="7" stroke-linecap="round" stroke-linejoin="round"/><ellipse cx="-160" cy="-134" rx="6" ry="12" fill="url(#vol8d309e7)"/><rect x="-96" y="-170" width="52" height="170" rx="18" fill="url(#vol433c2db)"/><rect x="34" y="-170" width="52" height="170" rx="18" fill="url(#vol433c2db)"/><ellipse cx="0" cy="-205" rx="150" ry="108" fill="url(#vol7ac0c66)"/><path d="M -110 -290 Q 0 -330 110 -280" fill="none" stroke="#c1c7cd" stroke-width="10" stroke-linecap="round" stroke-linejoin="round" opacity="0.6"/><rect x="-138" y="-160" width="56" height="160" rx="18" fill="url(#vol7ac0c66)"/><ellipse cx="-110" cy="-4" rx="30" ry="8" fill="url(#vold8d14a6)"/><line x1="-126" y1="-60" x2="-94" y2="-60" stroke="#8d949a" stroke-width="2.5" stroke-linecap="round"/><line x1="-126" y1="-46" x2="-94" y2="-46" stroke="#8d949a" stroke-width="2.5" stroke-linecap="round"/><line x1="-126" y1="-32" x2="-94" y2="-32" stroke="#8d949a" stroke-width="2.5" stroke-linecap="round"/><rect x="72" y="-160" width="56" height="160" rx="18" fill="url(#vol7ac0c66)"/><ellipse cx="100" cy="-4" rx="30" ry="8" fill="url(#vold8d14a6)"/><line x1="84" y1="-60" x2="116" y2="-60" stroke="#8d949a" stroke-width="2.5" stroke-linecap="round"/><line x1="84" y1="-46" x2="116" y2="-46" stroke="#8d949a" stroke-width="2.5" stroke-linecap="round"/><line x1="84" y1="-32" x2="116" y2="-32" stroke="#8d949a" stroke-width="2.5" stroke-linecap="round"/><g transform="translate(-37.5 105) scale(1.25)"><ellipse cx="150" cy="-260" rx="72" ry="78" fill="url(#vol7ac0c66)"/><path d="M 196 -240 Q 236 -190 226 -120 Q 220 -70 236 -40" fill="none" stroke="#adb5bd" stroke-width="34" stroke-linecap="round" stroke-linejoin="round"/><ellipse cx="186" cy="-192" rx="10" ry="8" fill="url(#vol3a9f983)"/><g><path d="M 120 -330 Q 30 -350 26 -260 Q 22 -170 90 -150 Q 110 -160 112 -190 Q 140 -230 120 -330 Z" fill="url(#vol7ac0c66)"/><path d="M 110 -316 Q 44 -330 40 -260 Q 38 -190 88 -168 Q 102 -180 100 -200 Q 124 -236 110 -316 Z" fill="#f3c4c4" opacity="0.5"/></g><path d="M 164 -269 Q 172 -281 180 -269" fill="none" stroke="#2b2b3a" stroke-width="3.8" stroke-linecap="round" stroke-linejoin="round"/><ellipse cx="190" cy="-232" rx="8" ry="5" fill="#ff8fab" opacity="0.7"/><path d="M 120 -334 q 10 -14 20 0 q 10 -14 20 0" fill="none" stroke="#8d949a" stroke-width="3" stroke-linecap="round" stroke-linejoin="round"/></g></g>
<text x="630" y="330" font-family="Fredoka, Andika, sans-serif" font-weight="700" font-size="32" text-anchor="middle" fill="#0c8599" stroke="#ffffff" stroke-width="4.6" stroke-linejoin="round" paint-order="stroke">la grand-mère</text>
</svg>
