<svg xmlns="http://www.w3.org/2000/svg" viewBox="0 0 800 800" width="800" height="800">
<defs><linearGradient id="d64" x1="0" y1="0" x2="0" y2="1"><stop offset="0" stop-color="#141e46"/><stop offset="0.5" stop-color="#283b93"/><stop offset="1" stop-color="#364fc7"/></linearGradient><radialGradient id="vol04dfd7a" cx="0.5" cy="0.5" r="0.5"><stop offset="0" stop-color="#e7f5ff" stop-opacity="0.4"/><stop offset="0.4" stop-color="#e7f5ff" stop-opacity="0.2"/><stop offset="1" stop-color="#e7f5ff" stop-opacity="0"/></radialGradient><radialGradient id="vol0b5e702" cx="0.5" cy="0.5" r="0.5"><stop offset="0" stop-color="#1c2a52" stop-opacity="0.149"/><stop offset="0.62" stop-color="#1c2a52" stop-opacity="0.132"/><stop offset="1" stop-color="#1c2a52" stop-opacity="0"/></radialGradient><linearGradient id="vol16c31d9" x1="0" y1="0" x2="0" y2="1"><stop offset="0.35" stop-color="#8695dd" stop-opacity="0"/><stop offset="0.75" stop-color="#8695dd" stop-opacity="0.35"/><stop offset="1" stop-color="#8695dd" stop-opacity="0.1"/></linearGradient><radialGradient id="vol28599ff" cx="0.4" cy="0.4" r="0.6" fx="0.3" fy="0.3"><stop offset="0" stop-color="#e4ba93"/><stop offset="0.55" stop-color="#dca36f"/><stop offset="1" stop-color="#b8885d"/></radialGradient><radialGradient id="vol285ebc9" cx="0.5" cy="0.5" r="0.5"><stop offset="0" stop-color="#000" stop-opacity="0.286"/><stop offset="0.55" stop-color="#000" stop-opacity="0.143"/><stop offset="1" stop-color="#000" stop-opacity="0"/></radialGradient><linearGradient id="vol386655e" x1="0" y1="0" x2="1" y2="1"><stop offset="0" stop-color="#9f7047"/><stop offset="0.5" stop-color="#8d5524"/><stop offset="1" stop-color="#76471e"/></linearGradient><radialGradient id="vol39543c1" cx="0.5" cy="0.5" r="0.5"><stop offset="0" stop-color="#1c2a52" stop-opacity="0.095"/><stop offset="0.62" stop-color="#1c2a52" stop-opacity="0.084"/><stop offset="1" stop-color="#1c2a52" stop-opacity="0"/></radialGradient><linearGradient id="vol3a9f983" x1="0" y1="0" x2="1" y2="1"><stop offset="0" stop-color="#d14c4c"/><stop offset="0.5" stop-color="#c92a2a"/><stop offset="1" stop-color="#a82323"/></linearGradient><linearGradient id="vol3eeee75" x1="0" y1="0" x2="1" y2="1"><stop offset="0" stop-color="#fa6d6d"/><stop offset="0.5" stop-color="#fa5252"/><stop offset="1" stop-color="#d24444"/></linearGradient><radialGradient id="vol44d12ae" cx="0.5" cy="0.5" r="0.7"><stop offset="0.5" stop-color="#060b24" stop-opacity="0"/><stop offset="0.8" stop-color="#060b24" stop-opacity="0.189"/><stop offset="1" stop-color="#060b24" stop-opacity="0.42"/></radialGradient><linearGradient id="vol5a8b60b" x1="0" y1="0" x2="1" y2="1"><stop offset="0" stop-color="#fff4c9"/><stop offset="0.5" stop-color="#fff3bf"/><stop offset="1" stop-color="#d6cca0"/></linearGradient><linearGradient id="vol6a55219" x1="0" y1="0" x2="1" y2="1"><stop offset="0" stop-color="#7d8abe"/><stop offset="0.5" stop-color="#6574b2"/><stop offset="1" stop-color="#546195"/></linearGradient><radialGradient id="vol6fe5f1c" cx="0.5" cy="0.5" r="0.5"><stop offset="0.45" stop-color="#fff3bf" stop-opacity="0.22"/><stop offset="1" stop-color="#fff3bf" stop-opacity="0"/></radialGradient><radialGradient id="vol9abd463" cx="0.5" cy="0.5" r="0.5"><stop offset="0" stop-color="#1c2a52" stop-opacity="0.117"/><stop offset="0.6" stop-color="#1c2a52" stop-opacity="0.059"/><stop offset="1" stop-color="#1c2a52" stop-opacity="0"/></radialGradient><linearGradient id="vol9ef0e15" x1="0" y1="0" x2="1" y2="0"><stop offset="0" stop-color="#abbcff"/><stop offset="0.38" stop-color="#91a7ff"/><stop offset="1" stop-color="#7182c6"/></linearGradient><radialGradient id="volabf0cb8" cx="0.5" cy="0.5" r="0.5"><stop offset="0" stop-color="#ffd43b" stop-opacity="0.45"/><stop offset="0.4" stop-color="#ffd43b" stop-opacity="0.225"/><stop offset="1" stop-color="#ffd43b" stop-opacity="0"/></radialGradient><linearGradient id="volbb105fd" x1="0" y1="0" x2="1" y2="1"><stop offset="0" stop-color="#8b9bd8"/><stop offset="0.5" stop-color="#7688d1"/><stop offset="1" stop-color="#6372af"/></linearGradient><linearGradient id="volbb93d11" x1="0" y1="0" x2="1" y2="1"><stop offset="0" stop-color="#ffda5a"/><stop offset="0.5" stop-color="#ffd43b"/><stop offset="1" stop-color="#d6b231"/></linearGradient><linearGradient id="volca73c33" x1="0" y1="0" x2="1" y2="1"><stop offset="0" stop-color="#ff9a9a"/><stop offset="0.5" stop-color="#ff8787"/><stop offset="1" stop-color="#d67171"/></linearGradient><radialGradient id="volcb17dbb" cx="0.8" cy="0.1" r="0.8"><stop offset="0" stop-color="#91a7ff" stop-opacity="0.35"/><stop offset="0.55" stop-color="#91a7ff" stop-opacity="0.158"/><stop offset="1" stop-color="#91a7ff" stop-opacity="0"/></radialGradient><radialGradient id="vold969abe" cx="0.4" cy="0.4" r="0.6" fx="0.3" fy="0.3"><stop offset="0" stop-color="#fffae5"/><stop offset="0.55" stop-color="#fff3bf"/><stop offset="1" stop-color="#e0d5a8"/></radialGradient><linearGradient id="voldd0729c" x1="0" y1="0" x2="1" y2="1"><stop offset="0" stop-color="#4c9c5c"/><stop offset="0.5" stop-color="#2b8a3e"/><stop offset="1" stop-color="#247334"/></linearGradient><linearGradient id="vole21387b" x1="0" y1="0" x2="1" y2="1"><stop offset="0" stop-color="#e1b186"/><stop offset="0.5" stop-color="#dca36f"/><stop offset="1" stop-color="#b8885d"/></linearGradient><linearGradient id="vole772153" x1="0" y1="0" x2="1" y2="1"><stop offset="0" stop-color="#ffffff"/><stop offset="0.5" stop-color="#ffffff"/><stop offset="1" stop-color="#d6d6d6"/></linearGradient><linearGradient id="volf56019c" x1="0" y1="0" x2="1" y2="1"><stop offset="0" stop-color="#909fde"/><stop offset="0.5" stop-color="#7b8dd8"/><stop offset="1" stop-color="#6776b5"/></linearGradient></defs>
<rect x="0" y="0" width="800" height="800" fill="url(#d64)"/>
<rect x="0" y="0" width="800" height="800" fill="url(#vol16c31d9)"/>
<circle cx="456.3" cy="328.8" r="2.1" fill="url(#vol5a8b60b)"/>
<circle cx="521.5" cy="463.2" r="1.9" fill="url(#vol5a8b60b)"/>
<circle cx="521.4" cy="320.9" r="3.4" fill="url(#vol5a8b60b)"/>
<circle cx="422.6" cy="231.5" r="2.8" fill="url(#vol5a8b60b)"/>
<circle cx="241" cy="160.8" r="1.6" fill="url(#vol5a8b60b)"/>
<circle cx="486.1" cy="382.6" r="3.2" fill="url(#vol5a8b60b)"/>
<circle cx="742.4" cy="288.9" r="1.7" fill="url(#vol5a8b60b)"/>
<polygon points="48,503.3 47.6,508.2 51.8,510.7 47.1,511.9 45.9,516.6 43.4,512.4 38.5,512.8 41.7,509.1 39.8,504.6 44.3,506.5" fill="url(#vol5a8b60b)" stroke="#fff3bf" stroke-width="1.3" stroke-linejoin="round"/>
<circle cx="599.9" cy="64.1" r="2" fill="url(#vol5a8b60b)"/>
<circle cx="218.2" cy="3.3" r="2.1" fill="url(#vol5a8b60b)"/>
<polygon points="318.1,90.9 317.8,95.1 321.5,97.3 317.4,98.4 316.4,102.5 314.1,98.9 309.9,99.3 312.6,96 310.9,92.1 314.9,93.7" fill="url(#vol5a8b60b)" stroke="#fff3bf" stroke-width="1.1" stroke-linejoin="round"/>
<polygon points="598.3,284.3 599.8,288.7 604.4,289.3 600.7,292.1 601.5,296.7 597.7,294 593.6,296.2 595,291.8 591.6,288.5 596.3,288.5" fill="url(#vol5a8b60b)" stroke="#fff3bf" stroke-width="1.2" stroke-linejoin="round"/>
<polygon points="253.9,23 255.3,27.6 260.1,28.5 256.1,31.2 256.8,36 252.9,33.1 248.6,35.2 250.2,30.6 246.8,27.1 251.7,27.2" fill="url(#vol5a8b60b)" stroke="#fff3bf" stroke-width="1.3" stroke-linejoin="round"/>
<circle cx="523" cy="238.1" r="2.2" fill="url(#vol5a8b60b)"/>
<circle cx="431.2" cy="408.3" r="1.6" fill="url(#vol5a8b60b)"/>
<circle cx="384.9" cy="197.2" r="1.7" fill="url(#vol5a8b60b)"/>
<circle cx="698.2" cy="7.7" r="2.4" fill="url(#vol5a8b60b)"/>
<circle cx="252.3" cy="462.2" r="1.8" fill="url(#vol5a8b60b)"/>
<polygon points="397.9,312.3 398.3,316.7 402.4,318.4 398.3,320.1 397.9,324.5 395.1,321.1 390.7,322.2 393.1,318.4 390.7,314.6 395.1,315.6" fill="url(#vol5a8b60b)" stroke="#fff3bf" stroke-width="1.2" stroke-linejoin="round"/>
<circle cx="583.6" cy="240.6" r="2.5" fill="url(#vol5a8b60b)"/>
<circle cx="208.5" cy="455.8" r="2.5" fill="url(#vol5a8b60b)"/>
<circle cx="16.4" cy="206.5" r="2.1" fill="url(#vol5a8b60b)"/>
<circle cx="84.5" cy="96.3" r="2.7" fill="url(#vol5a8b60b)"/>
<circle cx="228.9" cy="324.3" r="3.4" fill="url(#vol5a8b60b)"/>
<circle cx="665" cy="225.7" r="3.4" fill="url(#vol5a8b60b)"/>
<circle cx="695.2" cy="390.3" r="2.5" fill="url(#vol5a8b60b)"/>
<circle cx="680.2" cy="325" r="2" fill="url(#vol5a8b60b)"/>
<circle cx="73.7" cy="140.6" r="2.6" fill="url(#vol5a8b60b)"/>
<circle cx="158.9" cy="98.1" r="1.6" fill="url(#vol5a8b60b)"/>
<circle cx="741.1" cy="401.5" r="3.5" fill="url(#vol5a8b60b)"/>
<circle cx="543.8" cy="3.5" r="2.3" fill="url(#vol5a8b60b)"/>
<polygon points="733.4,417 735,421 739.2,421.3 735.9,424.1 736.9,428.2 733.3,426 729.6,428.2 730.6,424 727.4,421.2 731.7,420.9" fill="url(#vol5a8b60b)" stroke="#fff3bf" stroke-width="1.1" stroke-linejoin="round"/>
<polygon points="625.8,405.1 626.7,409.5 631,410.7 627.1,413 627.3,417.5 623.9,414.4 619.7,416 621.6,411.9 618.8,408.4 623.3,408.9" fill="url(#vol5a8b60b)" stroke="#fff3bf" stroke-width="1.2" stroke-linejoin="round"/>
<circle cx="639.5" cy="385.2" r="3.4" fill="url(#vol5a8b60b)"/>
<polygon points="606.4,429.1 606.2,433.2 609.7,435.3 605.7,436.4 604.8,440.5 602.6,437 598.4,437.4 601.1,434.1 599.4,430.3 603.3,431.8" fill="url(#vol5a8b60b)" stroke="#fff3bf" stroke-width="1.1" stroke-linejoin="round"/>
<polygon points="496.3,162.4 497.5,167.6 502.6,168.9 498,171.6 498.3,176.8 494.4,173.3 489.4,175.3 491.6,170.4 488.2,166.3 493.5,166.8" fill="url(#vol5a8b60b)" stroke="#fff3bf" stroke-width="1.4" stroke-linejoin="round"/>
<polygon points="397.3,227.5 398.5,231.8 402.8,232.6 399.2,235.1 399.8,239.5 396.3,236.8 392.3,238.7 393.8,234.5 390.7,231.3 395.1,231.4" fill="url(#vol5a8b60b)" stroke="#fff3bf" stroke-width="1.2" stroke-linejoin="round"/>
<circle cx="102.6" cy="52.1" r="1.8" fill="url(#vol5a8b60b)"/>
<circle cx="640" cy="283.3" r="2.8" fill="url(#vol5a8b60b)"/>
<polygon points="189.4,4.6 190.4,9.8 195.5,11.2 190.9,13.8 191.2,19.1 187.3,15.6 182.3,17.4 184.5,12.6 181.2,8.5 186.4,9" fill="url(#vol5a8b60b)" stroke="#fff3bf" stroke-width="1.4" stroke-linejoin="round"/>
<g><circle cx="560" cy="170" r="209" fill="url(#vol6fe5f1c)"/><circle cx="560" cy="170" r="165" fill="#fff3bf" opacity="0.15"/><circle cx="560" cy="170" r="110" fill="url(#vold969abe)"/><circle cx="527" cy="142.5" r="17.6" fill="#ffe066" opacity="0.6"/><circle cx="598.5" cy="203" r="12.1" fill="#ffe066" opacity="0.6"/><circle cx="565.5" cy="109.5" r="8.8" fill="#ffe066" opacity="0.5"/><path d="M 512.7 149.1 a 15.4 15.4 0 0 0 28.6 0" fill="none" stroke="#ffffff" stroke-width="4.4" stroke-linecap="round" stroke-linejoin="round" opacity="0.6"/><path d="M 510.5 164.5 q 16.5 16.5 33 0" fill="none" stroke="#b08900" stroke-width="7.7" stroke-linecap="round" stroke-linejoin="round"/><path d="M 576.5 164.5 q 16.5 16.5 33 0" fill="none" stroke="#b08900" stroke-width="7.7" stroke-linecap="round" stroke-linejoin="round"/><path d="M 538 208.5 q 22 16.5 44 0" fill="none" stroke="#b08900" stroke-width="7.7" stroke-linecap="round" stroke-linejoin="round"/></g>
<polygon points="500,250 620,250 440,700 330,700" fill="#e7f5ff" opacity="0.35"/>
<g transform="translate(470 420)"><circle cx="0" cy="0" r="57" fill="#fff2c4" opacity="0.25"/><polygon points="0,-38 11.6,-16 36.1,-11.7 18.8,6.1 22.3,30.7 0,19.8 -22.3,30.7 -18.8,6.1 -36.1,-11.7 -11.6,-16" fill="url(#volbb93d11)" stroke="#ffd43b" stroke-width="10.6" stroke-linejoin="round"/><ellipse cx="-12.7" cy="6.3" rx="4.4" ry="2.8" fill="#ff8fab" opacity="0.7"/><ellipse cx="12.7" cy="6.3" rx="4.4" ry="2.8" fill="#ff8fab" opacity="0.7"/><g transform="translate(0 -3.8) scale(0.57 0.57)"><path d="M -20 3 Q -12 -9 -4 3" fill="none" stroke="#2b2b3a" stroke-width="3.8" stroke-linecap="round" stroke-linejoin="round"/><path d="M 4 3 Q 12 -9 20 3" fill="none" stroke="#2b2b3a" stroke-width="3.8" stroke-linecap="round" stroke-linejoin="round"/><path d="M -9.1 16 Q 0 40 9.1 16 Z" fill="url(#vol3a9f983)" stroke="#2b2b3a" stroke-width="3" stroke-linecap="round" stroke-linejoin="round"/><ellipse cx="0" cy="27" rx="4.2" ry="3.5" fill="url(#volca73c33)"/></g></g>
<path d="M -40 800 Q 400 560 840 800 Z" fill="url(#voldd0729c)"/>
<g transform="translate(250 760) scale(1.2 1.2)"><ellipse cx="19.2" cy="-4.8" rx="72.8" ry="11.2" fill="url(#vol9abd463)"/><ellipse cx="-1.6" cy="-3" rx="54.6" ry="11.7" fill="url(#vol285ebc9)"/><filter id="c67" x="-15%" y="-15%" width="130%" height="130%"><feMorphology in="SourceAlpha" operator="dilate" radius="2.12" result="e"/><feFlood flood-color="#2b2b3a" flood-opacity="0.5"/><feComposite in2="e" operator="in" result="o"/><feMerge><feMergeNode in="o"/><feMergeNode in="SourceGraphic"/></feMerge></filter><g filter="url(#c67)"><g transform="rotate(4 0 -112)"><g><ellipse cx="-54" cy="-128" rx="12" ry="13" fill="url(#vol386655e)"/><ellipse cx="-54" cy="-108" rx="12" ry="13" fill="url(#vol386655e)"/><ellipse cx="-54" cy="-88" rx="12" ry="13" fill="url(#vol386655e)"/><ellipse cx="-54" cy="-68" rx="12" ry="13" fill="url(#vol386655e)"/><polygon points="-48,-54 -60,-54 -54,-42" fill="url(#vol386655e)"/><rect x="-63" y="-66" width="18" height="8" rx="4" fill="url(#vol3eeee75)"/><ellipse cx="54" cy="-128" rx="12" ry="13" fill="url(#vol386655e)"/><ellipse cx="54" cy="-108" rx="12" ry="13" fill="url(#vol386655e)"/><ellipse cx="54" cy="-88" rx="12" ry="13" fill="url(#vol386655e)"/><ellipse cx="54" cy="-68" rx="12" ry="13" fill="url(#vol386655e)"/><polygon points="48,-54 60,-54 54,-42" fill="url(#vol386655e)"/><rect x="45" y="-66" width="18" height="8" rx="4" fill="url(#vol3eeee75)"/></g></g><ellipse cx="-16" cy="-6" rx="14" ry="8" fill="url(#vol6a55219)" stroke="#46517c" stroke-width="2"/><ellipse cx="-13" cy="-8.8" rx="5.6" ry="2" fill="#fff" opacity="0.3"/><ellipse cx="16" cy="-6" rx="14" ry="8" fill="url(#vol6a55219)" stroke="#46517c" stroke-width="2"/><ellipse cx="13" cy="-8.8" rx="5.6" ry="2" fill="#fff" opacity="0.3"/><g><path d="M -26 -106 Q 0 -112 26 -106 L 32 -74 Q 60 -34 66 -12 Q 0 2 -66 -12 Q -60 -34 -32 -74 Z" fill="url(#vol9ef0e15)"/><path d="M -66 -12 Q 0 2 66 -12 L 64 -22 Q 0 -8 -64 -22 Z" fill="url(#vol5a8b60b)"/><polygon points="-44,-43 -42.7,-39.8 -39.2,-39.5 -41.9,-37.3 -41.1,-34 -44,-35.8 -46.9,-34 -46.1,-37.3 -48.8,-39.5 -45.3,-39.8" fill="url(#vol5a8b60b)" stroke="#fff3bf" stroke-width="0.9" stroke-linejoin="round"/><polygon points="-22,-47 -20.7,-43.8 -17.2,-43.5 -19.9,-41.3 -19.1,-38 -22,-39.8 -24.9,-38 -24.1,-41.3 -26.8,-43.5 -23.3,-43.8" fill="url(#vol5a8b60b)" stroke="#fff3bf" stroke-width="0.9" stroke-linejoin="round"/><polygon points="0,-51 1.3,-47.8 4.8,-47.5 2.1,-45.3 2.9,-42 0,-43.8 -2.9,-42 -2.1,-45.3 -4.8,-47.5 -1.3,-47.8" fill="url(#vol5a8b60b)" stroke="#fff3bf" stroke-width="0.9" stroke-linejoin="round"/><polygon points="22,-47 23.3,-43.8 26.8,-43.5 24.1,-41.3 24.9,-38 22,-39.8 19.1,-38 19.9,-41.3 17.2,-43.5 20.7,-43.8" fill="url(#vol5a8b60b)" stroke="#fff3bf" stroke-width="0.9" stroke-linejoin="round"/><polygon points="44,-43 45.3,-39.8 48.8,-39.5 46.1,-37.3 46.9,-34 44,-35.8 41.1,-34 41.9,-37.3 39.2,-39.5 42.7,-39.8" fill="url(#vol5a8b60b)" stroke="#fff3bf" stroke-width="0.9" stroke-linejoin="round"/><path d="M -14 -70 Q -23.6 -40 -30 -8" fill="none" stroke="#6c7dbf" stroke-width="2.5" stroke-linecap="round" stroke-linejoin="round" opacity="0.45"/><path d="M 0 -70 Q 0 -40 0 -8" fill="none" stroke="#6c7dbf" stroke-width="2.5" stroke-linecap="round" stroke-linejoin="round" opacity="0.45"/><path d="M 14 -70 Q 23.6 -40 30 -8" fill="none" stroke="#6c7dbf" stroke-width="2.5" stroke-linecap="round" stroke-linejoin="round" opacity="0.45"/><clipPath id="k65"><path d="M -26 -106 Q 0 -112 26 -106 L 32 -74 Q 60 -34 66 -12 Q 0 2 -66 -12 Q -60 -34 -32 -74 Z" fill="#000"/></clipPath><g clip-path="url(#k65)"><ellipse cx="54" cy="-40" rx="34" ry="70" fill="url(#vol0b5e702)"/><ellipse cx="0" cy="-6" rx="70" ry="10" fill="url(#vol0b5e702)"/><ellipse cx="64" cy="-24" rx="8" ry="30" fill="#fff4e6" transform="rotate(-30 64 -24)" opacity="0.16"/><ellipse cx="-24" cy="-90" rx="6" ry="12" fill="#fff" transform="rotate(20 -24 -90)" opacity="0.24"/><ellipse cx="-48" cy="-36" rx="4" ry="22" fill="#fff" transform="rotate(30 -48 -36)" opacity="0.24"/></g></g><g transform="rotate(-2 0 -80)"><g><rect x="-32" y="-80" width="64" height="10" rx="5" fill="url(#volf56019c)"/><path d="M -20 -106 Q 0 -94 20 -106" fill="none" stroke="#6c7dbf" stroke-width="2.5" stroke-linecap="round" stroke-linejoin="round"/></g><path d="M -28 -98 Q -48 -63 -52 -40" fill="none" stroke="#6878b7" stroke-width="18" stroke-linecap="round" stroke-linejoin="round"/><path d="M -28 -98 Q -48 -63 -52 -40" fill="none" stroke="#91a7ff" stroke-width="14" stroke-linecap="round" stroke-linejoin="round"/><circle cx="-51" cy="-45.5" r="8.4" fill="url(#volbb105fd)"/><path d="M 28 -98 Q 58 -123 72 -160" fill="none" stroke="#6878b7" stroke-width="18" stroke-linecap="round" stroke-linejoin="round"/><path d="M 28 -98 Q 58 -123 72 -160" fill="none" stroke="#91a7ff" stroke-width="14" stroke-linecap="round" stroke-linejoin="round"/><circle cx="68.6" cy="-151.1" r="8.4" fill="url(#volbb105fd)"/><ellipse cx="-44.4" cy="-45.2" rx="4.7" ry="5.8" fill="url(#vole21387b)" transform="rotate(30 -44.4 -45.2)" stroke="#b08258" stroke-width="2"/><circle cx="-52" cy="-40" r="10.5" fill="url(#vole21387b)" stroke="#b08258" stroke-width="2"/><ellipse cx="64.4" cy="-165.2" rx="4.7" ry="5.8" fill="url(#vole21387b)" transform="rotate(-30 64.4 -165.2)" stroke="#b08258" stroke-width="2"/><circle cx="72" cy="-160" r="10.5" fill="url(#vole21387b)" stroke="#b08258" stroke-width="2"/><g><rect x="-9" y="-116" width="18" height="16" fill="url(#vole21387b)"/><ellipse cx="0" cy="-106" rx="10" ry="4" fill="#b08258" opacity="0.7"/></g><g transform="rotate(4 0 -112)"><g><g transform="translate(-4 0)"><circle cx="-49" cy="-148" r="11" fill="url(#vole21387b)"/><path d="M -50 -154 Q -55 -148 -50 -142" fill="none" stroke="#b08258" stroke-width="2.5" stroke-linecap="round" stroke-linejoin="round"/><circle cx="49" cy="-148" r="11" fill="url(#vole21387b)"/><path d="M 50 -154 Q 55 -148 50 -142" fill="none" stroke="#b08258" stroke-width="2.5" stroke-linecap="round" stroke-linejoin="round"/></g><circle cx="0" cy="-150" r="50" fill="url(#vol28599ff)"/><clipPath id="k66"><circle cx="0" cy="-150" r="50" fill="#000"/></clipPath><g clip-path="url(#k66)"><ellipse cx="36" cy="-124" rx="40" ry="38" fill="url(#vol39543c1)"/><ellipse cx="51" cy="-140" rx="8" ry="26" fill="#fff4e6" transform="rotate(-15 51 -140)" opacity="0.16"/><ellipse cx="-22" cy="-180" rx="13" ry="7" fill="#fff" transform="rotate(-30 -22 -180)" opacity="0.24"/></g><g transform="translate(9 0)"><ellipse cx="-30" cy="-128" rx="9" ry="5.5" fill="#ff8fab" opacity="0.6"/><ellipse cx="30" cy="-128" rx="9" ry="5.5" fill="#ff8fab" opacity="0.6"/><path d="M -22.3 -147 Q -15.4 -157.7 -8.6 -147" fill="none" stroke="#2b2b3a" stroke-width="3.3" stroke-linecap="round" stroke-linejoin="round"/><path d="M 10 -147 Q 18 -159 26 -147" fill="none" stroke="#2b2b3a" stroke-width="3.8" stroke-linecap="round" stroke-linejoin="round"/><path d="M -4 -134 Q 0 -130 4 -134" fill="none" stroke="#a57a53" stroke-width="3" stroke-linecap="round" stroke-linejoin="round"/><path d="M -10.8 -121 Q 0 -109 10.8 -121" fill="none" stroke="#2b2b3a" stroke-width="3.8" stroke-linecap="round" stroke-linejoin="round"/></g><g><path d="M -54 -144 Q -60 -210 0 -210 Q 60 -210 54 -144 Q 50 -168 30 -178 Q 22 -164 4 -178 Q -12 -164 -24 -178 Q -46 -170 -54 -144 Z" fill="url(#vol386655e)"/><g><path d="M -36 -190 Q -20 -202 -4 -200" fill="none" stroke="#c0a186" stroke-width="5" stroke-linecap="round" stroke-linejoin="round" opacity="0.8"/><path d="M -40 -168 Q -36 -188 -16 -196" fill="none" stroke="#6d421c" stroke-width="2.5" stroke-linecap="round" stroke-linejoin="round" opacity="0.8"/><path d="M 14 -196 Q 36 -192 42 -170" fill="none" stroke="#6d421c" stroke-width="2.5" stroke-linecap="round" stroke-linejoin="round" opacity="0.8"/><path d="M 2 -204 Q 12 -196 14 -184" fill="none" stroke="#6d421c" stroke-width="2.5" stroke-linecap="round" stroke-linejoin="round" opacity="0.8"/></g></g></g></g></g></g></g>
<g><polygon points="190,271 420,380 230,271" fill="url(#vole772153)" stroke="#dee2e6" stroke-width="3"/><rect x="60" y="195" width="300" height="90" rx="40" fill="url(#vole772153)" stroke="#dee2e6" stroke-width="3"/><polygon points="192,269 420,380 228,269" fill="url(#vole772153)"/><text x="210" y="254" font-family="Fredoka, Andika, sans-serif" font-weight="700" font-size="40" text-anchor="middle" fill="#2b2b3a">Merci, Nora !</text></g>
<g data-finition="teinte"><rect x="0" y="0" width="800" height="800" fill="#cdd5f4" style="mix-blend-mode:multiply"/></g>
<ellipse cx="560" cy="170" rx="286" ry="286" fill="url(#vol04dfd7a)" style="mix-blend-mode:screen"/>
<ellipse cx="470" cy="420" rx="91.2" ry="91.2" fill="url(#volabf0cb8)" style="mix-blend-mode:screen"/>
<g data-finition="oui"><rect x="0" y="0" width="800" height="800" fill="url(#volcb17dbb)" style="mix-blend-mode:soft-light"/><rect x="0" y="0" width="800" height="800" fill="url(#vol44d12ae)"/></g>
</svg>
