<svg xmlns="http://www.w3.org/2000/svg" viewBox="0 0 800 800" width="800" height="800">
<defs><linearGradient id="d70" x1="0" y1="0" x2="0" y2="1"><stop offset="0" stop-color="#a5d8ff"/><stop offset="0.5" stop-color="#dbebe9"/><stop offset="1" stop-color="#fff9db"/></linearGradient><linearGradient id="vol0044542" x1="0" y1="0" x2="1" y2="1"><stop offset="0" stop-color="#ffffff"/><stop offset="0.5" stop-color="#fff"/><stop offset="1" stop-color="#d6d6d6"/></linearGradient><linearGradient id="vol0faf7e7" x1="0" y1="-68" x2="0" y2="55" gradientUnits="userSpaceOnUse"><stop offset="0" stop-color="#ffffff" stop-opacity="0.5"/><stop offset="0.4" stop-color="#ffffff" stop-opacity="0"/><stop offset="0.62" stop-color="#1c2a52" stop-opacity="0"/><stop offset="1" stop-color="#1c2a52" stop-opacity="0.16"/></linearGradient><linearGradient id="vol118dece" x1="0" y1="0" x2="1" y2="1"><stop offset="0" stop-color="#d18c4c"/><stop offset="0.5" stop-color="#c9772b"/><stop offset="1" stop-color="#a86324"/></linearGradient><linearGradient id="vol22f1db4" x1="0" y1="0" x2="1" y2="1"><stop offset="0" stop-color="#c65a80"/><stop offset="0.5" stop-color="#bc3b68"/><stop offset="1" stop-color="#9d3157"/></linearGradient><radialGradient id="vol2ea26ee" cx="0.5" cy="0.5" r="0.5"><stop offset="0" stop-color="#000" stop-opacity="0.286"/><stop offset="0.55" stop-color="#000" stop-opacity="0.156"/><stop offset="1" stop-color="#000" stop-opacity="0"/></radialGradient><linearGradient id="vol38c8b34" x1="0" y1="0" x2="1" y2="1"><stop offset="0" stop-color="#4c4c59"/><stop offset="0.5" stop-color="#2b2b3a"/><stop offset="1" stop-color="#242430"/></linearGradient><radialGradient id="vol397d006" cx="0.4" cy="0.4" r="0.6" fx="0.3" fy="0.3"><stop offset="0" stop-color="#f6d2b7"/><stop offset="0.55" stop-color="#f3c3a0"/><stop offset="1" stop-color="#cca386"/></radialGradient><linearGradient id="vol3a9f983" x1="0" y1="0" x2="1" y2="1"><stop offset="0" stop-color="#d14c4c"/><stop offset="0.5" stop-color="#c92a2a"/><stop offset="1" stop-color="#a82323"/></linearGradient><linearGradient id="vol3eeee75" x1="0" y1="0" x2="1" y2="1"><stop offset="0" stop-color="#fa6d6d"/><stop offset="0.5" stop-color="#fa5252"/><stop offset="1" stop-color="#d24444"/></linearGradient><linearGradient id="vol4525cc0" x1="0" y1="0" x2="1" y2="0"><stop offset="0" stop-color="#ec749e"/><stop offset="0.38" stop-color="#e64980"/><stop offset="1" stop-color="#b33863"/></linearGradient><linearGradient id="vol484c3ec" x1="0" y1="0" x2="1" y2="1"><stop offset="0" stop-color="#f4ccaf"/><stop offset="0.5" stop-color="#f3c3a0"/><stop offset="1" stop-color="#cca386"/></linearGradient><radialGradient id="vol6ff428d" cx="0.5" cy="0.5" r="0.5" fx="0.4" fy="0.4"><stop offset="0" stop-color="#fff2c4"/><stop offset="0.6" stop-color="#ffd43b"/><stop offset="1" stop-color="#eac336"/></radialGradient><linearGradient id="vol9aae608" x1="0" y1="0" x2="0" y2="1"><stop offset="0" stop-color="#ffffff" stop-opacity="0"/><stop offset="1" stop-color="#ffffff" stop-opacity="0.3"/></linearGradient><linearGradient id="vol9b0090c" x1="0" y1="0" x2="1" y2="1"><stop offset="0" stop-color="#b05373"/><stop offset="0.5" stop-color="#a13359"/><stop offset="1" stop-color="#872a4a"/></linearGradient><linearGradient id="vol9ddc6ca" x1="0" y1="0" x2="1" y2="1"><stop offset="0" stop-color="#f4dfb2"/><stop offset="0.5" stop-color="#f3d9a4"/><stop offset="1" stop-color="#ccb689"/></linearGradient><radialGradient id="vola5db7ce" cx="0.5" cy="0.5" r="0.5"><stop offset="0.55" stop-color="#ffd43b" stop-opacity="0.35"/><stop offset="1" stop-color="#ffd43b" stop-opacity="0"/></radialGradient><linearGradient id="vola88da3a" x1="0" y1="0" x2="1" y2="1"><stop offset="0" stop-color="#69b8f8"/><stop offset="0.5" stop-color="#4dabf7"/><stop offset="1" stop-color="#408fcf"/></linearGradient><linearGradient id="vola9eba5d" x1="0" y1="0" x2="0" y2="1"><stop offset="0.35" stop-color="#fffbe9" stop-opacity="0"/><stop offset="0.75" stop-color="#fffbe9" stop-opacity="0.35"/><stop offset="1" stop-color="#fffbe9" stop-opacity="0.1"/></linearGradient><linearGradient id="volca73c33" x1="0" y1="0" x2="1" y2="1"><stop offset="0" stop-color="#ff9a9a"/><stop offset="0.5" stop-color="#ff8787"/><stop offset="1" stop-color="#d67171"/></linearGradient><linearGradient id="vole143ec3" x1="0" y1="0" x2="1" y2="1"><stop offset="0" stop-color="#6cd67e"/><stop offset="0.5" stop-color="#51cf66"/><stop offset="1" stop-color="#44ad55"/></linearGradient><linearGradient id="vole772153" x1="0" y1="0" x2="1" y2="1"><stop offset="0" stop-color="#ffffff"/><stop offset="0.5" stop-color="#ffffff"/><stop offset="1" stop-color="#d6d6d6"/></linearGradient><linearGradient id="voled3c066" x1="0" y1="0" x2="1" y2="1"><stop offset="0" stop-color="#eceff1"/><stop offset="0.5" stop-color="#e9ecef"/><stop offset="1" stop-color="#c3c6c8"/></linearGradient><linearGradient id="volf0c910c" x1="0" y1="0" x2="1" y2="1"><stop offset="0" stop-color="#ab7440"/><stop offset="0.5" stop-color="#9c5a1c"/><stop offset="1" stop-color="#834b17"/></linearGradient><linearGradient id="volf3a656f" x1="0" y1="0" x2="0" y2="1"><stop offset="0" stop-color="#a5de4e"/><stop offset="0.22" stop-color="#94d82d"/><stop offset="1" stop-color="#76ac24"/></linearGradient><linearGradient id="volfe59c7b" x1="0" y1="0" x2="0" y2="1"><stop offset="0" stop-color="#c7f5ce"/><stop offset="0.5" stop-color="#b2f2bb"/><stop offset="1" stop-color="#9cd4a4"/></linearGradient><linearGradient id="volfe6f7db" x1="0" y1="0" x2="1" y2="1"><stop offset="0" stop-color="#cc5c83"/><stop offset="0.5" stop-color="#c33e6c"/><stop offset="1" stop-color="#a3345a"/></linearGradient></defs>
<rect x="0" y="0" width="800" height="800" fill="url(#d70)"/>
<rect x="0" y="0" width="800" height="800" fill="url(#vola9eba5d)"/>
<g><circle cx="690" cy="100" r="64" fill="url(#vola5db7ce)"/><line x1="742" y1="100" x2="762" y2="100" stroke="#ffd43b" stroke-width="8" stroke-linecap="round"/><line x1="735" y1="126" x2="752.4" y2="136" stroke="#ffd43b" stroke-width="8" stroke-linecap="round"/><line x1="716" y1="145" x2="726" y2="162.4" stroke="#ffd43b" stroke-width="8" stroke-linecap="round"/><line x1="690" y1="152" x2="690" y2="172" stroke="#ffd43b" stroke-width="8" stroke-linecap="round"/><line x1="664" y1="145" x2="654" y2="162.4" stroke="#ffd43b" stroke-width="8" stroke-linecap="round"/><line x1="645" y1="126" x2="627.6" y2="136" stroke="#ffd43b" stroke-width="8" stroke-linecap="round"/><line x1="638" y1="100" x2="618" y2="100" stroke="#ffd43b" stroke-width="8" stroke-linecap="round"/><line x1="645" y1="74" x2="627.6" y2="64" stroke="#ffd43b" stroke-width="8" stroke-linecap="round"/><line x1="664" y1="55" x2="654" y2="37.6" stroke="#ffd43b" stroke-width="8" stroke-linecap="round"/><line x1="690" y1="48" x2="690" y2="28" stroke="#ffd43b" stroke-width="8" stroke-linecap="round"/><line x1="716" y1="55" x2="726" y2="37.6" stroke="#ffd43b" stroke-width="8" stroke-linecap="round"/><line x1="735" y1="74" x2="752.4" y2="64" stroke="#ffd43b" stroke-width="8" stroke-linecap="round"/><circle cx="690" cy="100" r="40" fill="url(#vol6ff428d)"/></g>
<g transform="translate(160 110) scale(0.6 0.6)"><g><circle cx="-55" cy="10" r="38" fill="url(#vole772153)"/><circle cx="-15" cy="-18" r="50" fill="url(#vole772153)"/><circle cx="40" cy="-8" r="42" fill="url(#vole772153)"/><circle cx="78" cy="18" r="30" fill="url(#vole772153)"/><rect x="-95" y="5" width="200" height="50" rx="25" fill="url(#vole772153)"/><circle cx="-55" cy="10" r="38" fill="url(#vol0faf7e7)"/><circle cx="-15" cy="-18" r="50" fill="url(#vol0faf7e7)"/><circle cx="40" cy="-8" r="42" fill="url(#vol0faf7e7)"/><circle cx="78" cy="18" r="30" fill="url(#vol0faf7e7)"/><rect x="-95" y="5" width="200" height="50" rx="25" fill="url(#vol0faf7e7)"/><ellipse cx="-22" cy="-46" rx="22" ry="9" fill="#ffffff" transform="rotate(-12 -22 -46)" opacity="0.55"/></g></g>
<path d="M -60 580 L -60 519.5 Q 68.2 328.8 196.5 525.6 Q 324.9 339 453.4 508.8 Q 539.8 358.3 626.2 503.9 Q 747.9 369.3 869.6 517.5 L 869.6 580 Z" fill="#aee2be" opacity="0.4"/>
<path d="M -155.5 580 Q 184.3 327.8 524.1 580 Z" fill="url(#volfe59c7b)"/>
<path d="M -53.6 517 Q 65.4 460.2 184.3 453.9" fill="none" stroke="#d8f8dd" stroke-width="4" stroke-linecap="round" stroke-linejoin="round" opacity="0.5"/>
<path d="M 57.8 580 Q 350 379.4 642.3 580 Z" fill="url(#volfe59c7b)"/>
<path d="M 145.4 529.8 Q 247.7 484.7 350 479.7" fill="none" stroke="#d8f8dd" stroke-width="4" stroke-linecap="round" stroke-linejoin="round" opacity="0.5"/>
<path d="M 439.6 580 Q 670.3 404.9 901 580 Z" fill="url(#volfe59c7b)"/>
<path d="M 508.8 536.2 Q 589.5 496.8 670.3 492.4" fill="none" stroke="#d8f8dd" stroke-width="4" stroke-linecap="round" stroke-linejoin="round" opacity="0.5"/>
<rect x="0" y="503" width="800" height="81" fill="url(#vol9aae608)"/>
<path d="M 0 580 Q 240.0 562 400.0 580 T 800 580 L 800 800 L 0 800 Z" fill="url(#volf3a656f)"/>
<path d="M 0 580 Q 240.0 562 400.0 580 T 800 580" fill="none" stroke="#c4e98b" stroke-width="4" stroke-linecap="round" stroke-linejoin="round" opacity="0.55"/>
<path d="M 235.6 706.4 q 4.9 -7.4 9.8 0 m 3.7 0 q 3.7 -4.9 7.4 0 M 774.3 762.9 q 6.4 -9.6 12.8 0 m 4.8 0 q 4.8 -6.4 9.6 0 M 520.7 728.8 q 5.5 -8.2 11 0 m 4.1 0 q 4.1 -5.5 8.2 0 M 226.9 690 q 4.5 -6.7 9 0 m 3.4 0 q 3.4 -4.5 6.7 0 M 779.3 791.7 q 7.1 -10.7 14.3 0 m 5.4 0 q 5.4 -7.1 10.7 0 M 701.7 644.8 q 3.3 -5 6.6 0 m 2.5 0 q 2.5 -3.3 5 0 M 215.1 789.2 q 7.1 -10.6 14.1 0 m 5.3 0 q 5.3 -7.1 10.6 0 M 556 673.2 q 4 -6.1 8.1 0 m 3 0 q 3 -4 6.1 0 M 142 709.1 q 5 -7.5 10 0 m 3.7 0 q 3.7 -5 7.5 0 M 785.5 704.8 q 4.9 -7.3 9.7 0 m 3.7 0 q 3.7 -4.9 7.3 0 M 246.5 674 q 4.1 -6.1 8.1 0 m 3.1 0 q 3.1 -4.1 6.1 0 M 341.6 674.9 q 4.1 -6.1 8.2 0 m 3.1 0 q 3.1 -4.1 6.1 0 M 488.9 716.9 q 5.2 -7.8 10.4 0 m 3.9 0 q 3.9 -5.2 7.8 0 M 519.4 779.4 q 6.8 -10.2 13.6 0 m 5.1 0 q 5.1 -6.8 10.2 0 M 657.6 664.6 q 3.8 -5.7 7.6 0 m 2.9 0 q 2.9 -3.8 5.7 0 M 542.2 678.9 q 4.2 -6.3 8.4 0 m 3.1 0 q 3.1 -4.2 6.3 0 M 162.6 697.9 q 4.7 -7 9.4 0 m 3.5 0 q 3.5 -4.7 7 0 M 254.1 777.2 q 6.8 -10.1 13.5 0 m 5.1 0 q 5.1 -6.8 10.1 0 M 755.9 700.9 q 4.8 -7.2 9.5 0 m 3.6 0 q 3.6 -4.8 7.2 0 M 642.8 631.9 q 3 -4.5 5.9 0 m 2.2 0 q 2.2 -3 4.5 0 M 728 731.2 q 5.6 -8.3 11.1 0 m 4.2 0 q 4.2 -5.6 8.3 0 M 128.1 778 q 6.8 -10.2 13.6 0 m 5.1 0 q 5.1 -6.8 10.2 0 M 721 633.2 q 3 -4.5 6 0 m 2.3 0 q 2.3 -3 4.5 0 M 472.7 701.6 q 4.8 -7.2 9.6 0 m 3.6 0 q 3.6 -4.8 7.2 0 M 223.4 713.6 q 5.1 -7.7 10.2 0 m 3.8 0 q 3.8 -5.1 7.7 0 M 330.9 747.5 q 6 -9 12 0 m 4.5 0 q 4.5 -6 9 0" fill="none" stroke="#73a823" stroke-width="2.5" stroke-linecap="round" stroke-linejoin="round" opacity="0.35"/>
<path d="M 0 740 Q 400 660 800 720 L 800 800 L 0 800 Z" fill="url(#vol9ddc6ca)"/>
<g transform="translate(250 790) scale(1.35 1.35)"><ellipse cx="0" cy="-3" rx="58.2" ry="12.6" fill="url(#vol2ea26ee)"/><filter id="c73" x="-15%" y="-15%" width="130%" height="130%"><feMorphology in="SourceAlpha" operator="dilate" radius="2.01" result="e"/><feFlood flood-color="#2b2b3a" flood-opacity="0.5"/><feComposite in2="e" operator="in" result="o"/><feMerge><feMergeNode in="o"/><feMergeNode in="SourceGraphic"/></feMerge></filter><g filter="url(#c73)"><g transform="rotate(4 0 -112)"><circle cx="0" cy="-210" r="26" fill="url(#voled3c066)"/></g><ellipse cx="-16" cy="-6" rx="14" ry="8" fill="url(#vol9b0090c)" stroke="#70233e" stroke-width="2"/><ellipse cx="-13" cy="-8.8" rx="5.6" ry="2" fill="#fff" opacity="0.3"/><ellipse cx="16" cy="-6" rx="14" ry="8" fill="url(#vol9b0090c)" stroke="#70233e" stroke-width="2"/><ellipse cx="13" cy="-8.8" rx="5.6" ry="2" fill="#fff" opacity="0.3"/><path d="M -26 -106 Q 0 -112 26 -106 L 32 -74 Q 60 -34 66 -12 Q 0 2 -66 -12 Q -60 -34 -32 -74 Z" fill="url(#vol4525cc0)"/><path d="M -14 -70 Q -23.6 -40 -30 -8" fill="none" stroke="#ac3660" stroke-width="2.5" stroke-linecap="round" stroke-linejoin="round" opacity="0.45"/><path d="M 0 -70 Q 0 -40 0 -8" fill="none" stroke="#ac3660" stroke-width="2.5" stroke-linecap="round" stroke-linejoin="round" opacity="0.45"/><path d="M 14 -70 Q 23.6 -40 30 -8" fill="none" stroke="#ac3660" stroke-width="2.5" stroke-linecap="round" stroke-linejoin="round" opacity="0.45"/><clipPath id="k71"><path d="M -26 -106 Q 0 -112 26 -106 L 32 -74 Q 60 -34 66 -12 Q 0 2 -66 -12 Q -60 -34 -32 -74 Z" fill="#000"/></clipPath><g clip-path="url(#k71)"><ellipse cx="54" cy="-40" rx="34" ry="70" fill="#000" opacity="0.11"/><ellipse cx="-24" cy="-90" rx="6" ry="12" fill="#fff" transform="rotate(20 -24 -90)" opacity="0.22"/></g><rect x="-32" y="-80" width="64" height="10" rx="5" fill="url(#volfe6f7db)"/><path d="M -20 -106 Q 0 -94 20 -106" fill="none" stroke="#ac3660" stroke-width="2.5" stroke-linecap="round" stroke-linejoin="round"/><path d="M -28 -98 Q -66 -97 -88 -108" fill="none" stroke="#a5345c" stroke-width="18" stroke-linecap="round" stroke-linejoin="round"/><path d="M -28 -98 Q -66 -97 -88 -108" fill="none" stroke="#e64980" stroke-width="14" stroke-linecap="round" stroke-linejoin="round"/><circle cx="-82.7" cy="-105.4" r="8.4" fill="url(#vol22f1db4)"/><path d="M 28 -98 Q 66 -97 88 -108" fill="none" stroke="#a5345c" stroke-width="18" stroke-linecap="round" stroke-linejoin="round"/><path d="M 28 -98 Q 66 -97 88 -108" fill="none" stroke="#e64980" stroke-width="14" stroke-linecap="round" stroke-linejoin="round"/><circle cx="82.7" cy="-105.4" r="8.4" fill="url(#vol22f1db4)"/><ellipse cx="-80.4" cy="-113.2" rx="4.7" ry="5.8" fill="url(#vol484c3ec)" transform="rotate(30 -80.4 -113.2)" stroke="#c29c80" stroke-width="2"/><circle cx="-88" cy="-108" r="10.5" fill="url(#vol484c3ec)" stroke="#c29c80" stroke-width="2"/><ellipse cx="80.4" cy="-113.2" rx="4.7" ry="5.8" fill="url(#vol484c3ec)" transform="rotate(-30 80.4 -113.2)" stroke="#c29c80" stroke-width="2"/><circle cx="88" cy="-108" r="10.5" fill="url(#vol484c3ec)" stroke="#c29c80" stroke-width="2"/><rect x="-9" y="-116" width="18" height="16" fill="url(#vol484c3ec)"/><ellipse cx="0" cy="-106" rx="10" ry="4" fill="#c29c80" opacity="0.7"/><g transform="rotate(4 0 -112)"><g><g><circle cx="-49" cy="-148" r="11" fill="url(#vol484c3ec)"/><path d="M -50 -154 Q -55 -148 -50 -142" fill="none" stroke="#c29c80" stroke-width="2.5" stroke-linecap="round" stroke-linejoin="round"/><circle cx="49" cy="-148" r="11" fill="url(#vol484c3ec)"/><path d="M 50 -154 Q 55 -148 50 -142" fill="none" stroke="#c29c80" stroke-width="2.5" stroke-linecap="round" stroke-linejoin="round"/></g><circle cx="0" cy="-150" r="50" fill="url(#vol397d006)"/><clipPath id="k72"><circle cx="0" cy="-150" r="50" fill="#000"/></clipPath><g clip-path="url(#k72)"><ellipse cx="36" cy="-124" rx="40" ry="38" fill="#000" opacity="0.07"/><ellipse cx="-22" cy="-180" rx="13" ry="7" fill="#fff" transform="rotate(-30 -22 -180)" opacity="0.22"/></g><ellipse cx="-30" cy="-128" rx="9" ry="5.5" fill="#ff8fab" opacity="0.6"/><ellipse cx="30" cy="-128" rx="9" ry="5.5" fill="#ff8fab" opacity="0.6"/><path d="M -26 -147 Q -18 -159 -10 -147" fill="none" stroke="#2b2b3a" stroke-width="3.8" stroke-linecap="round" stroke-linejoin="round"/><path d="M 10 -147 Q 18 -159 26 -147" fill="none" stroke="#2b2b3a" stroke-width="3.8" stroke-linecap="round" stroke-linejoin="round"/><path d="M -4 -134 Q 0 -130 4 -134" fill="none" stroke="#b69278" stroke-width="3" stroke-linecap="round" stroke-linejoin="round"/><path d="M -10.8 -121 Q 0 -109 10.8 -121" fill="none" stroke="#2b2b3a" stroke-width="3.8" stroke-linecap="round" stroke-linejoin="round"/><g><circle cx="-18" cy="-150" r="14" fill="none" stroke="#2b2b3a" stroke-width="3"/><circle cx="18" cy="-150" r="14" fill="none" stroke="#2b2b3a" stroke-width="3"/><line x1="-4" y1="-150" x2="4" y2="-150" stroke="#2b2b3a" stroke-width="3" stroke-linecap="round"/></g><g><path d="M -54 -144 Q -60 -210 0 -210 Q 60 -210 54 -144 Q 50 -168 30 -178 Q 22 -164 4 -178 Q -12 -164 -24 -178 Q -46 -170 -54 -144 Z" fill="url(#voled3c066)"/><g><path d="M -36 -190 Q -20 -202 -4 -200" fill="none" stroke="#f2f4f6" stroke-width="5" stroke-linecap="round" stroke-linejoin="round" opacity="0.8"/><path d="M -40 -168 Q -36 -188 -16 -196" fill="none" stroke="#b5b8ba" stroke-width="2.5" stroke-linecap="round" stroke-linejoin="round" opacity="0.8"/><path d="M 14 -196 Q 36 -192 42 -170" fill="none" stroke="#b5b8ba" stroke-width="2.5" stroke-linecap="round" stroke-linejoin="round" opacity="0.8"/><path d="M 2 -204 Q 12 -196 14 -184" fill="none" stroke="#b5b8ba" stroke-width="2.5" stroke-linecap="round" stroke-linejoin="round" opacity="0.8"/></g></g><circle cx="0" cy="-210" r="26" fill="url(#voled3c066)"/><path d="M -14 -220 Q 0 -230 14 -220" fill="none" stroke="#babcbf" stroke-width="2.5" stroke-linecap="round" stroke-linejoin="round"/></g></g></g></g>
<g transform="translate(500 790) scale(1.1 1.1)"><line x1="-18" y1="-70" x2="-32" y2="-6" stroke="#9c5a1c" stroke-width="42" stroke-linecap="round"/><line x1="-18" y1="-70" x2="-32" y2="-6" stroke="#c9772b" stroke-width="36" stroke-linecap="round"/><line x1="18" y1="-70" x2="32" y2="-6" stroke="#9c5a1c" stroke-width="42" stroke-linecap="round"/><line x1="18" y1="-70" x2="32" y2="-6" stroke="#c9772b" stroke-width="36" stroke-linecap="round"/><line x1="0" y1="-104" x2="-44" y2="-128" stroke="#9c5a1c" stroke-width="36" stroke-linecap="round"/><line x1="0" y1="-104" x2="-44" y2="-128" stroke="#c9772b" stroke-width="30" stroke-linecap="round"/><line x1="0" y1="-104" x2="44" y2="-128" stroke="#9c5a1c" stroke-width="36" stroke-linecap="round"/><line x1="0" y1="-104" x2="44" y2="-128" stroke="#c9772b" stroke-width="30" stroke-linecap="round"/><ellipse cx="0" cy="-84" rx="44" ry="52" fill="url(#volf0c910c)"/><ellipse cx="0" cy="-84" rx="40" ry="48" fill="url(#vol118dece)"/><path d="M -44 -16 q 6 -8 12 0 q 6 8 12 0" fill="none" stroke="#fff" stroke-width="4" stroke-linecap="round" stroke-linejoin="round"/><path d="M 20 -16 q 6 -8 12 0 q 6 8 12 0" fill="none" stroke="#fff" stroke-width="4" stroke-linecap="round" stroke-linejoin="round"/><path d="M -54 -134 q 5 -8 10 0 q 5 8 10 0" fill="none" stroke="#fff" stroke-width="4" stroke-linecap="round" stroke-linejoin="round"/><path d="M 34 -134 q 5 -8 10 0 q 5 8 10 0" fill="none" stroke="#fff" stroke-width="4" stroke-linecap="round" stroke-linejoin="round"/><circle cx="0" cy="-104" r="8" fill="url(#vol3eeee75)"/><circle cx="0" cy="-80" r="8" fill="url(#vole143ec3)"/><circle cx="0" cy="-56" r="8" fill="url(#vola88da3a)"/><circle cx="0" cy="-156" r="46" fill="url(#volf0c910c)"/><circle cx="0" cy="-156" r="42" fill="url(#vol118dece)"/><path d="M -30 -186 q 30 -18 60 0" fill="none" stroke="#fff" stroke-width="4" stroke-linecap="round" stroke-linejoin="round"/><ellipse cx="-26" cy="-136" rx="8" ry="5" fill="#ff8787" opacity="0.7"/><ellipse cx="26" cy="-136" rx="8" ry="5" fill="#ff8787" opacity="0.7"/><g transform="translate(0 -158)"><ellipse cx="-16" cy="0" rx="8.5" ry="11.1" fill="url(#vol38c8b34)"/><circle cx="-14" cy="-3" r="2.9" fill="url(#vol0044542)"/><circle cx="-18.2" cy="3.6" r="1.4" fill="#fff" opacity="0.75"/><ellipse cx="16" cy="0" rx="8.5" ry="11.1" fill="url(#vol38c8b34)"/><circle cx="18" cy="-3" r="2.9" fill="url(#vol0044542)"/><circle cx="13.8" cy="3.6" r="1.4" fill="#fff" opacity="0.75"/><path d="M -26 -22 Q -16.5 -31 -7 -22" fill="none" stroke="#2b2b3a" stroke-width="3.5" stroke-linecap="round" stroke-linejoin="round"/><path d="M 26 -22 Q 16.5 -31 7 -22" fill="none" stroke="#2b2b3a" stroke-width="3.5" stroke-linecap="round" stroke-linejoin="round"/></g><path d="M -11.7 -134 Q 0 -110 11.7 -134 Z" fill="url(#vol3a9f983)" stroke="#2b2b3a" stroke-width="3" stroke-linecap="round" stroke-linejoin="round"/><ellipse cx="0" cy="-123" rx="5.4" ry="3.5" fill="url(#volca73c33)"/></g>
<g><polygon points="400,216 260,460 440,216" fill="url(#vole772153)" stroke="#dee2e6" stroke-width="3"/><rect x="140" y="110" width="560" height="120" rx="40" fill="url(#vole772153)" stroke="#dee2e6" stroke-width="3"/><polygon points="402,214 260,460 438,214" fill="url(#vole772153)"/><text x="420" y="162.8" font-family="Fredoka, Andika, sans-serif" font-weight="700" font-size="32" text-anchor="middle" fill="#2b2b3a">Reviens à la maison :</text><text x="420" y="199.6" font-family="Fredoka, Andika, sans-serif" font-weight="700" font-size="32" text-anchor="middle" fill="#2b2b3a">tu seras notre petit garçon !</text></g>
</svg>
