<svg xmlns="http://www.w3.org/2000/svg" viewBox="0 0 800 800" width="800" height="800">
<defs><linearGradient id="vol0044542" x1="0" y1="0" x2="1" y2="1"><stop offset="0" stop-color="#ffffff"/><stop offset="0.5" stop-color="#fff"/><stop offset="1" stop-color="#d6d6d6"/></linearGradient><linearGradient id="vol00bcb8b" x1="0" y1="0" x2="1" y2="1"><stop offset="0" stop-color="#b3deff"/><stop offset="0.5" stop-color="#a5d8ff"/><stop offset="1" stop-color="#8ab5d6"/></linearGradient><linearGradient id="vol03869d9" x1="0" y1="0" x2="1" y2="0"><stop offset="0" stop-color="#ec769f"/><stop offset="0.38" stop-color="#e64980"/><stop offset="1" stop-color="#b83a66"/></linearGradient><linearGradient id="vol0ccb369" x1="0" y1="0" x2="1" y2="1"><stop offset="0" stop-color="#b24545"/><stop offset="0.5" stop-color="#a42222"/><stop offset="1" stop-color="#891c1c"/></linearGradient><linearGradient id="vol0d3437b" x1="0" y1="0" x2="0" y2="1"><stop offset="0" stop-color="#000" stop-opacity="0.16"/><stop offset="1" stop-color="#000" stop-opacity="0"/></linearGradient><linearGradient id="vol136d6e7" x1="0" y1="0" x2="1" y2="1"><stop offset="0" stop-color="#ea6694"/><stop offset="0.5" stop-color="#e64980"/><stop offset="1" stop-color="#c13d6b"/></linearGradient><linearGradient id="vol22f1db4" x1="0" y1="0" x2="1" y2="1"><stop offset="0" stop-color="#c65a80"/><stop offset="0.5" stop-color="#bc3b68"/><stop offset="1" stop-color="#9d3157"/></linearGradient><linearGradient id="vol2dc00c7" x1="0" y1="0" x2="0" y2="1"><stop offset="0" stop-color="#000" stop-opacity="0.09"/><stop offset="0.35" stop-color="#000" stop-opacity="0"/></linearGradient><radialGradient id="vol2ea26ee" cx="0.5" cy="0.5" r="0.5"><stop offset="0" stop-color="#000" stop-opacity="0.286"/><stop offset="0.55" stop-color="#000" stop-opacity="0.156"/><stop offset="1" stop-color="#000" stop-opacity="0"/></radialGradient><linearGradient id="vol3082a02" x1="0" y1="0" x2="1" y2="1"><stop offset="0" stop-color="#fbdfc7"/><stop offset="0.5" stop-color="#fbd9bd"/><stop offset="1" stop-color="#d2b69e"/></linearGradient><radialGradient id="vol3490e56" cx="0.4" cy="0.4" r="0.6" fx="0.3" fy="0.3"><stop offset="0" stop-color="#fce2cd"/><stop offset="0.55" stop-color="#fbd9bd"/><stop offset="1" stop-color="#d2b69e"/></radialGradient><linearGradient id="vol38c8b34" x1="0" y1="0" x2="1" y2="1"><stop offset="0" stop-color="#4c4c59"/><stop offset="0.5" stop-color="#2b2b3a"/><stop offset="1" stop-color="#242430"/></linearGradient><radialGradient id="vol397d006" cx="0.4" cy="0.4" r="0.6" fx="0.3" fy="0.3"><stop offset="0" stop-color="#f6d2b7"/><stop offset="0.55" stop-color="#f3c3a0"/><stop offset="1" stop-color="#cca386"/></radialGradient><linearGradient id="vol3eeee75" x1="0" y1="0" x2="1" y2="1"><stop offset="0" stop-color="#fa6d6d"/><stop offset="0.5" stop-color="#fa5252"/><stop offset="1" stop-color="#d24444"/></linearGradient><linearGradient id="vol41fbaca" x1="0" y1="0" x2="1" y2="1"><stop offset="0" stop-color="#f6ae28"/><stop offset="0.5" stop-color="#f59f00"/><stop offset="1" stop-color="#cd8500"/></linearGradient><linearGradient id="vol433af68" x1="0" y1="0" x2="1" y2="1"><stop offset="0" stop-color="#d8dadd"/><stop offset="0.5" stop-color="#d1d4d7"/><stop offset="1" stop-color="#afb2b4"/></linearGradient><linearGradient id="vol4525cc0" x1="0" y1="0" x2="1" y2="0"><stop offset="0" stop-color="#ec749e"/><stop offset="0.38" stop-color="#e64980"/><stop offset="1" stop-color="#b33863"/></linearGradient><linearGradient id="vol482dad2" x1="0" y1="0" x2="1" y2="0"><stop offset="0" stop-color="#98714f"/><stop offset="0.38" stop-color="#7c4a1e"/><stop offset="1" stop-color="#5e3816"/></linearGradient><linearGradient id="vol484c3ec" x1="0" y1="0" x2="1" y2="1"><stop offset="0" stop-color="#f4ccaf"/><stop offset="0.5" stop-color="#f3c3a0"/><stop offset="1" stop-color="#cca386"/></linearGradient><linearGradient id="vol4ad9cc7" x1="0" y1="0" x2="1" y2="1"><stop offset="0" stop-color="#4ea25d"/><stop offset="0.5" stop-color="#2d913f"/><stop offset="1" stop-color="#257934"/></linearGradient><linearGradient id="vol4fb514f" x1="0" y1="0" x2="1" y2="0"><stop offset="0" stop-color="#9e57af"/><stop offset="0.38" stop-color="#862e9c"/><stop offset="1" stop-color="#602170"/></linearGradient><linearGradient id="vol6b79f13" x1="0" y1="0" x2="1" y2="0"><stop offset="0" stop-color="#545f7d"/><stop offset="0.38" stop-color="#1c2a52"/><stop offset="1" stop-color="#131d39"/></linearGradient><linearGradient id="vol9b0090c" x1="0" y1="0" x2="1" y2="1"><stop offset="0" stop-color="#b05373"/><stop offset="0.5" stop-color="#a13359"/><stop offset="1" stop-color="#872a4a"/></linearGradient><linearGradient id="vola88da3a" x1="0" y1="0" x2="1" y2="1"><stop offset="0" stop-color="#69b8f8"/><stop offset="0.5" stop-color="#4dabf7"/><stop offset="1" stop-color="#408fcf"/></linearGradient><linearGradient id="vola8ff84f" x1="0" y1="0" x2="1" y2="1"><stop offset="0" stop-color="#eb7332"/><stop offset="0.5" stop-color="#e8590c"/><stop offset="1" stop-color="#c24a0a"/></linearGradient><linearGradient id="volae3ffcb" x1="0" y1="0" x2="1" y2="0"><stop offset="0" stop-color="#d55d5d"/><stop offset="0.38" stop-color="#c92a2a"/><stop offset="1" stop-color="#9c2020"/></linearGradient><linearGradient id="volb4a8990" x1="0" y1="0" x2="1" y2="0"><stop offset="0" stop-color="#5fc170"/><stop offset="0.38" stop-color="#37b24d"/><stop offset="1" stop-color="#267c35"/></linearGradient><linearGradient id="volba9a1c7" x1="0" y1="0" x2="1" y2="1"><stop offset="0" stop-color="#9e4141"/><stop offset="0.5" stop-color="#8c1d1d"/><stop offset="1" stop-color="#751818"/></linearGradient><linearGradient id="volbb93d11" x1="0" y1="0" x2="1" y2="1"><stop offset="0" stop-color="#ffda5a"/><stop offset="0.5" stop-color="#ffd43b"/><stop offset="1" stop-color="#d6b231"/></linearGradient><linearGradient id="vold803b94" x1="0" y1="0" x2="1" y2="0"><stop offset="0" stop-color="#58b169"/><stop offset="0.38" stop-color="#2f9e44"/><stop offset="1" stop-color="#206e2f"/></linearGradient><linearGradient id="vole40f4f4" x1="0" y1="0" x2="1" y2="1"><stop offset="0" stop-color="#489557"/><stop offset="0.5" stop-color="#268137"/><stop offset="1" stop-color="#1f6c2e"/></linearGradient><linearGradient id="vole5380e6" x1="0" y1="0" x2="0" y2="1"><stop offset="0" stop-color="#ac8b6c"/><stop offset="0.45" stop-color="#c9a27e"/><stop offset="1" stop-color="#ceab8a"/></linearGradient><linearGradient id="vole772153" x1="0" y1="0" x2="1" y2="1"><stop offset="0" stop-color="#ffffff"/><stop offset="0.5" stop-color="#ffffff"/><stop offset="1" stop-color="#d6d6d6"/></linearGradient><linearGradient id="voled3c066" x1="0" y1="0" x2="1" y2="1"><stop offset="0" stop-color="#eceff1"/><stop offset="0.5" stop-color="#e9ecef"/><stop offset="1" stop-color="#c3c6c8"/></linearGradient><radialGradient id="voleef744c" cx="0.5" cy="0.5" r="0.5"><stop offset="0" stop-color="#000" stop-opacity="0.308"/><stop offset="0.55" stop-color="#000" stop-opacity="0.168"/><stop offset="1" stop-color="#000" stop-opacity="0"/></radialGradient><linearGradient id="volef0d640" x1="0" y1="0" x2="1" y2="0"><stop offset="0" stop-color="#000" stop-opacity="0.08"/><stop offset="0.18" stop-color="#000" stop-opacity="0"/><stop offset="0.82" stop-color="#000" stop-opacity="0"/><stop offset="1" stop-color="#000" stop-opacity="0.08"/></linearGradient><linearGradient id="volef1058f" x1="0" y1="0" x2="0" y2="1"><stop offset="0" stop-color="#cdd2d7"/><stop offset="0.38" stop-color="#adb5bd"/><stop offset="1" stop-color="#81878d"/></linearGradient><linearGradient id="volfe6f7db" x1="0" y1="0" x2="1" y2="1"><stop offset="0" stop-color="#cc5c83"/><stop offset="0.5" stop-color="#c33e6c"/><stop offset="1" stop-color="#a3345a"/></linearGradient></defs>
<rect x="0" y="0" width="800" height="600" fill="#f3d9fa"/>
<rect x="0" y="0" width="24" height="600" fill="#e599f7" opacity="0.35"/>
<rect x="60" y="0" width="24" height="600" fill="#e599f7" opacity="0.35"/>
<rect x="120" y="0" width="24" height="600" fill="#e599f7" opacity="0.35"/>
<rect x="180" y="0" width="24" height="600" fill="#e599f7" opacity="0.35"/>
<rect x="240" y="0" width="24" height="600" fill="#e599f7" opacity="0.35"/>
<rect x="300" y="0" width="24" height="600" fill="#e599f7" opacity="0.35"/>
<rect x="360" y="0" width="24" height="600" fill="#e599f7" opacity="0.35"/>
<rect x="420" y="0" width="24" height="600" fill="#e599f7" opacity="0.35"/>
<rect x="480" y="0" width="24" height="600" fill="#e599f7" opacity="0.35"/>
<rect x="540" y="0" width="24" height="600" fill="#e599f7" opacity="0.35"/>
<rect x="600" y="0" width="24" height="600" fill="#e599f7" opacity="0.35"/>
<rect x="660" y="0" width="24" height="600" fill="#e599f7" opacity="0.35"/>
<rect x="720" y="0" width="24" height="600" fill="#e599f7" opacity="0.35"/>
<rect x="780" y="0" width="24" height="600" fill="#e599f7" opacity="0.35"/>
<rect x="0" y="0" width="800" height="600" fill="url(#vol2dc00c7)"/>
<rect x="0" y="0" width="800" height="600" fill="url(#volef0d640)"/>
<rect x="0" y="600" width="800" height="200" fill="url(#vole5380e6)"/>
<line x1="0" y1="617.8" x2="800" y2="617.8" stroke="#000" stroke-width="2" stroke-linecap="round" opacity="0.06"/>
<line x1="0" y1="645.4" x2="800" y2="645.4" stroke="#000" stroke-width="2" stroke-linecap="round" opacity="0.06"/>
<line x1="0" y1="678.5" x2="800" y2="678.5" stroke="#000" stroke-width="2" stroke-linecap="round" opacity="0.06"/>
<line x1="0" y1="715.7" x2="800" y2="715.7" stroke="#000" stroke-width="2" stroke-linecap="round" opacity="0.06"/>
<line x1="0" y1="756.4" x2="800" y2="756.4" stroke="#000" stroke-width="2" stroke-linecap="round" opacity="0.06"/>
<path d="M -90 600 L -776 800 M -20 600 L -608 800 M 50 600 L -440 800 M 120 600 L -272 800 M 190 600 L -104 800 M 260 600 L 64 800 M 330 600 L 232 800 M 400 600 L 400 800 M 470 600 L 568 800 M 540 600 L 736 800 M 610 600 L 904 800 M 680 600 L 1072 800 M 750 600 L 1240 800 M 820 600 L 1408 800 M 890 600 L 1576 800" fill="none" stroke="#000" stroke-width="1.5" stroke-linecap="round" stroke-linejoin="round" opacity="0.05"/>
<rect x="0" y="600" width="800" height="24" fill="url(#vol0d3437b)"/>
<rect x="0" y="586" width="800" height="16" fill="#d9a066"/>
<rect x="0" y="586" width="800" height="3" fill="#e8c6a3" opacity="0.8"/>
<g><rect x="82" y="112" width="186" height="186" rx="6" fill="url(#vole772153)"/><rect x="90" y="120" width="170" height="170" fill="url(#vol00bcb8b)"/><clipPath id="c15"><rect x="90" y="120" width="170" height="170" fill="#000"/></clipPath><g clip-path="url(#c15)"><g transform="translate(170 300) scale(0.5 0.5)"><ellipse cx="4" cy="0" rx="78.4" ry="12.6" fill="url(#voleef744c)"/><rect x="-12" y="-40" width="24" height="40" rx="4" fill="url(#vol482dad2)"/><polygon points="-90,-40 0,-150 90,-40" fill="url(#vold803b94)"/><path d="M -90 -40 L -78.8 -33 L -67.5 -40 L -56.2 -33 L -45 -40 L -33.8 -33 L -22.5 -40 L -11.2 -33 L 0 -40 L 11.2 -33 L 22.5 -40 L 33.8 -33 L 45 -40 L 56.2 -33 L 67.5 -40 L 78.8 -33 L 90 -40 Z" fill="url(#vole40f4f4)"/><polygon points="-32.7,-110 32.7,-110 45.8,-94 -45.8,-94" fill="#000" opacity="0.16"/><polygon points="-72,-110 0,-220 72,-110" fill="url(#volb4a8990)"/><path d="M -72 -110 L -63 -103 L -54 -110 L -45 -103 L -36 -110 L -27 -103 L -18 -110 L -9 -103 L 0 -110 L 9 -103 L 18 -110 L 27 -103 L 36 -110 L 45 -103 L 54 -110 L 63 -103 L 72 -110 Z" fill="url(#vol4ad9cc7)"/><polygon points="-32.7,-170 32.7,-170 43.2,-154 -43.2,-154" fill="#000" opacity="0.16"/><polygon points="-52,-170 0,-280 52,-170" fill="url(#vold803b94)"/><path d="M -52 -170 L -45.5 -163 L -39 -170 L -32.5 -163 L -26 -170 L -19.5 -163 L -13 -170 L -6.5 -163 L 0 -170 L 6.5 -163 L 13 -170 L 19.5 -163 L 26 -170 L 32.5 -163 L 39 -170 L 45.5 -163 L 52 -170 Z" fill="url(#vole40f4f4)"/></g><g transform="translate(230 300) scale(0.4 0.4)"><ellipse cx="4" cy="0" rx="78.4" ry="12.6" fill="url(#voleef744c)"/><rect x="-12" y="-40" width="24" height="40" rx="4" fill="url(#vol482dad2)"/><polygon points="-90,-40 0,-150 90,-40" fill="url(#vold803b94)"/><path d="M -90 -40 L -78.8 -33 L -67.5 -40 L -56.2 -33 L -45 -40 L -33.8 -33 L -22.5 -40 L -11.2 -33 L 0 -40 L 11.2 -33 L 22.5 -40 L 33.8 -33 L 45 -40 L 56.2 -33 L 67.5 -40 L 78.8 -33 L 90 -40 Z" fill="url(#vole40f4f4)"/><polygon points="-32.7,-110 32.7,-110 45.8,-94 -45.8,-94" fill="#000" opacity="0.16"/><polygon points="-72,-110 0,-220 72,-110" fill="url(#volb4a8990)"/><path d="M -72 -110 L -63 -103 L -54 -110 L -45 -103 L -36 -110 L -27 -103 L -18 -110 L -9 -103 L 0 -110 L 9 -103 L 18 -110 L 27 -103 L 36 -110 L 45 -103 L 54 -110 L 63 -103 L 72 -110 Z" fill="url(#vol4ad9cc7)"/><polygon points="-32.7,-170 32.7,-170 43.2,-154 -43.2,-154" fill="#000" opacity="0.16"/><polygon points="-52,-170 0,-280 52,-170" fill="url(#vold803b94)"/><path d="M -52 -170 L -45.5 -163 L -39 -170 L -32.5 -163 L -26 -170 L -19.5 -163 L -13 -170 L -6.5 -163 L 0 -170 L 6.5 -163 L 13 -170 L 19.5 -163 L 26 -170 L 32.5 -163 L 39 -170 L 45.5 -163 L 52 -170 Z" fill="url(#vole40f4f4)"/></g></g><polygon points="90,120 260,120 250,130 100,130 100,290 90,290" fill="#000" opacity="0.16"/><polygon points="110.4,290 161.4,120 185.2,120 134.2,290" fill="#fff" opacity="0.16"/><polygon points="195.4,290 229.4,120 237.9,120 203.9,290" fill="#fff" opacity="0.12"/><rect x="171" y="120" width="8" height="170" fill="url(#vole772153)"/><rect x="90" y="201" width="170" height="8" fill="url(#vole772153)"/><rect x="82" y="112" width="186" height="186" rx="6" fill="none" stroke="#d1d1d1" stroke-width="2"/><rect x="74" y="294" width="202" height="11" rx="3" fill="url(#vole772153)" stroke="#d1d1d1" stroke-width="1.5"/><rect x="78" y="305" width="194" height="7" rx="3" fill="#000" opacity="0.1"/><path d="M 70 106 L 120 106 Q 100 205.0 120 310 L 70 310 Z" fill="url(#vol03869d9)"/><path d="M 280 106 L 230 106 Q 250 205.0 230 310 L 280 310 Z" fill="url(#vol03869d9)"/><path d="M 84 110 Q 80 205.0 86 308 M 100 110 Q 92 205.0 102 308 M 266 110 Q 270 205.0 264 308 M 250 110 Q 258 205.0 248 308" fill="none" stroke="#ac3660" stroke-width="2.5" stroke-linecap="round" stroke-linejoin="round" opacity="0.5"/><rect x="60" y="98" width="230" height="12" rx="6" fill="url(#volef1058f)"/></g>
<g transform="translate(470 760) scale(1.55 1.55)"><ellipse cx="0" cy="-3" rx="58.2" ry="12.6" fill="url(#vol2ea26ee)"/><filter id="c18" x="-15%" y="-15%" width="130%" height="130%"><feMorphology in="SourceAlpha" operator="dilate" radius="1.89" result="e"/><feFlood flood-color="#2b2b3a" flood-opacity="0.5"/><feComposite in2="e" operator="in" result="o"/><feMerge><feMergeNode in="o"/><feMergeNode in="SourceGraphic"/></feMerge></filter><g filter="url(#c18)"><path d="M -34 -106 Q -76 -40 -72 -4 L 72 -4 Q 76 -40 34 -106 Z" fill="url(#vol4fb514f)"/><path d="M -40 -60 Q -52 -30 -54 -6 M 40 -60 Q 52 -30 54 -6" fill="none" stroke="#6b247c" stroke-width="3" stroke-linecap="round" stroke-linejoin="round"/><rect x="-26" y="-52" width="20" height="46" rx="8" fill="url(#vol6b79f13)"/><line x1="-16" y1="-40" x2="-16" y2="-12" stroke="#162141" stroke-width="2" stroke-linecap="round" opacity="0.6"/><rect x="6" y="-52" width="20" height="46" rx="8" fill="url(#vol6b79f13)"/><line x1="16" y1="-40" x2="16" y2="-12" stroke="#162141" stroke-width="2" stroke-linecap="round" opacity="0.6"/><ellipse cx="-17" cy="-6" rx="16" ry="9" fill="url(#volba9a1c7)" stroke="#621414" stroke-width="2"/><ellipse cx="-14" cy="-9.2" rx="6.4" ry="2.2" fill="#fff" opacity="0.3"/><ellipse cx="17" cy="-6" rx="16" ry="9" fill="url(#volba9a1c7)" stroke="#621414" stroke-width="2"/><ellipse cx="14" cy="-9.2" rx="6.4" ry="2.2" fill="#fff" opacity="0.3"/><path d="M -32 -106 Q 0 -112 32 -106 L 40 -46 Q 0 -36 -40 -46 Z" fill="url(#volae3ffcb)"/><clipPath id="k16"><path d="M -32 -106 Q 0 -112 32 -106 L 40 -46 Q 0 -36 -40 -46 Z" fill="#000"/></clipPath><g clip-path="url(#k16)"><ellipse cx="40" cy="-70" rx="22" ry="46" fill="#000" opacity="0.11"/><ellipse cx="-22" cy="-92" rx="6" ry="11" fill="#fff" transform="rotate(20 -22 -92)" opacity="0.22"/></g><path d="M -20 -106 Q 0 -92 20 -106" fill="none" stroke="#961f1f" stroke-width="2.5" stroke-linecap="round" stroke-linejoin="round"/><rect x="-38" y="-62" width="76" height="10" rx="5" fill="url(#vol41fbaca)"/><rect x="-8" y="-64" width="16" height="14" rx="3" fill="url(#volbb93d11)"/><path d="M -28 -98 Q -66 -97 -88 -108" fill="none" stroke="#901e1e" stroke-width="18" stroke-linecap="round" stroke-linejoin="round"/><path d="M -28 -98 Q -66 -97 -88 -108" fill="none" stroke="#c92a2a" stroke-width="14" stroke-linecap="round" stroke-linejoin="round"/><circle cx="-82.7" cy="-105.4" r="8.4" fill="url(#vol0ccb369)"/><path d="M 28 -98 Q 66 -97 88 -108" fill="none" stroke="#901e1e" stroke-width="18" stroke-linecap="round" stroke-linejoin="round"/><path d="M 28 -98 Q 66 -97 88 -108" fill="none" stroke="#c92a2a" stroke-width="14" stroke-linecap="round" stroke-linejoin="round"/><circle cx="82.7" cy="-105.4" r="8.4" fill="url(#vol0ccb369)"/><ellipse cx="-80.4" cy="-113.2" rx="4.7" ry="5.8" fill="url(#vol484c3ec)" transform="rotate(30 -80.4 -113.2)" stroke="#c29c80" stroke-width="2"/><circle cx="-88" cy="-108" r="10.5" fill="url(#vol484c3ec)" stroke="#c29c80" stroke-width="2"/><ellipse cx="80.4" cy="-113.2" rx="4.7" ry="5.8" fill="url(#vol484c3ec)" transform="rotate(-30 80.4 -113.2)" stroke="#c29c80" stroke-width="2"/><circle cx="88" cy="-108" r="10.5" fill="url(#vol484c3ec)" stroke="#c29c80" stroke-width="2"/><rect x="-9" y="-116" width="18" height="16" fill="url(#vol484c3ec)"/><ellipse cx="0" cy="-106" rx="10" ry="4" fill="#c29c80" opacity="0.7"/><g><g><circle cx="-49" cy="-148" r="11" fill="url(#vol484c3ec)"/><path d="M -50 -154 Q -55 -148 -50 -142" fill="none" stroke="#c29c80" stroke-width="2.5" stroke-linecap="round" stroke-linejoin="round"/><circle cx="49" cy="-148" r="11" fill="url(#vol484c3ec)"/><path d="M 50 -154 Q 55 -148 50 -142" fill="none" stroke="#c29c80" stroke-width="2.5" stroke-linecap="round" stroke-linejoin="round"/></g><circle cx="0" cy="-150" r="50" fill="url(#vol397d006)"/><clipPath id="k17"><circle cx="0" cy="-150" r="50" fill="#000"/></clipPath><g clip-path="url(#k17)"><ellipse cx="36" cy="-124" rx="40" ry="38" fill="#000" opacity="0.07"/><ellipse cx="-22" cy="-180" rx="13" ry="7" fill="#fff" transform="rotate(-30 -22 -180)" opacity="0.22"/></g><g><path d="M -48 -146 Q -52 -96 -20 -76 Q 0 -60 20 -76 Q 52 -96 48 -146 Q 40 -116 20 -112 Q 0 -104 -20 -112 Q -40 -116 -48 -146 Z" fill="url(#voled3c066)"/><path d="M -26 -126 Q -12 -136 0 -128 Q 12 -136 26 -126 Q 14 -118 0 -122 Q -14 -118 -26 -126 Z" fill="url(#vol433af68)"/></g><ellipse cx="-30" cy="-128" rx="9" ry="5.5" fill="#ff8fab" opacity="0.6"/><ellipse cx="30" cy="-128" rx="9" ry="5.5" fill="#ff8fab" opacity="0.6"/><ellipse cx="-18" cy="-150" rx="8.5" ry="11.1" fill="url(#vol38c8b34)"/><circle cx="-16" cy="-153" r="2.9" fill="url(#vol0044542)"/><circle cx="-20.2" cy="-146.4" r="1.4" fill="#fff" opacity="0.75"/><ellipse cx="18" cy="-150" rx="8.5" ry="11.1" fill="url(#vol38c8b34)"/><circle cx="20" cy="-153" r="2.9" fill="url(#vol0044542)"/><circle cx="15.8" cy="-146.4" r="1.4" fill="#fff" opacity="0.75"/><path d="M -28 -172 Q -18.5 -181 -9 -172" fill="none" stroke="#2b2b3a" stroke-width="3.5" stroke-linecap="round" stroke-linejoin="round"/><path d="M 28 -172 Q 18.5 -181 9 -172" fill="none" stroke="#2b2b3a" stroke-width="3.5" stroke-linecap="round" stroke-linejoin="round"/><path d="M -4 -134 Q 0 -130 4 -134" fill="none" stroke="#b69278" stroke-width="3" stroke-linecap="round" stroke-linejoin="round"/><ellipse cx="0" cy="-117" rx="5.5" ry="7.5" fill="url(#vol38c8b34)"/><g><ellipse cx="-48" cy="-150" rx="12" ry="22" fill="url(#voled3c066)"/><ellipse cx="48" cy="-150" rx="12" ry="22" fill="url(#voled3c066)"/></g><g><polygon points="-42.5,-196 -42.5,-241 -21.2,-216 0,-251 21.2,-216 42.5,-241 42.5,-196" fill="url(#volbb93d11)" stroke="#f59f00" stroke-width="3"/><circle cx="0" cy="-208" r="5" fill="url(#vol3eeee75)"/><circle cx="-25" cy="-204" r="4" fill="url(#vola88da3a)"/><circle cx="25" cy="-204" r="4" fill="url(#vola88da3a)"/></g></g></g></g>
<g transform="translate(180 770) scale(1.3 1.3)"><ellipse cx="0" cy="-3" rx="58.2" ry="12.6" fill="url(#vol2ea26ee)"/><filter id="c21" x="-15%" y="-15%" width="130%" height="130%"><feMorphology in="SourceAlpha" operator="dilate" radius="2.04" result="e"/><feFlood flood-color="#2b2b3a" flood-opacity="0.5"/><feComposite in2="e" operator="in" result="o"/><feMerge><feMergeNode in="o"/><feMergeNode in="SourceGraphic"/></feMerge></filter><g filter="url(#c21)"><path d="M 40 -186 Q 96 -190 86 -120 Q 80 -90 96 -70 Q 60 -80 62 -120 Q 64 -160 40 -170 Z" fill="url(#vola8ff84f)"/><ellipse cx="-16" cy="-6" rx="14" ry="8" fill="url(#vol9b0090c)" stroke="#70233e" stroke-width="2"/><ellipse cx="-13" cy="-8.8" rx="5.6" ry="2" fill="#fff" opacity="0.3"/><ellipse cx="16" cy="-6" rx="14" ry="8" fill="url(#vol9b0090c)" stroke="#70233e" stroke-width="2"/><ellipse cx="13" cy="-8.8" rx="5.6" ry="2" fill="#fff" opacity="0.3"/><path d="M -26 -106 Q 0 -112 26 -106 L 32 -74 Q 60 -34 66 -12 Q 0 2 -66 -12 Q -60 -34 -32 -74 Z" fill="url(#vol4525cc0)"/><path d="M -14 -70 Q -23.6 -40 -30 -8" fill="none" stroke="#ac3660" stroke-width="2.5" stroke-linecap="round" stroke-linejoin="round" opacity="0.45"/><path d="M 0 -70 Q 0 -40 0 -8" fill="none" stroke="#ac3660" stroke-width="2.5" stroke-linecap="round" stroke-linejoin="round" opacity="0.45"/><path d="M 14 -70 Q 23.6 -40 30 -8" fill="none" stroke="#ac3660" stroke-width="2.5" stroke-linecap="round" stroke-linejoin="round" opacity="0.45"/><clipPath id="k19"><path d="M -26 -106 Q 0 -112 26 -106 L 32 -74 Q 60 -34 66 -12 Q 0 2 -66 -12 Q -60 -34 -32 -74 Z" fill="#000"/></clipPath><g clip-path="url(#k19)"><ellipse cx="54" cy="-40" rx="34" ry="70" fill="#000" opacity="0.11"/><ellipse cx="-24" cy="-90" rx="6" ry="12" fill="#fff" transform="rotate(20 -24 -90)" opacity="0.22"/></g><rect x="-32" y="-80" width="64" height="10" rx="5" fill="url(#volfe6f7db)"/><path d="M -20 -106 Q 0 -94 20 -106" fill="none" stroke="#ac3660" stroke-width="2.5" stroke-linecap="round" stroke-linejoin="round"/><path d="M -28 -98 Q -48 -63 -52 -40" fill="none" stroke="#a5345c" stroke-width="18" stroke-linecap="round" stroke-linejoin="round"/><path d="M -28 -98 Q -48 -63 -52 -40" fill="none" stroke="#e64980" stroke-width="14" stroke-linecap="round" stroke-linejoin="round"/><circle cx="-51" cy="-45.5" r="8.4" fill="url(#vol22f1db4)"/><path d="M 28 -98 Q 48 -63 52 -40" fill="none" stroke="#a5345c" stroke-width="18" stroke-linecap="round" stroke-linejoin="round"/><path d="M 28 -98 Q 48 -63 52 -40" fill="none" stroke="#e64980" stroke-width="14" stroke-linecap="round" stroke-linejoin="round"/><circle cx="51" cy="-45.5" r="8.4" fill="url(#vol22f1db4)"/><ellipse cx="-44.4" cy="-45.2" rx="4.7" ry="5.8" fill="url(#vol3082a02)" transform="rotate(30 -44.4 -45.2)" stroke="#c8ad97" stroke-width="2"/><circle cx="-52" cy="-40" r="10.5" fill="url(#vol3082a02)" stroke="#c8ad97" stroke-width="2"/><ellipse cx="44.4" cy="-45.2" rx="4.7" ry="5.8" fill="url(#vol3082a02)" transform="rotate(-30 44.4 -45.2)" stroke="#c8ad97" stroke-width="2"/><circle cx="52" cy="-40" r="10.5" fill="url(#vol3082a02)" stroke="#c8ad97" stroke-width="2"/><rect x="-9" y="-116" width="18" height="16" fill="url(#vol3082a02)"/><ellipse cx="0" cy="-106" rx="10" ry="4" fill="#c8ad97" opacity="0.7"/><g><g><circle cx="-49" cy="-148" r="11" fill="url(#vol3082a02)"/><path d="M -50 -154 Q -55 -148 -50 -142" fill="none" stroke="#c8ad97" stroke-width="2.5" stroke-linecap="round" stroke-linejoin="round"/><circle cx="49" cy="-148" r="11" fill="url(#vol3082a02)"/><path d="M 50 -154 Q 55 -148 50 -142" fill="none" stroke="#c8ad97" stroke-width="2.5" stroke-linecap="round" stroke-linejoin="round"/></g><circle cx="0" cy="-150" r="50" fill="url(#vol3490e56)"/><clipPath id="k20"><circle cx="0" cy="-150" r="50" fill="#000"/></clipPath><g clip-path="url(#k20)"><ellipse cx="36" cy="-124" rx="40" ry="38" fill="#000" opacity="0.07"/><ellipse cx="-22" cy="-180" rx="13" ry="7" fill="#fff" transform="rotate(-30 -22 -180)" opacity="0.22"/></g><ellipse cx="-30" cy="-128" rx="9" ry="5.5" fill="#ff8fab" opacity="0.6"/><ellipse cx="30" cy="-128" rx="9" ry="5.5" fill="#ff8fab" opacity="0.6"/><ellipse cx="-18" cy="-150" rx="8.5" ry="11.1" fill="url(#vol38c8b34)"/><circle cx="-16" cy="-153" r="2.9" fill="url(#vol0044542)"/><circle cx="-20.2" cy="-146.4" r="1.4" fill="#fff" opacity="0.75"/><ellipse cx="18" cy="-150" rx="8.5" ry="11.1" fill="url(#vol38c8b34)"/><circle cx="20" cy="-153" r="2.9" fill="url(#vol0044542)"/><circle cx="15.8" cy="-146.4" r="1.4" fill="#fff" opacity="0.75"/><path d="M -28 -172 Q -18.5 -181 -9 -172" fill="none" stroke="#2b2b3a" stroke-width="3.5" stroke-linecap="round" stroke-linejoin="round"/><path d="M 28 -172 Q 18.5 -181 9 -172" fill="none" stroke="#2b2b3a" stroke-width="3.5" stroke-linecap="round" stroke-linejoin="round"/><path d="M -4 -134 Q 0 -130 4 -134" fill="none" stroke="#bca28d" stroke-width="3" stroke-linecap="round" stroke-linejoin="round"/><ellipse cx="0" cy="-117" rx="5.5" ry="7.5" fill="url(#vol38c8b34)"/><g><path d="M -54 -144 Q -60 -210 0 -210 Q 60 -210 54 -144 Q 50 -168 30 -178 Q 22 -164 4 -178 Q -12 -164 -24 -178 Q -46 -170 -54 -144 Z" fill="url(#vola8ff84f)"/><g><path d="M -36 -190 Q -20 -202 -4 -200" fill="none" stroke="#f2a379" stroke-width="5" stroke-linecap="round" stroke-linejoin="round" opacity="0.8"/><path d="M -40 -168 Q -36 -188 -16 -196" fill="none" stroke="#b44509" stroke-width="2.5" stroke-linecap="round" stroke-linejoin="round" opacity="0.8"/><path d="M 14 -196 Q 36 -192 42 -170" fill="none" stroke="#b44509" stroke-width="2.5" stroke-linecap="round" stroke-linejoin="round" opacity="0.8"/><path d="M 2 -204 Q 12 -196 14 -184" fill="none" stroke="#b44509" stroke-width="2.5" stroke-linecap="round" stroke-linejoin="round" opacity="0.8"/></g></g><g><path d="M -40 -190 Q 0 -206 40 -190" fill="none" stroke="#ffd43b" stroke-width="6" stroke-linecap="round" stroke-linejoin="round"/><polygon points="-12,-198 0,-222 12,-198" fill="url(#volbb93d11)" stroke="#f59f00" stroke-width="2"/><circle cx="0" cy="-206" r="5" fill="url(#vol136d6e7)"/></g></g></g></g>
<g><polygon points="540,186 500,370 580,186" fill="url(#vole772153)" stroke="#dee2e6" stroke-width="3"/><rect x="370" y="100" width="380" height="100" rx="40" fill="url(#vole772153)" stroke="#dee2e6" stroke-width="3"/><polygon points="542,184 500,370 578,184" fill="url(#vole772153)"/><text x="560" y="168.9" font-family="Fredoka, Andika, sans-serif" font-weight="700" font-size="54" text-anchor="middle" fill="#2b2b3a">Un DRAGON !</text></g>
</svg>
