<svg xmlns="http://www.w3.org/2000/svg" viewBox="0 0 800 800" width="800" height="800">
<defs><linearGradient id="d13" x1="0" y1="0" x2="0" y2="1"><stop offset="0" stop-color="#343a40"/><stop offset="0.5" stop-color="#656c73"/><stop offset="1" stop-color="#868e96"/></linearGradient><linearGradient id="vol0faf7e7" x1="0" y1="-68" x2="0" y2="55" gradientUnits="userSpaceOnUse"><stop offset="0" stop-color="#ffffff" stop-opacity="0.5"/><stop offset="0.4" stop-color="#ffffff" stop-opacity="0"/><stop offset="0.62" stop-color="#1c2a52" stop-opacity="0"/><stop offset="1" stop-color="#1c2a52" stop-opacity="0.16"/></linearGradient><linearGradient id="vol7aeed44" x1="0" y1="0" x2="0" y2="1"><stop offset="0" stop-color="#6b8f75"/><stop offset="0.22" stop-color="#4f7a5b"/><stop offset="1" stop-color="#3f6148"/></linearGradient><linearGradient id="volf998f13" x1="0" y1="0" x2="0" y2="1"><stop offset="0.35" stop-color="#b6bbc0" stop-opacity="0"/><stop offset="0.75" stop-color="#b6bbc0" stop-opacity="0.35"/><stop offset="1" stop-color="#b6bbc0" stop-opacity="0.1"/></linearGradient></defs>
<rect x="0" y="0" width="800" height="800" fill="url(#d13)"/>
<rect x="0" y="0" width="800" height="800" fill="url(#volf998f13)"/>
<g transform="translate(160 110)"><g><circle cx="-55" cy="10" r="38" fill="#495057"/><circle cx="-15" cy="-18" r="50" fill="#495057"/><circle cx="40" cy="-8" r="42" fill="#495057"/><circle cx="78" cy="18" r="30" fill="#495057"/><rect x="-95" y="5" width="200" height="50" rx="25" fill="#495057"/><circle cx="-55" cy="10" r="38" fill="url(#vol0faf7e7)"/><circle cx="-15" cy="-18" r="50" fill="url(#vol0faf7e7)"/><circle cx="40" cy="-8" r="42" fill="url(#vol0faf7e7)"/><circle cx="78" cy="18" r="30" fill="url(#vol0faf7e7)"/><rect x="-95" y="5" width="200" height="50" rx="25" fill="url(#vol0faf7e7)"/><ellipse cx="-22" cy="-46" rx="22" ry="9" fill="#ffffff" transform="rotate(-12 -22 -46)" opacity="0.55"/></g></g>
<g transform="translate(520 80) scale(1.2 1.2)"><g><circle cx="-55" cy="10" r="38" fill="#495057"/><circle cx="-15" cy="-18" r="50" fill="#495057"/><circle cx="40" cy="-8" r="42" fill="#495057"/><circle cx="78" cy="18" r="30" fill="#495057"/><rect x="-95" y="5" width="200" height="50" rx="25" fill="#495057"/><circle cx="-55" cy="10" r="38" fill="url(#vol0faf7e7)"/><circle cx="-15" cy="-18" r="50" fill="url(#vol0faf7e7)"/><circle cx="40" cy="-8" r="42" fill="url(#vol0faf7e7)"/><circle cx="78" cy="18" r="30" fill="url(#vol0faf7e7)"/><rect x="-95" y="5" width="200" height="50" rx="25" fill="url(#vol0faf7e7)"/><ellipse cx="-22" cy="-46" rx="22" ry="9" fill="#ffffff" transform="rotate(-12 -22 -46)" opacity="0.55"/></g></g>
<g transform="translate(740 160) scale(0.8 0.8)"><g><circle cx="-55" cy="10" r="38" fill="#495057"/><circle cx="-15" cy="-18" r="50" fill="#495057"/><circle cx="40" cy="-8" r="42" fill="#495057"/><circle cx="78" cy="18" r="30" fill="#495057"/><rect x="-95" y="5" width="200" height="50" rx="25" fill="#495057"/><circle cx="-55" cy="10" r="38" fill="url(#vol0faf7e7)"/><circle cx="-15" cy="-18" r="50" fill="url(#vol0faf7e7)"/><circle cx="40" cy="-8" r="42" fill="url(#vol0faf7e7)"/><circle cx="78" cy="18" r="30" fill="url(#vol0faf7e7)"/><rect x="-95" y="5" width="200" height="50" rx="25" fill="url(#vol0faf7e7)"/><ellipse cx="-22" cy="-46" rx="22" ry="9" fill="#ffffff" transform="rotate(-12 -22 -46)" opacity="0.55"/></g></g>
<line x1="259.1" y1="120.7" x2="253.1" y2="142.7" stroke="#a5d8ff" stroke-width="4" stroke-linecap="round" opacity="0.8"/>
<line x1="520.7" y1="57.9" x2="514.7" y2="79.9" stroke="#a5d8ff" stroke-width="4" stroke-linecap="round" opacity="0.8"/>
<line x1="428.7" y1="292.6" x2="422.7" y2="314.6" stroke="#a5d8ff" stroke-width="4" stroke-linecap="round" opacity="0.8"/>
<line x1="46.4" y1="405.9" x2="40.4" y2="427.9" stroke="#a5d8ff" stroke-width="4" stroke-linecap="round" opacity="0.8"/>
<line x1="30" y1="346.9" x2="24" y2="368.9" stroke="#a5d8ff" stroke-width="4" stroke-linecap="round" opacity="0.8"/>
<line x1="55.9" y1="72.6" x2="49.9" y2="94.6" stroke="#a5d8ff" stroke-width="4" stroke-linecap="round" opacity="0.8"/>
<line x1="339.6" y1="661.5" x2="333.6" y2="683.5" stroke="#a5d8ff" stroke-width="4" stroke-linecap="round" opacity="0.8"/>
<line x1="99" y1="178.6" x2="93" y2="200.6" stroke="#a5d8ff" stroke-width="4" stroke-linecap="round" opacity="0.8"/>
<line x1="501.9" y1="758.2" x2="495.9" y2="780.2" stroke="#a5d8ff" stroke-width="4" stroke-linecap="round" opacity="0.8"/>
<line x1="461.7" y1="317.3" x2="455.7" y2="339.3" stroke="#a5d8ff" stroke-width="4" stroke-linecap="round" opacity="0.8"/>
<line x1="781" y1="37.3" x2="775" y2="59.3" stroke="#a5d8ff" stroke-width="4" stroke-linecap="round" opacity="0.8"/>
<line x1="686.8" y1="231.7" x2="680.8" y2="253.7" stroke="#a5d8ff" stroke-width="4" stroke-linecap="round" opacity="0.8"/>
<line x1="115.4" y1="94.2" x2="109.4" y2="116.2" stroke="#a5d8ff" stroke-width="4" stroke-linecap="round" opacity="0.8"/>
<line x1="246.8" y1="652.9" x2="240.8" y2="674.9" stroke="#a5d8ff" stroke-width="4" stroke-linecap="round" opacity="0.8"/>
<line x1="144.6" y1="465.3" x2="138.6" y2="487.3" stroke="#a5d8ff" stroke-width="4" stroke-linecap="round" opacity="0.8"/>
<line x1="511.1" y1="297.9" x2="505.1" y2="319.9" stroke="#a5d8ff" stroke-width="4" stroke-linecap="round" opacity="0.8"/>
<line x1="438.2" y1="50.2" x2="432.2" y2="72.2" stroke="#a5d8ff" stroke-width="4" stroke-linecap="round" opacity="0.8"/>
<line x1="47.7" y1="164.8" x2="41.7" y2="186.8" stroke="#a5d8ff" stroke-width="4" stroke-linecap="round" opacity="0.8"/>
<line x1="544.3" y1="342.1" x2="538.3" y2="364.1" stroke="#a5d8ff" stroke-width="4" stroke-linecap="round" opacity="0.8"/>
<line x1="251.3" y1="468.4" x2="245.3" y2="490.4" stroke="#a5d8ff" stroke-width="4" stroke-linecap="round" opacity="0.8"/>
<line x1="362.5" y1="239.8" x2="356.5" y2="261.8" stroke="#a5d8ff" stroke-width="4" stroke-linecap="round" opacity="0.8"/>
<line x1="635.5" y1="559.2" x2="629.5" y2="581.2" stroke="#a5d8ff" stroke-width="4" stroke-linecap="round" opacity="0.8"/>
<line x1="195.3" y1="459.5" x2="189.3" y2="481.5" stroke="#a5d8ff" stroke-width="4" stroke-linecap="round" opacity="0.8"/>
<line x1="420.2" y1="700.1" x2="414.2" y2="722.1" stroke="#a5d8ff" stroke-width="4" stroke-linecap="round" opacity="0.8"/>
<line x1="583.6" y1="230.4" x2="577.6" y2="252.4" stroke="#a5d8ff" stroke-width="4" stroke-linecap="round" opacity="0.8"/>
<line x1="784.1" y1="94.5" x2="778.1" y2="116.5" stroke="#a5d8ff" stroke-width="4" stroke-linecap="round" opacity="0.8"/>
<line x1="334.5" y1="605.7" x2="328.5" y2="627.7" stroke="#a5d8ff" stroke-width="4" stroke-linecap="round" opacity="0.8"/>
<line x1="121.6" y1="391.2" x2="115.6" y2="413.2" stroke="#a5d8ff" stroke-width="4" stroke-linecap="round" opacity="0.8"/>
<line x1="31.4" y1="534.6" x2="25.4" y2="556.6" stroke="#a5d8ff" stroke-width="4" stroke-linecap="round" opacity="0.8"/>
<line x1="611.7" y1="458.4" x2="605.7" y2="480.4" stroke="#a5d8ff" stroke-width="4" stroke-linecap="round" opacity="0.8"/>
<line x1="700.4" y1="251" x2="694.4" y2="273" stroke="#a5d8ff" stroke-width="4" stroke-linecap="round" opacity="0.8"/>
<line x1="556.2" y1="475.5" x2="550.2" y2="497.5" stroke="#a5d8ff" stroke-width="4" stroke-linecap="round" opacity="0.8"/>
<line x1="463.9" y1="365" x2="457.9" y2="387" stroke="#a5d8ff" stroke-width="4" stroke-linecap="round" opacity="0.8"/>
<line x1="672" y1="755.7" x2="666" y2="777.7" stroke="#a5d8ff" stroke-width="4" stroke-linecap="round" opacity="0.8"/>
<line x1="379.3" y1="531.3" x2="373.3" y2="553.3" stroke="#a5d8ff" stroke-width="4" stroke-linecap="round" opacity="0.8"/>
<line x1="48.5" y1="561.2" x2="42.5" y2="583.2" stroke="#a5d8ff" stroke-width="4" stroke-linecap="round" opacity="0.8"/>
<line x1="517.7" y1="794.5" x2="511.7" y2="816.5" stroke="#a5d8ff" stroke-width="4" stroke-linecap="round" opacity="0.8"/>
<line x1="657.5" y1="227.7" x2="651.5" y2="249.7" stroke="#a5d8ff" stroke-width="4" stroke-linecap="round" opacity="0.8"/>
<line x1="308.6" y1="534.9" x2="302.6" y2="556.9" stroke="#a5d8ff" stroke-width="4" stroke-linecap="round" opacity="0.8"/>
<line x1="18.1" y1="369.4" x2="12.1" y2="391.4" stroke="#a5d8ff" stroke-width="4" stroke-linecap="round" opacity="0.8"/>
<line x1="134.4" y1="93.7" x2="128.4" y2="115.7" stroke="#a5d8ff" stroke-width="4" stroke-linecap="round" opacity="0.8"/>
<line x1="47.2" y1="614.6" x2="41.2" y2="636.6" stroke="#a5d8ff" stroke-width="4" stroke-linecap="round" opacity="0.8"/>
<line x1="103.5" y1="198.1" x2="97.5" y2="220.1" stroke="#a5d8ff" stroke-width="4" stroke-linecap="round" opacity="0.8"/>
<line x1="312.8" y1="697.1" x2="306.8" y2="719.1" stroke="#a5d8ff" stroke-width="4" stroke-linecap="round" opacity="0.8"/>
<line x1="64.5" y1="359.3" x2="58.5" y2="381.3" stroke="#a5d8ff" stroke-width="4" stroke-linecap="round" opacity="0.8"/>
<line x1="439.6" y1="706.7" x2="433.6" y2="728.7" stroke="#a5d8ff" stroke-width="4" stroke-linecap="round" opacity="0.8"/>
<line x1="655.4" y1="691.2" x2="649.4" y2="713.2" stroke="#a5d8ff" stroke-width="4" stroke-linecap="round" opacity="0.8"/>
<line x1="222.7" y1="332.2" x2="216.7" y2="354.2" stroke="#a5d8ff" stroke-width="4" stroke-linecap="round" opacity="0.8"/>
<line x1="287" y1="707.4" x2="281" y2="729.4" stroke="#a5d8ff" stroke-width="4" stroke-linecap="round" opacity="0.8"/>
<line x1="766.2" y1="120.7" x2="760.2" y2="142.7" stroke="#a5d8ff" stroke-width="4" stroke-linecap="round" opacity="0.8"/>
<line x1="141" y1="185.6" x2="135" y2="207.6" stroke="#a5d8ff" stroke-width="4" stroke-linecap="round" opacity="0.8"/>
<line x1="186.7" y1="388" x2="180.7" y2="410" stroke="#a5d8ff" stroke-width="4" stroke-linecap="round" opacity="0.8"/>
<line x1="471.3" y1="210.2" x2="465.3" y2="232.2" stroke="#a5d8ff" stroke-width="4" stroke-linecap="round" opacity="0.8"/>
<line x1="3.3" y1="335.2" x2="-2.7" y2="357.2" stroke="#a5d8ff" stroke-width="4" stroke-linecap="round" opacity="0.8"/>
<line x1="295.4" y1="453.1" x2="289.4" y2="475.1" stroke="#a5d8ff" stroke-width="4" stroke-linecap="round" opacity="0.8"/>
<line x1="762.5" y1="552.4" x2="756.5" y2="574.4" stroke="#a5d8ff" stroke-width="4" stroke-linecap="round" opacity="0.8"/>
<line x1="412.4" y1="494.1" x2="406.4" y2="516.1" stroke="#a5d8ff" stroke-width="4" stroke-linecap="round" opacity="0.8"/>
<line x1="541" y1="43.2" x2="535" y2="65.2" stroke="#a5d8ff" stroke-width="4" stroke-linecap="round" opacity="0.8"/>
<line x1="719.6" y1="624" x2="713.6" y2="646" stroke="#a5d8ff" stroke-width="4" stroke-linecap="round" opacity="0.8"/>
<line x1="699.6" y1="638.3" x2="693.6" y2="660.3" stroke="#a5d8ff" stroke-width="4" stroke-linecap="round" opacity="0.8"/>
<path d="M 0 600 Q 240.0 582 400.0 600 T 800 600 L 800 800 L 0 800 Z" fill="url(#vol7aeed44)"/>
<path d="M 0 600 Q 240.0 582 400.0 600 T 800 600" fill="none" stroke="#9eb5a4" stroke-width="4" stroke-linecap="round" stroke-linejoin="round" opacity="0.55"/>
<path d="M 275.2 784.3 q 6.9 -10.4 13.8 0 m 5.2 0 q 5.2 -6.9 10.4 0 M 765.7 702.1 q 4.5 -6.8 9 0 m 3.4 0 q 3.4 -4.5 6.8 0 M 312.4 782.6 q 6.9 -10.3 13.7 0 m 5.1 0 q 5.1 -6.9 10.3 0 M 730.3 702.8 q 4.5 -6.8 9.1 0 m 3.4 0 q 3.4 -4.5 6.8 0 M 444.9 743.6 q 5.7 -8.6 11.5 0 m 4.3 0 q 4.3 -5.7 8.6 0 M 608.2 631.7 q 2.4 -3.7 4.9 0 m 1.8 0 q 1.8 -2.4 3.7 0 M 272.8 732.5 q 5.4 -8.1 10.8 0 m 4.1 0 q 4.1 -5.4 8.1 0 M 2.3 657.5 q 3.2 -4.8 6.4 0 m 2.4 0 q 2.4 -3.2 4.8 0 M 111 656.6 q 3.2 -4.8 6.4 0 m 2.4 0 q 2.4 -3.2 4.8 0 M 558.1 694 q 4.3 -6.4 8.5 0 m 3.2 0 q 3.2 -4.3 6.4 0 M 103 763.5 q 6.3 -9.5 12.6 0 m 4.7 0 q 4.7 -6.3 9.5 0 M 345.3 783.9 q 6.9 -10.4 13.8 0 m 5.2 0 q 5.2 -6.9 10.4 0 M 431.8 742.8 q 5.7 -8.6 11.4 0 m 4.3 0 q 4.3 -5.7 8.6 0 M 226 764.2 q 6.3 -9.5 12.7 0 m 4.7 0 q 4.7 -6.3 9.5 0 M 87.3 728.8 q 5.3 -7.9 10.6 0 m 4 0 q 4 -5.3 7.9 0 M 321.6 734.8 q 5.5 -8.2 10.9 0 m 4.1 0 q 4.1 -5.5 8.2 0 M 467.6 737.3 q 5.5 -8.3 11.1 0 m 4.2 0 q 4.2 -5.5 8.3 0 M 718.4 724.8 q 5.2 -7.8 10.3 0 m 3.9 0 q 3.9 -5.2 7.8 0 M 187.9 787.7 q 7 -10.5 14 0 m 5.3 0 q 5.3 -7 10.5 0 M 779.6 651.4 q 3 -4.5 6.1 0 m 2.3 0 q 2.3 -3 4.5 0 M 617.8 710.9 q 4.8 -7.1 9.5 0 m 3.6 0 q 3.6 -4.8 7.1 0 M 473.7 690.3 q 4.2 -6.2 8.3 0 m 3.1 0 q 3.1 -4.2 6.2 0 M 9.8 775.7 q 6.7 -10 13.3 0 m 5 0 q 5 -6.7 10 0 M 500.4 665 q 3.4 -5.1 6.8 0 m 2.6 0 q 2.6 -3.4 5.1 0 M 682.1 718.1 q 5 -7.5 10 0 m 3.7 0 q 3.7 -5 7.5 0 M 232 720.9 q 5.1 -7.6 10.1 0 m 3.8 0 q 3.8 -5.1 7.6 0" fill="none" stroke="#3d5f46" stroke-width="2.5" stroke-linecap="round" stroke-linejoin="round" opacity="0.35"/>
<g transform="translate(420 700) rotate(4) scale(1.05 1.05)"><path d="M -70 0 Q -50 -30 -54 -200 L 54 -200 Q 50 -30 70 0 Z" fill="#8d5524"/><path d="M -60 0 Q -80 10 -100 4 M 60 0 Q 80 10 104 2" fill="none" stroke="#8d5524" stroke-width="16" stroke-linecap="round" stroke-linejoin="round"/><path d="M -30 -40 Q -26 -100 -32 -160 M 24 -30 Q 30 -90 22 -150" fill="none" stroke="#6d4424" stroke-width="4" stroke-linecap="round" stroke-linejoin="round"/><circle cx="0" cy="-300" r="130" fill="#2f9e44"/><circle cx="-120" cy="-250" r="90" fill="#40c057"/><circle cx="120" cy="-250" r="90" fill="#40c057"/><circle cx="-60" cy="-360" r="90" fill="#40c057"/><circle cx="70" cy="-370" r="85" fill="#40c057"/><circle cx="0" cy="-260" r="100" fill="#40c057"/><g><ellipse cx="-100" cy="-230" rx="9" ry="12" fill="#c68642"/><path d="M -110 -238 Q -100 -248 -90 -238 Z" fill="#7c4a1e"/></g><g><ellipse cx="90" cy="-300" rx="9" ry="12" fill="#c68642"/><path d="M 80 -308 Q 90 -318 100 -308 Z" fill="#7c4a1e"/></g><g><ellipse cx="-20" cy="-380" rx="9" ry="12" fill="#c68642"/><path d="M -30 -388 Q -20 -398 -10 -388 Z" fill="#7c4a1e"/></g><g><ellipse cx="40" cy="-220" rx="9" ry="12" fill="#c68642"/><path d="M 30 -228 Q 40 -238 50 -228 Z" fill="#7c4a1e"/></g><g><ellipse cx="-130" cy="-300" rx="9" ry="12" fill="#c68642"/><path d="M -140 -308 Q -130 -318 -120 -308 Z" fill="#7c4a1e"/></g><g transform="translate(0 -120) scale(1.7 1.7)"><ellipse cx="-18" cy="0" rx="6.5" ry="8.5" fill="#2b2b3a"/><circle cx="-16" cy="-3" r="2.2" fill="#fff"/><circle cx="-20.2" cy="3.6" r="1.1" fill="#fff" opacity="0.75"/><ellipse cx="18" cy="0" rx="6.5" ry="8.5" fill="#2b2b3a"/><circle cx="20" cy="-3" r="2.2" fill="#fff"/><circle cx="15.8" cy="3.6" r="1.1" fill="#fff" opacity="0.75"/><line x1="-28" y1="-25" x2="-9" y2="-15" stroke="#2b2b3a" stroke-width="4.5" stroke-linecap="round"/><line x1="28" y1="-25" x2="9" y2="-15" stroke="#2b2b3a" stroke-width="4.5" stroke-linecap="round"/><path d="M -15 25 L 15 25 Q 12 46 0 46 Q -12 46 -15 25 Z" fill="#c92a2a" stroke="#2b2b3a" stroke-width="3" stroke-linecap="round" stroke-linejoin="round"/><rect x="-11" y="25" width="22" height="5" fill="#fff"/></g></g>
<g transform="translate(571.4 317.7) rotate(133.2) scale(0.12 0.12)"><line x1="0" y1="0" x2="0" y2="-120" stroke="#2f9e44" stroke-width="10" stroke-linecap="round"/><path d="M 0 -110 C -220 -120 -230 -300 0 -330 C 230 -300 220 -120 0 -110 Z" fill="#40c057"/><line x1="0" y1="-110" x2="0" y2="-320" stroke="#2f9e44" stroke-width="6" stroke-linecap="round"/><path d="M 0 -140 Q -60 -150 -120 -180" fill="none" stroke="#2f9e44" stroke-width="4" stroke-linecap="round" stroke-linejoin="round"/><path d="M 0 -140 Q 60 -150 120 -180" fill="none" stroke="#2f9e44" stroke-width="4" stroke-linecap="round" stroke-linejoin="round"/><path d="M 0 -178 Q -60 -188 -120 -218" fill="none" stroke="#2f9e44" stroke-width="4" stroke-linecap="round" stroke-linejoin="round"/><path d="M 0 -178 Q 60 -188 120 -218" fill="none" stroke="#2f9e44" stroke-width="4" stroke-linecap="round" stroke-linejoin="round"/><path d="M 0 -216 Q -60 -226 -120 -256" fill="none" stroke="#2f9e44" stroke-width="4" stroke-linecap="round" stroke-linejoin="round"/><path d="M 0 -216 Q 60 -226 120 -256" fill="none" stroke="#2f9e44" stroke-width="4" stroke-linecap="round" stroke-linejoin="round"/><path d="M 0 -254 Q -60 -264 -120 -294" fill="none" stroke="#2f9e44" stroke-width="4" stroke-linecap="round" stroke-linejoin="round"/><path d="M 0 -254 Q 60 -264 120 -294" fill="none" stroke="#2f9e44" stroke-width="4" stroke-linecap="round" stroke-linejoin="round"/><path d="M 0 -292 Q -60 -302 -120 -332" fill="none" stroke="#2f9e44" stroke-width="4" stroke-linecap="round" stroke-linejoin="round"/><path d="M 0 -292 Q 60 -302 120 -332" fill="none" stroke="#2f9e44" stroke-width="4" stroke-linecap="round" stroke-linejoin="round"/></g>
<g transform="translate(681.2 350.3) rotate(23.6) scale(0.12 0.12)"><line x1="0" y1="0" x2="0" y2="-120" stroke="#2f9e44" stroke-width="10" stroke-linecap="round"/><path d="M 0 -110 C -220 -120 -230 -300 0 -330 C 230 -300 220 -120 0 -110 Z" fill="#40c057"/><line x1="0" y1="-110" x2="0" y2="-320" stroke="#2f9e44" stroke-width="6" stroke-linecap="round"/><path d="M 0 -140 Q -60 -150 -120 -180" fill="none" stroke="#2f9e44" stroke-width="4" stroke-linecap="round" stroke-linejoin="round"/><path d="M 0 -140 Q 60 -150 120 -180" fill="none" stroke="#2f9e44" stroke-width="4" stroke-linecap="round" stroke-linejoin="round"/><path d="M 0 -178 Q -60 -188 -120 -218" fill="none" stroke="#2f9e44" stroke-width="4" stroke-linecap="round" stroke-linejoin="round"/><path d="M 0 -178 Q 60 -188 120 -218" fill="none" stroke="#2f9e44" stroke-width="4" stroke-linecap="round" stroke-linejoin="round"/><path d="M 0 -216 Q -60 -226 -120 -256" fill="none" stroke="#2f9e44" stroke-width="4" stroke-linecap="round" stroke-linejoin="round"/><path d="M 0 -216 Q 60 -226 120 -256" fill="none" stroke="#2f9e44" stroke-width="4" stroke-linecap="round" stroke-linejoin="round"/><path d="M 0 -254 Q -60 -264 -120 -294" fill="none" stroke="#2f9e44" stroke-width="4" stroke-linecap="round" stroke-linejoin="round"/><path d="M 0 -254 Q 60 -264 120 -294" fill="none" stroke="#2f9e44" stroke-width="4" stroke-linecap="round" stroke-linejoin="round"/><path d="M 0 -292 Q -60 -302 -120 -332" fill="none" stroke="#2f9e44" stroke-width="4" stroke-linecap="round" stroke-linejoin="round"/><path d="M 0 -292 Q 60 -302 120 -332" fill="none" stroke="#2f9e44" stroke-width="4" stroke-linecap="round" stroke-linejoin="round"/></g>
<g transform="translate(504 435) rotate(93.4) scale(0.12 0.12)"><line x1="0" y1="0" x2="0" y2="-120" stroke="#2f9e44" stroke-width="10" stroke-linecap="round"/><path d="M 0 -110 C -220 -120 -230 -300 0 -330 C 230 -300 220 -120 0 -110 Z" fill="#40c057"/><line x1="0" y1="-110" x2="0" y2="-320" stroke="#2f9e44" stroke-width="6" stroke-linecap="round"/><path d="M 0 -140 Q -60 -150 -120 -180" fill="none" stroke="#2f9e44" stroke-width="4" stroke-linecap="round" stroke-linejoin="round"/><path d="M 0 -140 Q 60 -150 120 -180" fill="none" stroke="#2f9e44" stroke-width="4" stroke-linecap="round" stroke-linejoin="round"/><path d="M 0 -178 Q -60 -188 -120 -218" fill="none" stroke="#2f9e44" stroke-width="4" stroke-linecap="round" stroke-linejoin="round"/><path d="M 0 -178 Q 60 -188 120 -218" fill="none" stroke="#2f9e44" stroke-width="4" stroke-linecap="round" stroke-linejoin="round"/><path d="M 0 -216 Q -60 -226 -120 -256" fill="none" stroke="#2f9e44" stroke-width="4" stroke-linecap="round" stroke-linejoin="round"/><path d="M 0 -216 Q 60 -226 120 -256" fill="none" stroke="#2f9e44" stroke-width="4" stroke-linecap="round" stroke-linejoin="round"/><path d="M 0 -254 Q -60 -264 -120 -294" fill="none" stroke="#2f9e44" stroke-width="4" stroke-linecap="round" stroke-linejoin="round"/><path d="M 0 -254 Q 60 -264 120 -294" fill="none" stroke="#2f9e44" stroke-width="4" stroke-linecap="round" stroke-linejoin="round"/><path d="M 0 -292 Q -60 -302 -120 -332" fill="none" stroke="#2f9e44" stroke-width="4" stroke-linecap="round" stroke-linejoin="round"/><path d="M 0 -292 Q 60 -302 120 -332" fill="none" stroke="#2f9e44" stroke-width="4" stroke-linecap="round" stroke-linejoin="round"/></g>
<g transform="translate(570.3 498.3) rotate(169.3) scale(0.12 0.12)"><line x1="0" y1="0" x2="0" y2="-120" stroke="#2f9e44" stroke-width="10" stroke-linecap="round"/><path d="M 0 -110 C -220 -120 -230 -300 0 -330 C 230 -300 220 -120 0 -110 Z" fill="#40c057"/><line x1="0" y1="-110" x2="0" y2="-320" stroke="#2f9e44" stroke-width="6" stroke-linecap="round"/><path d="M 0 -140 Q -60 -150 -120 -180" fill="none" stroke="#2f9e44" stroke-width="4" stroke-linecap="round" stroke-linejoin="round"/><path d="M 0 -140 Q 60 -150 120 -180" fill="none" stroke="#2f9e44" stroke-width="4" stroke-linecap="round" stroke-linejoin="round"/><path d="M 0 -178 Q -60 -188 -120 -218" fill="none" stroke="#2f9e44" stroke-width="4" stroke-linecap="round" stroke-linejoin="round"/><path d="M 0 -178 Q 60 -188 120 -218" fill="none" stroke="#2f9e44" stroke-width="4" stroke-linecap="round" stroke-linejoin="round"/><path d="M 0 -216 Q -60 -226 -120 -256" fill="none" stroke="#2f9e44" stroke-width="4" stroke-linecap="round" stroke-linejoin="round"/><path d="M 0 -216 Q 60 -226 120 -256" fill="none" stroke="#2f9e44" stroke-width="4" stroke-linecap="round" stroke-linejoin="round"/><path d="M 0 -254 Q -60 -264 -120 -294" fill="none" stroke="#2f9e44" stroke-width="4" stroke-linecap="round" stroke-linejoin="round"/><path d="M 0 -254 Q 60 -264 120 -294" fill="none" stroke="#2f9e44" stroke-width="4" stroke-linecap="round" stroke-linejoin="round"/><path d="M 0 -292 Q -60 -302 -120 -332" fill="none" stroke="#2f9e44" stroke-width="4" stroke-linecap="round" stroke-linejoin="round"/><path d="M 0 -292 Q 60 -302 120 -332" fill="none" stroke="#2f9e44" stroke-width="4" stroke-linecap="round" stroke-linejoin="round"/></g>
<g transform="translate(750.9 290.5) rotate(230.1) scale(0.12 0.12)"><line x1="0" y1="0" x2="0" y2="-120" stroke="#2f9e44" stroke-width="10" stroke-linecap="round"/><path d="M 0 -110 C -220 -120 -230 -300 0 -330 C 230 -300 220 -120 0 -110 Z" fill="#40c057"/><line x1="0" y1="-110" x2="0" y2="-320" stroke="#2f9e44" stroke-width="6" stroke-linecap="round"/><path d="M 0 -140 Q -60 -150 -120 -180" fill="none" stroke="#2f9e44" stroke-width="4" stroke-linecap="round" stroke-linejoin="round"/><path d="M 0 -140 Q 60 -150 120 -180" fill="none" stroke="#2f9e44" stroke-width="4" stroke-linecap="round" stroke-linejoin="round"/><path d="M 0 -178 Q -60 -188 -120 -218" fill="none" stroke="#2f9e44" stroke-width="4" stroke-linecap="round" stroke-linejoin="round"/><path d="M 0 -178 Q 60 -188 120 -218" fill="none" stroke="#2f9e44" stroke-width="4" stroke-linecap="round" stroke-linejoin="round"/><path d="M 0 -216 Q -60 -226 -120 -256" fill="none" stroke="#2f9e44" stroke-width="4" stroke-linecap="round" stroke-linejoin="round"/><path d="M 0 -216 Q 60 -226 120 -256" fill="none" stroke="#2f9e44" stroke-width="4" stroke-linecap="round" stroke-linejoin="round"/><path d="M 0 -254 Q -60 -264 -120 -294" fill="none" stroke="#2f9e44" stroke-width="4" stroke-linecap="round" stroke-linejoin="round"/><path d="M 0 -254 Q 60 -264 120 -294" fill="none" stroke="#2f9e44" stroke-width="4" stroke-linecap="round" stroke-linejoin="round"/><path d="M 0 -292 Q -60 -302 -120 -332" fill="none" stroke="#2f9e44" stroke-width="4" stroke-linecap="round" stroke-linejoin="round"/><path d="M 0 -292 Q 60 -302 120 -332" fill="none" stroke="#2f9e44" stroke-width="4" stroke-linecap="round" stroke-linejoin="round"/></g>
<g transform="translate(545.2 353.9) rotate(312.5) scale(0.12 0.12)"><line x1="0" y1="0" x2="0" y2="-120" stroke="#2f9e44" stroke-width="10" stroke-linecap="round"/><path d="M 0 -110 C -220 -120 -230 -300 0 -330 C 230 -300 220 -120 0 -110 Z" fill="#40c057"/><line x1="0" y1="-110" x2="0" y2="-320" stroke="#2f9e44" stroke-width="6" stroke-linecap="round"/><path d="M 0 -140 Q -60 -150 -120 -180" fill="none" stroke="#2f9e44" stroke-width="4" stroke-linecap="round" stroke-linejoin="round"/><path d="M 0 -140 Q 60 -150 120 -180" fill="none" stroke="#2f9e44" stroke-width="4" stroke-linecap="round" stroke-linejoin="round"/><path d="M 0 -178 Q -60 -188 -120 -218" fill="none" stroke="#2f9e44" stroke-width="4" stroke-linecap="round" stroke-linejoin="round"/><path d="M 0 -178 Q 60 -188 120 -218" fill="none" stroke="#2f9e44" stroke-width="4" stroke-linecap="round" stroke-linejoin="round"/><path d="M 0 -216 Q -60 -226 -120 -256" fill="none" stroke="#2f9e44" stroke-width="4" stroke-linecap="round" stroke-linejoin="round"/><path d="M 0 -216 Q 60 -226 120 -256" fill="none" stroke="#2f9e44" stroke-width="4" stroke-linecap="round" stroke-linejoin="round"/><path d="M 0 -254 Q -60 -264 -120 -294" fill="none" stroke="#2f9e44" stroke-width="4" stroke-linecap="round" stroke-linejoin="round"/><path d="M 0 -254 Q 60 -264 120 -294" fill="none" stroke="#2f9e44" stroke-width="4" stroke-linecap="round" stroke-linejoin="round"/><path d="M 0 -292 Q -60 -302 -120 -332" fill="none" stroke="#2f9e44" stroke-width="4" stroke-linecap="round" stroke-linejoin="round"/><path d="M 0 -292 Q 60 -302 120 -332" fill="none" stroke="#2f9e44" stroke-width="4" stroke-linecap="round" stroke-linejoin="round"/></g>
<g transform="translate(657 396.5) rotate(241.7) scale(0.12 0.12)"><line x1="0" y1="0" x2="0" y2="-120" stroke="#2f9e44" stroke-width="10" stroke-linecap="round"/><path d="M 0 -110 C -220 -120 -230 -300 0 -330 C 230 -300 220 -120 0 -110 Z" fill="#40c057"/><line x1="0" y1="-110" x2="0" y2="-320" stroke="#2f9e44" stroke-width="6" stroke-linecap="round"/><path d="M 0 -140 Q -60 -150 -120 -180" fill="none" stroke="#2f9e44" stroke-width="4" stroke-linecap="round" stroke-linejoin="round"/><path d="M 0 -140 Q 60 -150 120 -180" fill="none" stroke="#2f9e44" stroke-width="4" stroke-linecap="round" stroke-linejoin="round"/><path d="M 0 -178 Q -60 -188 -120 -218" fill="none" stroke="#2f9e44" stroke-width="4" stroke-linecap="round" stroke-linejoin="round"/><path d="M 0 -178 Q 60 -188 120 -218" fill="none" stroke="#2f9e44" stroke-width="4" stroke-linecap="round" stroke-linejoin="round"/><path d="M 0 -216 Q -60 -226 -120 -256" fill="none" stroke="#2f9e44" stroke-width="4" stroke-linecap="round" stroke-linejoin="round"/><path d="M 0 -216 Q 60 -226 120 -256" fill="none" stroke="#2f9e44" stroke-width="4" stroke-linecap="round" stroke-linejoin="round"/><path d="M 0 -254 Q -60 -264 -120 -294" fill="none" stroke="#2f9e44" stroke-width="4" stroke-linecap="round" stroke-linejoin="round"/><path d="M 0 -254 Q 60 -264 120 -294" fill="none" stroke="#2f9e44" stroke-width="4" stroke-linecap="round" stroke-linejoin="round"/><path d="M 0 -292 Q -60 -302 -120 -332" fill="none" stroke="#2f9e44" stroke-width="4" stroke-linecap="round" stroke-linejoin="round"/><path d="M 0 -292 Q 60 -302 120 -332" fill="none" stroke="#2f9e44" stroke-width="4" stroke-linecap="round" stroke-linejoin="round"/></g>
<g transform="translate(519.2 403.3) rotate(212.8) scale(0.12 0.12)"><line x1="0" y1="0" x2="0" y2="-120" stroke="#2f9e44" stroke-width="10" stroke-linecap="round"/><path d="M 0 -110 C -220 -120 -230 -300 0 -330 C 230 -300 220 -120 0 -110 Z" fill="#40c057"/><line x1="0" y1="-110" x2="0" y2="-320" stroke="#2f9e44" stroke-width="6" stroke-linecap="round"/><path d="M 0 -140 Q -60 -150 -120 -180" fill="none" stroke="#2f9e44" stroke-width="4" stroke-linecap="round" stroke-linejoin="round"/><path d="M 0 -140 Q 60 -150 120 -180" fill="none" stroke="#2f9e44" stroke-width="4" stroke-linecap="round" stroke-linejoin="round"/><path d="M 0 -178 Q -60 -188 -120 -218" fill="none" stroke="#2f9e44" stroke-width="4" stroke-linecap="round" stroke-linejoin="round"/><path d="M 0 -178 Q 60 -188 120 -218" fill="none" stroke="#2f9e44" stroke-width="4" stroke-linecap="round" stroke-linejoin="round"/><path d="M 0 -216 Q -60 -226 -120 -256" fill="none" stroke="#2f9e44" stroke-width="4" stroke-linecap="round" stroke-linejoin="round"/><path d="M 0 -216 Q 60 -226 120 -256" fill="none" stroke="#2f9e44" stroke-width="4" stroke-linecap="round" stroke-linejoin="round"/><path d="M 0 -254 Q -60 -264 -120 -294" fill="none" stroke="#2f9e44" stroke-width="4" stroke-linecap="round" stroke-linejoin="round"/><path d="M 0 -254 Q 60 -264 120 -294" fill="none" stroke="#2f9e44" stroke-width="4" stroke-linecap="round" stroke-linejoin="round"/><path d="M 0 -292 Q -60 -302 -120 -332" fill="none" stroke="#2f9e44" stroke-width="4" stroke-linecap="round" stroke-linejoin="round"/><path d="M 0 -292 Q 60 -302 120 -332" fill="none" stroke="#2f9e44" stroke-width="4" stroke-linecap="round" stroke-linejoin="round"/></g>
<g transform="translate(590.4 112.4) rotate(311.6) scale(0.12 0.12)"><line x1="0" y1="0" x2="0" y2="-120" stroke="#2f9e44" stroke-width="10" stroke-linecap="round"/><path d="M 0 -110 C -220 -120 -230 -300 0 -330 C 230 -300 220 -120 0 -110 Z" fill="#40c057"/><line x1="0" y1="-110" x2="0" y2="-320" stroke="#2f9e44" stroke-width="6" stroke-linecap="round"/><path d="M 0 -140 Q -60 -150 -120 -180" fill="none" stroke="#2f9e44" stroke-width="4" stroke-linecap="round" stroke-linejoin="round"/><path d="M 0 -140 Q 60 -150 120 -180" fill="none" stroke="#2f9e44" stroke-width="4" stroke-linecap="round" stroke-linejoin="round"/><path d="M 0 -178 Q -60 -188 -120 -218" fill="none" stroke="#2f9e44" stroke-width="4" stroke-linecap="round" stroke-linejoin="round"/><path d="M 0 -178 Q 60 -188 120 -218" fill="none" stroke="#2f9e44" stroke-width="4" stroke-linecap="round" stroke-linejoin="round"/><path d="M 0 -216 Q -60 -226 -120 -256" fill="none" stroke="#2f9e44" stroke-width="4" stroke-linecap="round" stroke-linejoin="round"/><path d="M 0 -216 Q 60 -226 120 -256" fill="none" stroke="#2f9e44" stroke-width="4" stroke-linecap="round" stroke-linejoin="round"/><path d="M 0 -254 Q -60 -264 -120 -294" fill="none" stroke="#2f9e44" stroke-width="4" stroke-linecap="round" stroke-linejoin="round"/><path d="M 0 -254 Q 60 -264 120 -294" fill="none" stroke="#2f9e44" stroke-width="4" stroke-linecap="round" stroke-linejoin="round"/><path d="M 0 -292 Q -60 -302 -120 -332" fill="none" stroke="#2f9e44" stroke-width="4" stroke-linecap="round" stroke-linejoin="round"/><path d="M 0 -292 Q 60 -302 120 -332" fill="none" stroke="#2f9e44" stroke-width="4" stroke-linecap="round" stroke-linejoin="round"/></g>
<g transform="translate(641.8 387.5) rotate(316.4) scale(0.12 0.12)"><line x1="0" y1="0" x2="0" y2="-120" stroke="#2f9e44" stroke-width="10" stroke-linecap="round"/><path d="M 0 -110 C -220 -120 -230 -300 0 -330 C 230 -300 220 -120 0 -110 Z" fill="#40c057"/><line x1="0" y1="-110" x2="0" y2="-320" stroke="#2f9e44" stroke-width="6" stroke-linecap="round"/><path d="M 0 -140 Q -60 -150 -120 -180" fill="none" stroke="#2f9e44" stroke-width="4" stroke-linecap="round" stroke-linejoin="round"/><path d="M 0 -140 Q 60 -150 120 -180" fill="none" stroke="#2f9e44" stroke-width="4" stroke-linecap="round" stroke-linejoin="round"/><path d="M 0 -178 Q -60 -188 -120 -218" fill="none" stroke="#2f9e44" stroke-width="4" stroke-linecap="round" stroke-linejoin="round"/><path d="M 0 -178 Q 60 -188 120 -218" fill="none" stroke="#2f9e44" stroke-width="4" stroke-linecap="round" stroke-linejoin="round"/><path d="M 0 -216 Q -60 -226 -120 -256" fill="none" stroke="#2f9e44" stroke-width="4" stroke-linecap="round" stroke-linejoin="round"/><path d="M 0 -216 Q 60 -226 120 -256" fill="none" stroke="#2f9e44" stroke-width="4" stroke-linecap="round" stroke-linejoin="round"/><path d="M 0 -254 Q -60 -264 -120 -294" fill="none" stroke="#2f9e44" stroke-width="4" stroke-linecap="round" stroke-linejoin="round"/><path d="M 0 -254 Q 60 -264 120 -294" fill="none" stroke="#2f9e44" stroke-width="4" stroke-linecap="round" stroke-linejoin="round"/><path d="M 0 -292 Q -60 -302 -120 -332" fill="none" stroke="#2f9e44" stroke-width="4" stroke-linecap="round" stroke-linejoin="round"/><path d="M 0 -292 Q 60 -302 120 -332" fill="none" stroke="#2f9e44" stroke-width="4" stroke-linecap="round" stroke-linejoin="round"/></g>
<g transform="translate(40 250) scale(1.1 1.1)"><g><g><path d="M 0 0 L 118.99999999999999 0 Q 170 0 170 -22 Q 170 -44 142.79999999999998 -44 Q 118.99999999999999 -44 122.39999999999999 -28" fill="none" stroke="#dee2e6" stroke-width="7" stroke-linecap="round" stroke-linejoin="round" opacity="0.9"/></g><g transform="translate(-50 46)"><path d="M 0 0 L 91.0 0 Q 130 0 130 -22 Q 130 -44 109.2 -44 Q 91.0 -44 93.6 -28" fill="none" stroke="#dee2e6" stroke-width="7" stroke-linecap="round" stroke-linejoin="round" opacity="0.9"/></g><line x1="20" y1="90" x2="150" y2="90" stroke="#dee2e6" stroke-width="7" stroke-linecap="round" opacity="0.9"/></g></g>
<g><polygon points="620,651 470,560 660,651" fill="#ffffff" stroke="#dee2e6" stroke-width="3"/><rect x="500" y="575" width="280" height="90" rx="40" fill="#ffffff" stroke="#dee2e6" stroke-width="3"/><polygon points="622,649 470,560 658,649" fill="#ffffff"/><text x="640" y="629.1" font-family="Fredoka, Andika, sans-serif" font-weight="700" font-size="26" text-anchor="middle" fill="#2b2b3a">Je ne plierai pas !</text></g>
</svg>
