<svg xmlns="http://www.w3.org/2000/svg" viewBox="0 0 800 800" width="800" height="800">
<defs><linearGradient id="d2" x1="0" y1="0" x2="0" y2="1"><stop offset="0" stop-color="#1c2a52"/><stop offset="1" stop-color="#5c7cfa"/></linearGradient></defs>
<rect x="0" y="0" width="800" height="800" fill="url(#d2)"/>
<circle cx="634.7" cy="369.9" r="2" fill="#fff3bf"/>
<circle cx="0.4" cy="298.3" r="3" fill="#fff3bf"/>
<polygon points="302.3,337.3 302.3,344.2 308.5,347.2 302,349.5 301,356.3 296.8,350.7 290,351.9 294,346.3 290.8,340.1 297.4,342.2" fill="#fff3bf" stroke="#fff3bf" stroke-width="1.8" stroke-linejoin="round"/>
<circle cx="331.2" cy="242.2" r="1.9" fill="#fff3bf"/>
<polygon points="446.4,352.9 446.7,359.8 452.9,362.8 446.4,365.1 445.6,372 441.3,366.5 434.5,367.8 438.4,362.1 435.1,356.1 441.7,358" fill="#fff3bf" stroke="#fff3bf" stroke-width="1.8" stroke-linejoin="round"/>
<polygon points="679.5,141.9 679.3,148.8 685.4,152.1 678.8,154 677.5,160.8 673.6,155.1 666.8,156 671,150.5 668,144.3 674.5,146.6" fill="#fff3bf" stroke="#fff3bf" stroke-width="1.8" stroke-linejoin="round"/>
<polygon points="357.6,33.1 359.1,39.3 365.2,40.7 359.9,44.1 360.4,50.4 355.5,46.3 349.7,48.7 352.1,42.9 348,38.1 354.3,38.5" fill="#fff3bf" stroke="#fff3bf" stroke-width="1.7" stroke-linejoin="round"/>
<polygon points="762.8,255.7 764.1,262 770.3,263.7 764.8,266.9 765,273.3 760.3,269 754.3,271.2 757,265.4 753,260.4 759.3,261.1" fill="#fff3bf" stroke="#fff3bf" stroke-width="1.7" stroke-linejoin="round"/>
<circle cx="746.2" cy="409.3" r="2.8" fill="#fff3bf"/>
<circle cx="558.3" cy="362.5" r="1.6" fill="#fff3bf"/>
<circle cx="289.1" cy="270.8" r="2.7" fill="#fff3bf"/>
<circle cx="71.7" cy="396" r="1.7" fill="#fff3bf"/>
<polygon points="530.8,132.1 532.6,137.6 538.4,138.5 533.7,142 534.6,147.7 529.9,144.3 524.8,147 526.5,141.4 522.4,137.4 528.2,137.3" fill="#fff3bf" stroke="#fff3bf" stroke-width="1.5" stroke-linejoin="round"/>
<circle cx="167.9" cy="389.5" r="1.5" fill="#fff3bf"/>
<circle cx="622.4" cy="7.7" r="3.3" fill="#fff3bf"/>
<circle cx="496.2" cy="137.8" r="2.3" fill="#fff3bf"/>
<polygon points="104.6,442.4 104.6,448 109.6,450.6 104.2,452.3 103.4,457.8 100.1,453.3 94.6,454.2 97.8,449.7 95.3,444.7 100.6,446.4" fill="#fff3bf" stroke="#fff3bf" stroke-width="1.5" stroke-linejoin="round"/>
<polygon points="323.1,431.7 322.6,439.2 329,443.1 321.7,444.9 320,452.2 316,445.8 308.5,446.4 313.4,440.7 310.5,433.8 317.4,436.6" fill="#fff3bf" stroke="#fff3bf" stroke-width="2" stroke-linejoin="round"/>
<circle cx="536.2" cy="400.3" r="3.2" fill="#fff3bf"/>
<circle cx="636.9" cy="232.5" r="2.9" fill="#fff3bf"/>
<circle cx="327.3" cy="38.7" r="2" fill="#fff3bf"/>
<polygon points="390.5,346.7 391.9,350.7 396.1,351.3 392.7,353.8 393.4,358 390,355.6 386.2,357.5 387.5,353.5 384.5,350.6 388.7,350.5" fill="#fff3bf" stroke="#fff3bf" stroke-width="1.1" stroke-linejoin="round"/>
<polygon points="475.4,155.2 474.9,160.8 479.7,163.9 474.1,165.1 472.7,170.6 469.8,165.8 464.1,166.1 467.9,161.8 465.8,156.5 471,158.8" fill="#fff3bf" stroke="#fff3bf" stroke-width="1.5" stroke-linejoin="round"/>
<circle cx="203.8" cy="184.8" r="2.7" fill="#fff3bf"/>
<circle cx="214.4" cy="213.6" r="1.8" fill="#fff3bf"/>
<circle cx="302" cy="137.6" r="2.1" fill="#fff3bf"/>
<circle cx="527.4" cy="436.8" r="2.3" fill="#fff3bf"/>
<circle cx="482.4" cy="144.1" r="2.5" fill="#fff3bf"/>
<polygon points="636.2,415.6 636.8,419.7 640.8,421 637.1,422.9 637.1,427 634.1,424.1 630.2,425.4 632,421.7 629.6,418.3 633.7,419" fill="#fff3bf" stroke="#fff3bf" stroke-width="1.1" stroke-linejoin="round"/>
<circle cx="45.7" cy="13.6" r="1.7" fill="#fff3bf"/>
<path d="M 0 640 Q 240.0 622 400.0 640 T 800 640 L 800 800 L 0 800 Z" fill="#2f9e44"/>
<g transform="translate(400 520) scale(2.6 2.6)"><circle cx="-43.3" cy="13.4" r="4.8" fill="#ffd43b"/><polygon points="-40.2,-0.4 -38.5,6 -32.1,7.3 -37.6,10.9 -36.9,17.4 -42,13.3 -48,16 -45.7,9.9 -50.1,5 -43.5,5.3" fill="#ffd43b" stroke="#ffd43b" stroke-width="1.7" stroke-linejoin="round"/><polygon points="-48.4,-14.4 -46,-7.4 -38.7,-6.3 -44.6,-1.9 -43.4,5.4 -49.5,1.1 -56,4.6 -53.8,-2.5 -59.1,-7.7 -51.7,-7.8" fill="#ffd43b" stroke="#ffd43b" stroke-width="1.9" stroke-linejoin="round"/><circle cx="-6.3" cy="18" r="4.6" fill="#ffd43b"/><polygon points="1.7,-24.6 -0.5,-16.7 5.4,-11.1 -2.7,-10.9 -6.2,-3.4 -9,-11.1 -17.2,-12.2 -10.7,-17.2 -12.2,-25.3 -5.4,-20.7" fill="#ffd43b" stroke="#ffd43b" stroke-width="2.1" stroke-linejoin="round"/><polygon points="-27.4,-46.8 -25.7,-42.4 -20.9,-42 -24.6,-38.9 -23.5,-34.2 -27.5,-36.8 -31.7,-34.3 -30.5,-39 -34.1,-42.1 -29.3,-42.5" fill="#ffd43b" stroke="#ffd43b" stroke-width="1.3" stroke-linejoin="round"/><circle cx="-17.1" cy="-3.1" r="3.4" fill="#ffd43b"/><polygon points="3.5,7.3 4,13.3 9.6,15.6 4,18 3.6,24 -0.4,19.4 -6.3,20.9 -3.2,15.7 -6.3,10.5 -0.5,11.9" fill="#ffd43b" stroke="#ffd43b" stroke-width="1.6" stroke-linejoin="round"/><polygon points="27,-45.3 27.3,-38.5 33.5,-35.7 27.1,-33.3 26.3,-26.5 22.1,-31.8 15.5,-30.5 19.2,-36.2 15.9,-42.1 22.4,-40.3" fill="#ffd43b" stroke="#ffd43b" stroke-width="1.8" stroke-linejoin="round"/></g>
<g transform="translate(400 790) scale(1.5 1.5)"><path d="M -58 -156 Q -70 -96 -56 -70 Q 0 -60 56 -70 Q 70 -96 58 -156 Z" fill="#f6c453"/><ellipse cx="-16" cy="-6" rx="14" ry="8" fill="#d0ebff"/><ellipse cx="16" cy="-6" rx="14" ry="8" fill="#d0ebff"/><path d="M -26 -106 Q 0 -112 26 -106 L 32 -74 Q 60 -34 66 -12 Q 0 2 -66 -12 Q -60 -34 -32 -74 Z" fill="#74c0fc"/><path d="M -66 -12 Q 0 2 66 -12 L 64 -22 Q 0 -8 -64 -22 Z" fill="#e7f5ff"/><polygon points="-44,-43 -42.7,-39.8 -39.2,-39.5 -41.9,-37.3 -41.1,-34 -44,-35.8 -46.9,-34 -46.1,-37.3 -48.8,-39.5 -45.3,-39.8" fill="#e7f5ff" stroke="#e7f5ff" stroke-width="0.9" stroke-linejoin="round"/><polygon points="-22,-47 -20.7,-43.8 -17.2,-43.5 -19.9,-41.3 -19.1,-38 -22,-39.8 -24.9,-38 -24.1,-41.3 -26.8,-43.5 -23.3,-43.8" fill="#e7f5ff" stroke="#e7f5ff" stroke-width="0.9" stroke-linejoin="round"/><polygon points="0,-51 1.3,-47.8 4.8,-47.5 2.1,-45.3 2.9,-42 0,-43.8 -2.9,-42 -2.1,-45.3 -4.8,-47.5 -1.3,-47.8" fill="#e7f5ff" stroke="#e7f5ff" stroke-width="0.9" stroke-linejoin="round"/><polygon points="22,-47 23.3,-43.8 26.8,-43.5 24.1,-41.3 24.9,-38 22,-39.8 19.1,-38 19.9,-41.3 17.2,-43.5 20.7,-43.8" fill="#e7f5ff" stroke="#e7f5ff" stroke-width="0.9" stroke-linejoin="round"/><polygon points="44,-43 45.3,-39.8 48.8,-39.5 46.1,-37.3 46.9,-34 44,-35.8 41.1,-34 41.9,-37.3 39.2,-39.5 42.7,-39.8" fill="#e7f5ff" stroke="#e7f5ff" stroke-width="0.9" stroke-linejoin="round"/><rect x="-32" y="-80" width="64" height="10" rx="5" fill="#62a3d6"/><path d="M -28 -98 Q -66 -97 -88 -108" fill="none" stroke="#74c0fc" stroke-width="14" stroke-linecap="round" stroke-linejoin="round"/><path d="M 28 -98 Q 66 -97 88 -108" fill="none" stroke="#74c0fc" stroke-width="14" stroke-linecap="round" stroke-linejoin="round"/><circle cx="-88" cy="-108" r="10.5" fill="#fbd9bd"/><circle cx="88" cy="-108" r="10.5" fill="#fbd9bd"/><rect x="-9" y="-116" width="18" height="16" fill="#fbd9bd"/><circle cx="-49" cy="-148" r="11" fill="#fbd9bd"/><circle cx="49" cy="-148" r="11" fill="#fbd9bd"/><circle cx="0" cy="-150" r="50" fill="#fbd9bd"/><ellipse cx="-30" cy="-128" rx="9" ry="5.5" fill="#ff8fab" opacity="0.6"/><ellipse cx="30" cy="-128" rx="9" ry="5.5" fill="#ff8fab" opacity="0.6"/><path d="M -26 -147 Q -18 -159 -10 -147" fill="none" stroke="#2b2b3a" stroke-width="3.8" stroke-linecap="round" stroke-linejoin="round"/><path d="M 10 -147 Q 18 -159 26 -147" fill="none" stroke="#2b2b3a" stroke-width="3.8" stroke-linecap="round" stroke-linejoin="round"/><path d="M -4 -134 Q 0 -130 4 -134" fill="none" stroke="#bca28d" stroke-width="3" stroke-linecap="round" stroke-linejoin="round"/><path d="M -11.7 -123 Q 0 -99 11.7 -123 Z" fill="#c92a2a" stroke="#2b2b3a" stroke-width="3" stroke-linecap="round" stroke-linejoin="round"/><ellipse cx="0" cy="-112" rx="5.4" ry="3.5" fill="#ff8787"/><path d="M -54 -144 Q -60 -210 0 -210 Q 60 -210 54 -144 Q 50 -168 30 -178 Q 22 -164 4 -178 Q -12 -164 -24 -178 Q -46 -170 -54 -144 Z" fill="#f6c453"/><g><path d="M -40 -190 Q 0 -206 40 -190" fill="none" stroke="#ffd43b" stroke-width="6" stroke-linecap="round" stroke-linejoin="round"/><polygon points="-12,-198 0,-222 12,-198" fill="#ffd43b" stroke="#f59f00" stroke-width="2"/><circle cx="0" cy="-206" r="5" fill="#e64980"/></g></g>
<g transform="translate(150 790)"><g><ellipse cx="-66" cy="-130" rx="44" ry="64" fill="#e5dbff" transform="rotate(-30 -66 -130)" opacity="0.8" stroke="#a5d8ff" stroke-width="3"/><ellipse cx="-58" cy="-64" rx="30" ry="40" fill="#e5dbff" transform="rotate(30 -58 -64)" opacity="0.8" stroke="#a5d8ff" stroke-width="3"/><ellipse cx="66" cy="-130" rx="44" ry="64" fill="#e5dbff" transform="rotate(30 66 -130)" opacity="0.8" stroke="#a5d8ff" stroke-width="3"/><ellipse cx="58" cy="-64" rx="30" ry="40" fill="#e5dbff" transform="rotate(-30 58 -64)" opacity="0.8" stroke="#a5d8ff" stroke-width="3"/></g><circle cx="0" cy="-210" r="26" fill="#e9ecef"/><ellipse cx="-16" cy="-6" rx="14" ry="8" fill="#7b69b0"/><ellipse cx="16" cy="-6" rx="14" ry="8" fill="#7b69b0"/><path d="M -26 -106 Q 0 -112 26 -106 L 32 -74 Q 60 -34 66 -12 Q 0 2 -66 -12 Q -60 -34 -32 -74 Z" fill="#b197fc"/><path d="M -66 -12 Q 0 2 66 -12 L 64 -22 Q 0 -8 -64 -22 Z" fill="#fff"/><polygon points="-44,-43 -42.7,-39.8 -39.2,-39.5 -41.9,-37.3 -41.1,-34 -44,-35.8 -46.9,-34 -46.1,-37.3 -48.8,-39.5 -45.3,-39.8" fill="#fff" stroke="#fff" stroke-width="0.9" stroke-linejoin="round"/><polygon points="-22,-47 -20.7,-43.8 -17.2,-43.5 -19.9,-41.3 -19.1,-38 -22,-39.8 -24.9,-38 -24.1,-41.3 -26.8,-43.5 -23.3,-43.8" fill="#fff" stroke="#fff" stroke-width="0.9" stroke-linejoin="round"/><polygon points="0,-51 1.3,-47.8 4.8,-47.5 2.1,-45.3 2.9,-42 0,-43.8 -2.9,-42 -2.1,-45.3 -4.8,-47.5 -1.3,-47.8" fill="#fff" stroke="#fff" stroke-width="0.9" stroke-linejoin="round"/><polygon points="22,-47 23.3,-43.8 26.8,-43.5 24.1,-41.3 24.9,-38 22,-39.8 19.1,-38 19.9,-41.3 17.2,-43.5 20.7,-43.8" fill="#fff" stroke="#fff" stroke-width="0.9" stroke-linejoin="round"/><polygon points="44,-43 45.3,-39.8 48.8,-39.5 46.1,-37.3 46.9,-34 44,-35.8 41.1,-34 41.9,-37.3 39.2,-39.5 42.7,-39.8" fill="#fff" stroke="#fff" stroke-width="0.9" stroke-linejoin="round"/><rect x="-32" y="-80" width="64" height="10" rx="5" fill="#9680d6"/><path d="M -28 -98 Q -48 -63 -52 -40" fill="none" stroke="#b197fc" stroke-width="14" stroke-linecap="round" stroke-linejoin="round"/><path d="M 28 -98 Q 56 -116 68 -146" fill="none" stroke="#b197fc" stroke-width="14" stroke-linecap="round" stroke-linejoin="round"/><g transform="translate(68 -146) rotate(20) scale(0.9 0.9)"><line x1="0" y1="0" x2="0" y2="-70" stroke="#343a40" stroke-width="6" stroke-linecap="round"/><line x1="0" y1="0" x2="0" y2="-18" stroke="#f59f00" stroke-width="7" stroke-linecap="round"/><circle cx="0" cy="-82" r="22" fill="#ffd43b" opacity="0.3"/><polygon points="0,-97 4,-87.5 14.3,-86.6 6.4,-79.9 8.8,-69.9 0,-75.2 -8.8,-69.9 -6.4,-79.9 -14.3,-86.6 -4,-87.5" fill="#ffd43b" stroke="#ffd43b" stroke-width="2.7" stroke-linejoin="round"/></g><circle cx="-52" cy="-40" r="10.5" fill="#f3c3a0"/><circle cx="68" cy="-146" r="10.5" fill="#f3c3a0"/><rect x="-9" y="-116" width="18" height="16" fill="#f3c3a0"/><circle cx="-49" cy="-148" r="11" fill="#f3c3a0"/><circle cx="49" cy="-148" r="11" fill="#f3c3a0"/><circle cx="0" cy="-150" r="50" fill="#f3c3a0"/><ellipse cx="-30" cy="-128" rx="9" ry="5.5" fill="#ff8fab" opacity="0.6"/><ellipse cx="30" cy="-128" rx="9" ry="5.5" fill="#ff8fab" opacity="0.6"/><ellipse cx="-18" cy="-150" rx="6.5" ry="8.5" fill="#2b2b3a"/><circle cx="-16" cy="-153" r="2.2" fill="#fff"/><ellipse cx="18" cy="-150" rx="6.5" ry="8.5" fill="#2b2b3a"/><circle cx="20" cy="-153" r="2.2" fill="#fff"/><path d="M -4 -134 Q 0 -130 4 -134" fill="none" stroke="#b69278" stroke-width="3" stroke-linecap="round" stroke-linejoin="round"/><path d="M -10.8 -121 Q 0 -109 10.8 -121" fill="none" stroke="#2b2b3a" stroke-width="3.8" stroke-linecap="round" stroke-linejoin="round"/><path d="M -54 -144 Q -60 -210 0 -210 Q 60 -210 54 -144 Q 50 -168 30 -178 Q 22 -164 4 -178 Q -12 -164 -24 -178 Q -46 -170 -54 -144 Z" fill="#e9ecef"/><circle cx="0" cy="-210" r="26" fill="#e9ecef"/></g>
<g><rect x="570" y="210" width="140" height="160" rx="14" fill="#8d5524"/><g><circle cx="640" cy="280" r="56" fill="#f59f00"/><circle cx="640" cy="280" r="50" fill="#fff9db"/><circle cx="680" cy="280" r="2.5" fill="#2b2b3a"/><circle cx="674.6" cy="300" r="2.5" fill="#2b2b3a"/><circle cx="660" cy="314.6" r="2.5" fill="#2b2b3a"/><circle cx="640" cy="320" r="2.5" fill="#2b2b3a"/><circle cx="620" cy="314.6" r="2.5" fill="#2b2b3a"/><circle cx="605.4" cy="300" r="2.5" fill="#2b2b3a"/><circle cx="600" cy="280" r="2.5" fill="#2b2b3a"/><circle cx="605.4" cy="260" r="2.5" fill="#2b2b3a"/><circle cx="620" cy="245.4" r="2.5" fill="#2b2b3a"/><circle cx="640" cy="240" r="2.5" fill="#2b2b3a"/><circle cx="660" cy="245.4" r="2.5" fill="#2b2b3a"/><circle cx="674.6" cy="260" r="2.5" fill="#2b2b3a"/><line x1="640" y1="280" x2="640" y2="255" stroke="#2b2b3a" stroke-width="5" stroke-linecap="round"/><line x1="640" y1="280" x2="640" y2="242.5" stroke="#2b2b3a" stroke-width="3.5" stroke-linecap="round"/><circle cx="640" cy="280" r="4" fill="#2b2b3a"/></g></g>
<g><polygon points="600,511 170,560 640,511" fill="#ffffff" stroke="#dee2e6" stroke-width="3"/><rect x="495" y="435" width="250" height="90" rx="40" fill="#ffffff" stroke="#dee2e6" stroke-width="3"/><polygon points="602,509 170,560 638,509" fill="#ffffff"/><text x="620" y="490.5" font-family="Fredoka, Andika, sans-serif" font-weight="700" font-size="30" text-anchor="middle" fill="#2b2b3a">Avant minuit !</text></g>
</svg>
