<svg xmlns="http://www.w3.org/2000/svg" viewBox="0 0 800 800" width="800" height="800">
<defs><linearGradient id="d18" x1="0" y1="0" x2="0" y2="1"><stop offset="0" stop-color="#364fc7"/><stop offset="0.5" stop-color="#ae84b4"/><stop offset="1" stop-color="#ffa8a8"/></linearGradient><linearGradient id="vol0044542" x1="0" y1="0" x2="1" y2="1"><stop offset="0" stop-color="#ffffff"/><stop offset="0.5" stop-color="#fff"/><stop offset="1" stop-color="#d6d6d6"/></linearGradient><linearGradient id="vol243d88a" x1="0" y1="0" x2="1" y2="1"><stop offset="0" stop-color="#68503d"/><stop offset="0.5" stop-color="#4c2f19"/><stop offset="1" stop-color="#3f2715"/></linearGradient><radialGradient id="vol28599ff" cx="0.4" cy="0.4" r="0.6" fx="0.3" fy="0.3"><stop offset="0" stop-color="#e4ba93"/><stop offset="0.55" stop-color="#dca36f"/><stop offset="1" stop-color="#b8885d"/></radialGradient><linearGradient id="vol2c758ed" x1="0" y1="0" x2="1" y2="1"><stop offset="0" stop-color="#ed7d41"/><stop offset="0.5" stop-color="#e8590c"/><stop offset="1" stop-color="#b94709"/></linearGradient><radialGradient id="vol2ea26ee" cx="0.5" cy="0.5" r="0.5"><stop offset="0" stop-color="#000" stop-opacity="0.286"/><stop offset="0.55" stop-color="#000" stop-opacity="0.156"/><stop offset="1" stop-color="#000" stop-opacity="0"/></radialGradient><linearGradient id="vol2feb9a7" x1="0" y1="0" x2="1" y2="0"><stop offset="0" stop-color="#b37457"/><stop offset="0.38" stop-color="#a0522d"/><stop offset="1" stop-color="#783d21"/></linearGradient><linearGradient id="vol344fb7f" x1="0" y1="0" x2="1" y2="0"><stop offset="0" stop-color="#d35454"/><stop offset="0.38" stop-color="#c92a2a"/><stop offset="1" stop-color="#8c1d1d"/></linearGradient><linearGradient id="vol38c8b34" x1="0" y1="0" x2="1" y2="1"><stop offset="0" stop-color="#4c4c59"/><stop offset="0.5" stop-color="#2b2b3a"/><stop offset="1" stop-color="#242430"/></linearGradient><linearGradient id="vol3c06fcf" x1="0" y1="0" x2="1" y2="1"><stop offset="0" stop-color="#54595e"/><stop offset="0.5" stop-color="#343a40"/><stop offset="1" stop-color="#2b3035"/></linearGradient><linearGradient id="vol3d23660" x1="0" y1="0" x2="1" y2="1"><stop offset="0" stop-color="#fff5eb"/><stop offset="0.5" stop-color="#fff4e8"/><stop offset="1" stop-color="#d6ccc2"/></linearGradient><linearGradient id="vol4079fe6" x1="0" y1="0" x2="1" y2="1"><stop offset="0" stop-color="#ac5b2f"/><stop offset="0.5" stop-color="#9d3c08"/><stop offset="1" stop-color="#833206"/></linearGradient><linearGradient id="vol42726a1" x1="0" y1="0" x2="1" y2="1"><stop offset="0" stop-color="#6c533f"/><stop offset="0.5" stop-color="#51331b"/><stop offset="1" stop-color="#442a16"/></linearGradient><linearGradient id="vol5c1e8bb" x1="0" y1="0" x2="0" y2="1"><stop offset="0.35" stop-color="#ffcaca" stop-opacity="0"/><stop offset="0.75" stop-color="#ffcaca" stop-opacity="0.35"/><stop offset="1" stop-color="#ffcaca" stop-opacity="0.1"/></linearGradient><linearGradient id="vol5c4d1ce" x1="0" y1="0" x2="1" y2="0"><stop offset="0" stop-color="#d7dce1"/><stop offset="0.38" stop-color="#ced4da"/><stop offset="1" stop-color="#a4a9ae"/></linearGradient><linearGradient id="vol60460a3" x1="0" y1="0" x2="1" y2="1"><stop offset="0" stop-color="#deceba"/><stop offset="0.5" stop-color="#d8c5ad"/><stop offset="1" stop-color="#b5a591"/></linearGradient><linearGradient id="vol64943b2" x1="0" y1="0" x2="1" y2="1"><stop offset="0" stop-color="#fff2e2"/><stop offset="0.5" stop-color="#fff0dd"/><stop offset="1" stop-color="#d6c9b9"/></linearGradient><linearGradient id="vol64bb09d" x1="0" y1="0" x2="1" y2="1"><stop offset="0" stop-color="#cfc0ae"/><stop offset="0.5" stop-color="#c6b49f"/><stop offset="1" stop-color="#a69785"/></linearGradient><radialGradient id="vol696eace" cx="0.5" cy="0.5" r="0.5"><stop offset="0" stop-color="#ffe066" stop-opacity="0.45"/><stop offset="1" stop-color="#ffe066" stop-opacity="0"/></radialGradient><linearGradient id="vol6d9e3b0" x1="0" y1="0" x2="1" y2="1"><stop offset="0" stop-color="#fff6ed"/><stop offset="0.5" stop-color="#fff5ea"/><stop offset="1" stop-color="#d6cdc4"/></linearGradient><linearGradient id="vol73310dc" x1="0" y1="0" x2="1" y2="0"><stop offset="0" stop-color="#ffebd3"/><stop offset="0.38" stop-color="#ffe8cc"/><stop offset="1" stop-color="#dbc7af"/></linearGradient><linearGradient id="vol796656e" x1="0" y1="0" x2="1" y2="1"><stop offset="0" stop-color="#4f5458"/><stop offset="0.5" stop-color="#2e3439"/><stop offset="1" stop-color="#262b2f"/></linearGradient><linearGradient id="vol88cbe44" x1="0" y1="0" x2="1" y2="1"><stop offset="0" stop-color="#ffe47e"/><stop offset="0.5" stop-color="#ffe066"/><stop offset="1" stop-color="#d6bc55"/></linearGradient><linearGradient id="vol9e019a5" x1="0" y1="0" x2="1" y2="0"><stop offset="0" stop-color="#58b169"/><stop offset="0.38" stop-color="#2f9e44"/><stop offset="1" stop-color="#217130"/></linearGradient><linearGradient id="vola6a8b60" x1="0" y1="0" x2="1" y2="0"><stop offset="0" stop-color="#907058"/><stop offset="0.38" stop-color="#6d4424"/><stop offset="1" stop-color="#55351c"/></linearGradient><linearGradient id="volc1d7677" x1="0" y1="0" x2="1" y2="0"><stop offset="0" stop-color="#767b81"/><stop offset="0.38" stop-color="#495057"/><stop offset="1" stop-color="#33383c"/></linearGradient><linearGradient id="volc4f9d9c" x1="0" y1="0" x2="1" y2="0"><stop offset="0" stop-color="#c5cbd0"/><stop offset="0.38" stop-color="#adb5bd"/><stop offset="1" stop-color="#8a9097"/></linearGradient><linearGradient id="vold80bb51" x1="0" y1="0" x2="1" y2="1"><stop offset="0" stop-color="#b44242"/><stop offset="0.5" stop-color="#a61e1e"/><stop offset="1" stop-color="#8b1919"/></linearGradient><linearGradient id="vole21387b" x1="0" y1="0" x2="1" y2="1"><stop offset="0" stop-color="#e1b186"/><stop offset="0.5" stop-color="#dca36f"/><stop offset="1" stop-color="#b8885d"/></linearGradient><linearGradient id="vole772153" x1="0" y1="0" x2="1" y2="1"><stop offset="0" stop-color="#ffffff"/><stop offset="0.5" stop-color="#ffffff"/><stop offset="1" stop-color="#d6d6d6"/></linearGradient><radialGradient id="volf3ddc37" cx="0.5" cy="0.5" r="0.5"><stop offset="0" stop-color="#000" stop-opacity="0.352"/><stop offset="0.55" stop-color="#000" stop-opacity="0.192"/><stop offset="1" stop-color="#000" stop-opacity="0"/></radialGradient><radialGradient id="volf5728c7" cx="0.4" cy="0.4" r="0.6" fx="0.3" fy="0.3"><stop offset="0" stop-color="#ffedb0"/><stop offset="0.55" stop-color="#ffd43b"/><stop offset="1" stop-color="#b29429"/></radialGradient><linearGradient id="volf8d6948" x1="0" y1="0" x2="1" y2="1"><stop offset="0" stop-color="#735741"/><stop offset="0.5" stop-color="#59371d"/><stop offset="1" stop-color="#4a2e18"/></linearGradient></defs>
<rect x="0" y="0" width="800" height="800" fill="url(#d18)"/>
<rect x="0" y="0" width="800" height="800" fill="url(#vol5c1e8bb)"/>
<circle cx="190.4" cy="435.4" r="4.5" fill="#ffffff" opacity="0.9"/>
<circle cx="483.1" cy="500.6" r="3.3" fill="#ffffff" opacity="0.9"/>
<circle cx="10.5" cy="670" r="4" fill="#ffffff" opacity="0.9"/>
<circle cx="187.5" cy="796.5" r="4.9" fill="#ffffff" opacity="0.9"/>
<circle cx="669.2" cy="381.1" r="5.6" fill="#ffffff" opacity="0.9"/>
<circle cx="120.5" cy="507.9" r="6.5" fill="#ffffff" opacity="0.9"/>
<circle cx="418.5" cy="593" r="5.7" fill="#ffffff" opacity="0.9"/>
<circle cx="51.2" cy="606.6" r="5.4" fill="#ffffff" opacity="0.9"/>
<circle cx="241" cy="24.8" r="6.5" fill="#ffffff" opacity="0.9"/>
<circle cx="378.2" cy="575.1" r="6.5" fill="#ffffff" opacity="0.9"/>
<circle cx="571.3" cy="736.9" r="4.6" fill="#ffffff" opacity="0.9"/>
<circle cx="640.7" cy="355.7" r="6.7" fill="#ffffff" opacity="0.9"/>
<circle cx="703.1" cy="78" r="3.5" fill="#ffffff" opacity="0.9"/>
<circle cx="173.6" cy="772.4" r="4.7" fill="#ffffff" opacity="0.9"/>
<circle cx="501.3" cy="240.8" r="5" fill="#ffffff" opacity="0.9"/>
<circle cx="308.7" cy="280.7" r="5.3" fill="#ffffff" opacity="0.9"/>
<circle cx="467.4" cy="723.4" r="5.7" fill="#ffffff" opacity="0.9"/>
<circle cx="743.2" cy="685.1" r="7" fill="#ffffff" opacity="0.9"/>
<circle cx="537" cy="130.5" r="6.4" fill="#ffffff" opacity="0.9"/>
<circle cx="771.7" cy="723.8" r="5.3" fill="#ffffff" opacity="0.9"/>
<circle cx="571.1" cy="168.9" r="6.3" fill="#ffffff" opacity="0.9"/>
<circle cx="458.8" cy="228" r="3.3" fill="#ffffff" opacity="0.9"/>
<circle cx="683.2" cy="791.8" r="3.4" fill="#ffffff" opacity="0.9"/>
<circle cx="640.5" cy="328.4" r="3.6" fill="#ffffff" opacity="0.9"/>
<circle cx="235.1" cy="615" r="6.5" fill="#ffffff" opacity="0.9"/>
<rect x="0" y="560" width="800" height="240" fill="#e9ecef"/>
<g transform="translate(560 640) scale(1.5 1.5)"><ellipse cx="14" cy="0" rx="168" ry="22.4" fill="url(#volf3ddc37)"/><rect x="55" y="-235" width="26" height="75" fill="url(#vol344fb7f)"/><path d="M 55 -222 H 81 M 55 -209 H 81 M 55 -196 H 81 M 68 -235 V -222 M 62 -222 V -209 M 74 -209 V -196" fill="none" stroke="#8f1d1d" stroke-width="1.5" stroke-linecap="round" stroke-linejoin="round" opacity="0.6"/><rect x="51" y="-242" width="34" height="9" rx="2" fill="url(#vold80bb51)"/><rect x="-100" y="-150" width="200" height="150" fill="url(#vol73310dc)"/><path d="M -100 -136 H 100 M -100 -122 H 100 M -100 -108 H 100 M -100 -94 H 100 M -100 -80 H 100 M -100 -66 H 100 M -100 -52 H 100 M -100 -38 H 100 M -100 -24 H 100" fill="none" stroke="#c6b49f" stroke-width="1.5" stroke-linecap="round" stroke-linejoin="round" opacity="0.3"/><rect x="-100" y="-150" width="9" height="150" fill="url(#vol64943b2)"/><rect x="91" y="-150" width="9" height="150" fill="url(#vol60460a3)"/><rect x="-104" y="-16" width="208" height="16" rx="2" fill="url(#vol5c4d1ce)"/><path d="M -70 -16 V 0 M -30 -16 V -8 M 10 -16 V 0 M 50 -16 V -8 M -104 -8 H 104" fill="none" stroke="#868e96" stroke-width="1.5" stroke-linecap="round" stroke-linejoin="round" opacity="0.7"/><polygon points="-100,-150 100,-150 100,-128 -100,-138" fill="#000" opacity="0.16"/><polygon points="-125,-145 0,-250 125,-145" fill="url(#vol2c758ed)"/><clipPath id="k19"><polygon points="-125,-145 0,-250 125,-145" fill="#000"/></clipPath><g clip-path="url(#k19)"><path d="M -136 -232 q 8 9 16 0 q 8 9 16 0 q 8 9 16 0 q 8 9 16 0 q 8 9 16 0 q 8 9 16 0 q 8 9 16 0 q 8 9 16 0 q 8 9 16 0 q 8 9 16 0 q 8 9 16 0 q 8 9 16 0 q 8 9 16 0 q 8 9 16 0 q 8 9 16 0 q 8 9 16 0 q 8 9 16 0 M -128 -217 q 8 9 16 0 q 8 9 16 0 q 8 9 16 0 q 8 9 16 0 q 8 9 16 0 q 8 9 16 0 q 8 9 16 0 q 8 9 16 0 q 8 9 16 0 q 8 9 16 0 q 8 9 16 0 q 8 9 16 0 q 8 9 16 0 q 8 9 16 0 q 8 9 16 0 q 8 9 16 0 q 8 9 16 0 M -136 -202 q 8 9 16 0 q 8 9 16 0 q 8 9 16 0 q 8 9 16 0 q 8 9 16 0 q 8 9 16 0 q 8 9 16 0 q 8 9 16 0 q 8 9 16 0 q 8 9 16 0 q 8 9 16 0 q 8 9 16 0 q 8 9 16 0 q 8 9 16 0 q 8 9 16 0 q 8 9 16 0 q 8 9 16 0 M -128 -187 q 8 9 16 0 q 8 9 16 0 q 8 9 16 0 q 8 9 16 0 q 8 9 16 0 q 8 9 16 0 q 8 9 16 0 q 8 9 16 0 q 8 9 16 0 q 8 9 16 0 q 8 9 16 0 q 8 9 16 0 q 8 9 16 0 q 8 9 16 0 q 8 9 16 0 q 8 9 16 0 q 8 9 16 0 M -136 -172 q 8 9 16 0 q 8 9 16 0 q 8 9 16 0 q 8 9 16 0 q 8 9 16 0 q 8 9 16 0 q 8 9 16 0 q 8 9 16 0 q 8 9 16 0 q 8 9 16 0 q 8 9 16 0 q 8 9 16 0 q 8 9 16 0 q 8 9 16 0 q 8 9 16 0 q 8 9 16 0 q 8 9 16 0 M -128 -157 q 8 9 16 0 q 8 9 16 0 q 8 9 16 0 q 8 9 16 0 q 8 9 16 0 q 8 9 16 0 q 8 9 16 0 q 8 9 16 0 q 8 9 16 0 q 8 9 16 0 q 8 9 16 0 q 8 9 16 0 q 8 9 16 0 q 8 9 16 0 q 8 9 16 0 q 8 9 16 0 q 8 9 16 0" fill="none" stroke="#9d3c08" stroke-width="2" stroke-linecap="round" stroke-linejoin="round" opacity="0.55"/></g><rect x="-129" y="-149" width="258" height="7" rx="3" fill="url(#vol4079fe6)"/><path d="M -125 -145 L 0 -250 L 125 -145" fill="none" stroke="#8b3507" stroke-width="6" stroke-linecap="round" stroke-linejoin="round"/><path d="M -112 -150 L 0 -243" fill="none" stroke="#f19b6d" stroke-width="3" stroke-linecap="round" stroke-linejoin="round" opacity="0.6"/><rect x="-31" y="-92" width="62" height="92" rx="4" fill="url(#vol3d23660)"/><rect x="-25" y="-85" width="50" height="85" rx="6" fill="url(#vol2feb9a7)"/><rect x="-17" y="-76" width="34" height="28" rx="3" fill="none" stroke="#70391f" stroke-width="2.5"/><rect x="-17" y="-42" width="34" height="30" rx="3" fill="none" stroke="#70391f" stroke-width="2.5"/><line x1="-15" y1="-74" x2="15" y2="-74" stroke="#c69781" stroke-width="1.5" stroke-linecap="round" opacity="0.7"/><circle cx="14" cy="-42" r="4.5" fill="url(#volf5728c7)"/><circle cx="13" cy="-43.5" r="1.5" fill="url(#vol0044542)"/><rect x="-36" y="-7" width="72" height="9" rx="2" fill="url(#volc4f9d9c)"/><rect x="-36" y="-100" width="72" height="8" rx="2" fill="url(#vol64bb09d)"/><rect x="-86" y="-129" width="52" height="8" rx="2" fill="url(#vol64bb09d)"/><rect x="-80" y="-120" width="40" height="40" fill="url(#vol88cbe44)"/><polygon points="-80,-120 -40,-120 -40,-114 -74,-114 -74,-80 -80,-80" fill="#000" opacity="0.18"/><polygon points="-72,-80 -58,-120 -50,-120 -64,-80" fill="#fff" opacity="0.2"/><rect x="-80" y="-120" width="40" height="40" fill="none" stroke="#fff" stroke-width="5"/><line x1="-60" y1="-120" x2="-60" y2="-80" stroke="#fff" stroke-width="3.5" stroke-linecap="round"/><line x1="-80" y1="-100" x2="-40" y2="-100" stroke="#fff" stroke-width="3.5" stroke-linecap="round"/><rect x="-86" y="-79" width="52" height="7" rx="2" fill="url(#vol6d9e3b0)"/><rect x="-84" y="-72" width="48" height="4" fill="#000" opacity="0.12"/><ellipse cx="-60" cy="-100" rx="44" ry="40" fill="url(#vol696eace)"/><rect x="34" y="-129" width="52" height="8" rx="2" fill="url(#vol64bb09d)"/><rect x="40" y="-120" width="40" height="40" fill="url(#vol88cbe44)"/><polygon points="40,-120 80,-120 80,-114 46,-114 46,-80 40,-80" fill="#000" opacity="0.18"/><polygon points="48,-80 62,-120 70,-120 56,-80" fill="#fff" opacity="0.2"/><rect x="40" y="-120" width="40" height="40" fill="none" stroke="#fff" stroke-width="5"/><line x1="60" y1="-120" x2="60" y2="-80" stroke="#fff" stroke-width="3.5" stroke-linecap="round"/><line x1="40" y1="-100" x2="80" y2="-100" stroke="#fff" stroke-width="3.5" stroke-linecap="round"/><rect x="34" y="-79" width="52" height="7" rx="2" fill="url(#vol6d9e3b0)"/><rect x="36" y="-72" width="48" height="4" fill="#000" opacity="0.12"/><ellipse cx="60" cy="-100" rx="44" ry="40" fill="url(#vol696eace)"/></g>
<g transform="translate(220 790) scale(1.3 1.3)"><ellipse cx="0" cy="-3" rx="58.2" ry="12.6" fill="url(#vol2ea26ee)"/><filter id="c22" x="-15%" y="-15%" width="130%" height="130%"><feMorphology in="SourceAlpha" operator="dilate" radius="2.04" result="e"/><feFlood flood-color="#2b2b3a" flood-opacity="0.5"/><feComposite in2="e" operator="in" result="o"/><feMerge><feMergeNode in="o"/><feMergeNode in="SourceGraphic"/></feMerge></filter><g filter="url(#c22)"><path d="M -34 -106 Q -76 -40 -72 -4 L 72 -4 Q 76 -40 34 -106 Z" fill="url(#vol9e019a5)"/><path d="M -40 -60 Q -52 -30 -54 -6 M 40 -60 Q 52 -30 54 -6" fill="none" stroke="#257e36" stroke-width="3" stroke-linecap="round" stroke-linejoin="round"/><g transform="rotate(6 0 -112)"></g><rect x="-26" y="-52" width="20" height="46" rx="8" fill="url(#volc1d7677)"/><line x1="-16" y1="-40" x2="-16" y2="-12" stroke="#3a4045" stroke-width="2" stroke-linecap="round" opacity="0.6"/><rect x="6" y="-52" width="20" height="46" rx="8" fill="url(#volc1d7677)"/><line x1="16" y1="-40" x2="16" y2="-12" stroke="#3a4045" stroke-width="2" stroke-linecap="round" opacity="0.6"/><ellipse cx="-17" cy="-6" rx="16" ry="9" fill="url(#vol243d88a)" stroke="#352011" stroke-width="2"/><ellipse cx="-14" cy="-9.2" rx="6.4" ry="2.2" fill="#fff" opacity="0.3"/><ellipse cx="17" cy="-6" rx="16" ry="9" fill="url(#vol243d88a)" stroke="#352011" stroke-width="2"/><ellipse cx="14" cy="-9.2" rx="6.4" ry="2.2" fill="#fff" opacity="0.3"/><path d="M -32 -106 Q 0 -112 32 -106 L 40 -46 Q 0 -36 -40 -46 Z" fill="url(#vola6a8b60)"/><clipPath id="k20"><path d="M -32 -106 Q 0 -112 32 -106 L 40 -46 Q 0 -36 -40 -46 Z" fill="#000"/></clipPath><g clip-path="url(#k20)"><ellipse cx="40" cy="-70" rx="22" ry="46" fill="#000" opacity="0.11"/><ellipse cx="-22" cy="-92" rx="6" ry="11" fill="#fff" transform="rotate(20 -22 -92)" opacity="0.22"/></g><path d="M -20 -106 Q 0 -92 20 -106" fill="none" stroke="#51331b" stroke-width="2.5" stroke-linecap="round" stroke-linejoin="round"/><rect x="-38" y="-62" width="76" height="10" rx="5" fill="url(#vol42726a1)"/><path d="M -28 -98 Q -48 -63 -52 -40" fill="none" stroke="#4e3019" stroke-width="18" stroke-linecap="round" stroke-linejoin="round"/><path d="M -28 -98 Q -48 -63 -52 -40" fill="none" stroke="#6d4424" stroke-width="14" stroke-linecap="round" stroke-linejoin="round"/><circle cx="-51" cy="-45.5" r="8.4" fill="url(#volf8d6948)"/><path d="M 28 -98 Q 64 -89 84 -92" fill="none" stroke="#4e3019" stroke-width="18" stroke-linecap="round" stroke-linejoin="round"/><path d="M 28 -98 Q 64 -89 84 -92" fill="none" stroke="#6d4424" stroke-width="14" stroke-linecap="round" stroke-linejoin="round"/><circle cx="79.2" cy="-91.3" r="8.4" fill="url(#volf8d6948)"/><ellipse cx="-44.4" cy="-45.2" rx="4.7" ry="5.8" fill="url(#vole21387b)" transform="rotate(30 -44.4 -45.2)" stroke="#b08258" stroke-width="2"/><circle cx="-52" cy="-40" r="10.5" fill="url(#vole21387b)" stroke="#b08258" stroke-width="2"/><ellipse cx="76.4" cy="-97.2" rx="4.7" ry="5.8" fill="url(#vole21387b)" transform="rotate(-30 76.4 -97.2)" stroke="#b08258" stroke-width="2"/><circle cx="84" cy="-92" r="10.5" fill="url(#vole21387b)" stroke="#b08258" stroke-width="2"/><rect x="-9" y="-116" width="18" height="16" fill="url(#vole21387b)"/><ellipse cx="0" cy="-106" rx="10" ry="4" fill="#b08258" opacity="0.7"/><g transform="rotate(6 0 -112)"><g><g><circle cx="-49" cy="-148" r="11" fill="url(#vole21387b)"/><path d="M -50 -154 Q -55 -148 -50 -142" fill="none" stroke="#b08258" stroke-width="2.5" stroke-linecap="round" stroke-linejoin="round"/><circle cx="49" cy="-148" r="11" fill="url(#vole21387b)"/><path d="M 50 -154 Q 55 -148 50 -142" fill="none" stroke="#b08258" stroke-width="2.5" stroke-linecap="round" stroke-linejoin="round"/></g><circle cx="0" cy="-150" r="50" fill="url(#vol28599ff)"/><clipPath id="k21"><circle cx="0" cy="-150" r="50" fill="#000"/></clipPath><g clip-path="url(#k21)"><ellipse cx="36" cy="-124" rx="40" ry="38" fill="#000" opacity="0.07"/><ellipse cx="-22" cy="-180" rx="13" ry="7" fill="#fff" transform="rotate(-30 -22 -180)" opacity="0.22"/></g><g><path d="M -48 -146 Q -52 -96 -20 -76 Q 0 -60 20 -76 Q 52 -96 48 -146 Q 40 -116 20 -112 Q 0 -104 -20 -112 Q -40 -116 -48 -146 Z" fill="url(#vol3c06fcf)"/><path d="M -26 -126 Q -12 -136 0 -128 Q 12 -136 26 -126 Q 14 -118 0 -122 Q -14 -118 -26 -126 Z" fill="url(#vol796656e)"/></g><ellipse cx="-30" cy="-128" rx="9" ry="5.5" fill="#ff8fab" opacity="0.6"/><ellipse cx="30" cy="-128" rx="9" ry="5.5" fill="#ff8fab" opacity="0.6"/><ellipse cx="-18" cy="-150" rx="6.5" ry="8.5" fill="url(#vol38c8b34)"/><circle cx="-16" cy="-153" r="2.2" fill="url(#vol0044542)"/><circle cx="-20.2" cy="-146.4" r="1.1" fill="#fff" opacity="0.75"/><ellipse cx="18" cy="-150" rx="6.5" ry="8.5" fill="url(#vol38c8b34)"/><circle cx="20" cy="-153" r="2.2" fill="url(#vol0044542)"/><circle cx="15.8" cy="-146.4" r="1.1" fill="#fff" opacity="0.75"/><line x1="-28" y1="-166" x2="-9" y2="-174" stroke="#2b2b3a" stroke-width="3.5" stroke-linecap="round"/><line x1="28" y1="-166" x2="9" y2="-174" stroke="#2b2b3a" stroke-width="3.5" stroke-linecap="round"/><path d="M -4 -134 Q 0 -130 4 -134" fill="none" stroke="#a57a53" stroke-width="3" stroke-linecap="round" stroke-linejoin="round"/><path d="M -9.9 -114 Q 0 -125 9.9 -114" fill="none" stroke="#2b2b3a" stroke-width="3.8" stroke-linecap="round" stroke-linejoin="round"/><g><path d="M -52 -146 Q -58 -208 0 -208 Q 58 -208 52 -146 Q 46 -170 24 -176 Q 30 -186 18 -188 Q 6 -174 -20 -178 Q -44 -174 -52 -146 Z" fill="url(#vol38c8b34)"/><g><path d="M -36 -190 Q -20 -202 -4 -200" fill="none" stroke="#8a8a92" stroke-width="5" stroke-linecap="round" stroke-linejoin="round" opacity="0.8"/><path d="M -40 -168 Q -36 -188 -16 -196" fill="none" stroke="#21212d" stroke-width="2.5" stroke-linecap="round" stroke-linejoin="round" opacity="0.8"/><path d="M 14 -196 Q 36 -192 42 -170" fill="none" stroke="#21212d" stroke-width="2.5" stroke-linecap="round" stroke-linejoin="round" opacity="0.8"/><path d="M 2 -204 Q 12 -196 14 -184" fill="none" stroke="#21212d" stroke-width="2.5" stroke-linecap="round" stroke-linejoin="round" opacity="0.8"/></g></g></g></g></g></g>
<g><polygon points="500,186 560,440 540,186" fill="url(#vole772153)" stroke="#dee2e6" stroke-width="3"/><rect x="290" y="100" width="460" height="100" rx="40" fill="url(#vole772153)" stroke="#dee2e6" stroke-width="3"/><polygon points="502,184 560,440 538,184" fill="url(#vole772153)"/><text x="520" y="141.9" font-family="Fredoka, Andika, sans-serif" font-weight="700" font-size="36" text-anchor="middle" fill="#2b2b3a">Non, non,</text><text x="520" y="183.3" font-family="Fredoka, Andika, sans-serif" font-weight="700" font-size="36" text-anchor="middle" fill="#2b2b3a">nous n'avons rien !</text></g>
<text x="300" y="400" font-family="Fredoka, Andika, sans-serif" font-weight="700" font-size="60" text-anchor="middle" fill="#c92a2a" stroke="#fff" stroke-width="8.6" stroke-linejoin="round" paint-order="stroke">Clac !</text>
</svg>
