<svg xmlns="http://www.w3.org/2000/svg" viewBox="0 0 800 800" width="800" height="800">
<defs><linearGradient id="d119" x1="0" y1="0" x2="0" y2="1"><stop offset="0" stop-color="#1c2a52"/><stop offset="0.5" stop-color="#443596"/><stop offset="1" stop-color="#5f3dc4"/></linearGradient><linearGradient id="vol0ae62d3" x1="0" y1="0" x2="1" y2="0"><stop offset="0" stop-color="#846b56"/><stop offset="0.38" stop-color="#5c3a1e"/><stop offset="1" stop-color="#402815"/></linearGradient><radialGradient id="vol2ea26ee" cx="0.5" cy="0.5" r="0.5"><stop offset="0" stop-color="#000" stop-opacity="0.286"/><stop offset="0.55" stop-color="#000" stop-opacity="0.156"/><stop offset="1" stop-color="#000" stop-opacity="0"/></radialGradient><radialGradient id="vol3490e56" cx="0.4" cy="0.4" r="0.6" fx="0.3" fy="0.3"><stop offset="0" stop-color="#fce2cd"/><stop offset="0.55" stop-color="#fbd9bd"/><stop offset="1" stop-color="#d2b69e"/></radialGradient><linearGradient id="vol482dad2" x1="0" y1="0" x2="1" y2="0"><stop offset="0" stop-color="#98714f"/><stop offset="0.38" stop-color="#7c4a1e"/><stop offset="1" stop-color="#5e3816"/></linearGradient><radialGradient id="vol503fd79" cx="0.4" cy="0.4" r="0.6" fx="0.3" fy="0.3"><stop offset="0" stop-color="#75d186"/><stop offset="0.55" stop-color="#40c057"/><stop offset="1" stop-color="#339945"/></radialGradient><radialGradient id="vol6fe5f1c" cx="0.5" cy="0.5" r="0.5"><stop offset="0.45" stop-color="#fff3bf" stop-opacity="0.22"/><stop offset="1" stop-color="#fff3bf" stop-opacity="0"/></radialGradient><radialGradient id="vola323949" cx="0.4" cy="0.4" r="0.6" fx="0.3" fy="0.3"><stop offset="0" stop-color="#81dc90"/><stop offset="0.55" stop-color="#51cf66"/><stop offset="1" stop-color="#40a551"/></radialGradient><linearGradient id="volbbcc2e4" x1="0" y1="0" x2="1" y2="0"><stop offset="0" stop-color="#fb7b7b"/><stop offset="0.38" stop-color="#fa5252"/><stop offset="1" stop-color="#c33f3f"/></linearGradient><linearGradient id="volce002ab" x1="0" y1="0" x2="0" y2="1"><stop offset="0" stop-color="#81e090"/><stop offset="0.22" stop-color="#69db7c"/><stop offset="1" stop-color="#54af63"/></linearGradient><radialGradient id="vold969abe" cx="0.4" cy="0.4" r="0.6" fx="0.3" fy="0.3"><stop offset="0" stop-color="#fffae5"/><stop offset="0.55" stop-color="#fff3bf"/><stop offset="1" stop-color="#e0d5a8"/></radialGradient><linearGradient id="vole6f5e1d" x1="0" y1="0" x2="0" y2="1"><stop offset="0.35" stop-color="#9f8adb" stop-opacity="0"/><stop offset="0.75" stop-color="#9f8adb" stop-opacity="0.35"/><stop offset="1" stop-color="#9f8adb" stop-opacity="0.1"/></linearGradient><radialGradient id="voleef744c" cx="0.5" cy="0.5" r="0.5"><stop offset="0" stop-color="#000" stop-opacity="0.308"/><stop offset="0.55" stop-color="#000" stop-opacity="0.168"/><stop offset="1" stop-color="#000" stop-opacity="0"/></radialGradient></defs>
<rect x="0" y="0" width="800" height="800" fill="url(#d119)"/>
<rect x="0" y="0" width="800" height="800" fill="url(#vole6f5e1d)"/>
<g transform="translate(-54.5 587.4) scale(1.139 1.139)"><ellipse cx="4" cy="0" rx="65" ry="12.6" fill="url(#voleef744c)"/><rect x="-16" y="-140" width="32" height="140" rx="8" fill="url(#vol482dad2)"/><path d="M -17 -2 Q -24 2 -34 4 L 34 4 Q 24 2 17 -2 Z" fill="#693e19"/><path d="M 0 -100 Q 22 -118 46 -150" fill="none" stroke="#7c4a1e" stroke-width="11" stroke-linecap="round" stroke-linejoin="round"/><path d="M -2 -112 Q -22 -128 -40 -160" fill="none" stroke="#7c4a1e" stroke-width="9" stroke-linecap="round" stroke-linejoin="round"/><path d="M -6 -24 q 4 -18 0 -36 M 7 -60 q -4 -16 2 -34 M -4 -100 q 3 -10 0 -18" fill="none" stroke="#543214" stroke-width="2.5" stroke-linecap="round" stroke-linejoin="round" opacity="0.55"/><circle cx="0" cy="-200" r="80" fill="url(#vola323949)"/><circle cx="-60" cy="-160" r="52" fill="url(#vol503fd79)"/><circle cx="60" cy="-160" r="52" fill="url(#vol503fd79)"/><circle cx="-25" cy="-235" r="45" fill="#56c76b" opacity="0.5"/><clipPath id="k120"><g><circle cx="0" cy="-200" r="80" fill="#000"/><circle cx="-60" cy="-160" r="52" fill="#000"/><circle cx="60" cy="-160" r="52" fill="#000"/></g></clipPath><g clip-path="url(#k120)"><ellipse cx="30" cy="-132" rx="110" ry="40" fill="#000" opacity="0.14"/><ellipse cx="-30" cy="-250" rx="34" ry="18" fill="#fff" transform="rotate(-20 -30 -250)" opacity="0.22"/></g><path d="M -50 -190 q 3 -7 8 -4 q 4 -6 9 -1 M 16 -226 q 3 -7 8 -4 q 4 -6 9 -1 M 34 -180 q 3 -7 8 -4 q 4 -6 9 -1 M -80 -146 q 3 -7 8 -4 q 4 -6 9 -1 M 60 -140 q 3 -7 8 -4 q 4 -6 9 -1 M -16 -160 q 3 -7 8 -4 q 4 -6 9 -1 M -30 -124 q 3 -7 8 -4 q 4 -6 9 -1 M 40 -118 q 3 -7 8 -4 q 4 -6 9 -1" fill="none" stroke="#3fa14f" stroke-width="2.5" stroke-linecap="round" stroke-linejoin="round" opacity="0.45"/></g>
<g transform="translate(121 567.4) scale(0.981 0.981)"><ellipse cx="4" cy="0" rx="65" ry="12.6" fill="url(#voleef744c)"/><rect x="-16" y="-140" width="32" height="140" rx="8" fill="url(#vol482dad2)"/><path d="M -17 -2 Q -24 2 -34 4 L 34 4 Q 24 2 17 -2 Z" fill="#693e19"/><path d="M 0 -100 Q 22 -118 46 -150" fill="none" stroke="#7c4a1e" stroke-width="11" stroke-linecap="round" stroke-linejoin="round"/><path d="M -2 -112 Q -22 -128 -40 -160" fill="none" stroke="#7c4a1e" stroke-width="9" stroke-linecap="round" stroke-linejoin="round"/><path d="M -6 -24 q 4 -18 0 -36 M 7 -60 q -4 -16 2 -34 M -4 -100 q 3 -10 0 -18" fill="none" stroke="#543214" stroke-width="2.5" stroke-linecap="round" stroke-linejoin="round" opacity="0.55"/><circle cx="0" cy="-200" r="80" fill="url(#vola323949)"/><circle cx="-60" cy="-160" r="52" fill="url(#vol503fd79)"/><circle cx="60" cy="-160" r="52" fill="url(#vol503fd79)"/><circle cx="-25" cy="-235" r="45" fill="#56c76b" opacity="0.5"/><clipPath id="k121"><g><circle cx="0" cy="-200" r="80" fill="#000"/><circle cx="-60" cy="-160" r="52" fill="#000"/><circle cx="60" cy="-160" r="52" fill="#000"/></g></clipPath><g clip-path="url(#k121)"><ellipse cx="30" cy="-132" rx="110" ry="40" fill="#000" opacity="0.14"/><ellipse cx="-30" cy="-250" rx="34" ry="18" fill="#fff" transform="rotate(-20 -30 -250)" opacity="0.22"/></g><path d="M -50 -190 q 3 -7 8 -4 q 4 -6 9 -1 M 16 -226 q 3 -7 8 -4 q 4 -6 9 -1 M 34 -180 q 3 -7 8 -4 q 4 -6 9 -1 M -80 -146 q 3 -7 8 -4 q 4 -6 9 -1 M 60 -140 q 3 -7 8 -4 q 4 -6 9 -1 M -16 -160 q 3 -7 8 -4 q 4 -6 9 -1 M -30 -124 q 3 -7 8 -4 q 4 -6 9 -1 M 40 -118 q 3 -7 8 -4 q 4 -6 9 -1" fill="none" stroke="#3fa14f" stroke-width="2.5" stroke-linecap="round" stroke-linejoin="round" opacity="0.45"/></g>
<g transform="translate(218.8 569) scale(1.157 1.157)"><ellipse cx="4" cy="0" rx="65" ry="12.6" fill="url(#voleef744c)"/><rect x="-16" y="-140" width="32" height="140" rx="8" fill="url(#vol482dad2)"/><path d="M -17 -2 Q -24 2 -34 4 L 34 4 Q 24 2 17 -2 Z" fill="#693e19"/><path d="M 0 -100 Q 22 -118 46 -150" fill="none" stroke="#7c4a1e" stroke-width="11" stroke-linecap="round" stroke-linejoin="round"/><path d="M -2 -112 Q -22 -128 -40 -160" fill="none" stroke="#7c4a1e" stroke-width="9" stroke-linecap="round" stroke-linejoin="round"/><path d="M -6 -24 q 4 -18 0 -36 M 7 -60 q -4 -16 2 -34 M -4 -100 q 3 -10 0 -18" fill="none" stroke="#543214" stroke-width="2.5" stroke-linecap="round" stroke-linejoin="round" opacity="0.55"/><circle cx="0" cy="-200" r="80" fill="url(#vola323949)"/><circle cx="-60" cy="-160" r="52" fill="url(#vol503fd79)"/><circle cx="60" cy="-160" r="52" fill="url(#vol503fd79)"/><circle cx="-25" cy="-235" r="45" fill="#56c76b" opacity="0.5"/><clipPath id="k122"><g><circle cx="0" cy="-200" r="80" fill="#000"/><circle cx="-60" cy="-160" r="52" fill="#000"/><circle cx="60" cy="-160" r="52" fill="#000"/></g></clipPath><g clip-path="url(#k122)"><ellipse cx="30" cy="-132" rx="110" ry="40" fill="#000" opacity="0.14"/><ellipse cx="-30" cy="-250" rx="34" ry="18" fill="#fff" transform="rotate(-20 -30 -250)" opacity="0.22"/></g><path d="M -50 -190 q 3 -7 8 -4 q 4 -6 9 -1 M 16 -226 q 3 -7 8 -4 q 4 -6 9 -1 M 34 -180 q 3 -7 8 -4 q 4 -6 9 -1 M -80 -146 q 3 -7 8 -4 q 4 -6 9 -1 M 60 -140 q 3 -7 8 -4 q 4 -6 9 -1 M -16 -160 q 3 -7 8 -4 q 4 -6 9 -1 M -30 -124 q 3 -7 8 -4 q 4 -6 9 -1 M 40 -118 q 3 -7 8 -4 q 4 -6 9 -1" fill="none" stroke="#3fa14f" stroke-width="2.5" stroke-linecap="round" stroke-linejoin="round" opacity="0.45"/></g>
<g transform="translate(357.8 581.3) scale(0.975 0.975)"><ellipse cx="4" cy="0" rx="65" ry="12.6" fill="url(#voleef744c)"/><rect x="-16" y="-140" width="32" height="140" rx="8" fill="url(#vol482dad2)"/><path d="M -17 -2 Q -24 2 -34 4 L 34 4 Q 24 2 17 -2 Z" fill="#693e19"/><path d="M 0 -100 Q 22 -118 46 -150" fill="none" stroke="#7c4a1e" stroke-width="11" stroke-linecap="round" stroke-linejoin="round"/><path d="M -2 -112 Q -22 -128 -40 -160" fill="none" stroke="#7c4a1e" stroke-width="9" stroke-linecap="round" stroke-linejoin="round"/><path d="M -6 -24 q 4 -18 0 -36 M 7 -60 q -4 -16 2 -34 M -4 -100 q 3 -10 0 -18" fill="none" stroke="#543214" stroke-width="2.5" stroke-linecap="round" stroke-linejoin="round" opacity="0.55"/><circle cx="0" cy="-200" r="80" fill="url(#vola323949)"/><circle cx="-60" cy="-160" r="52" fill="url(#vol503fd79)"/><circle cx="60" cy="-160" r="52" fill="url(#vol503fd79)"/><circle cx="-25" cy="-235" r="45" fill="#56c76b" opacity="0.5"/><clipPath id="k123"><g><circle cx="0" cy="-200" r="80" fill="#000"/><circle cx="-60" cy="-160" r="52" fill="#000"/><circle cx="60" cy="-160" r="52" fill="#000"/></g></clipPath><g clip-path="url(#k123)"><ellipse cx="30" cy="-132" rx="110" ry="40" fill="#000" opacity="0.14"/><ellipse cx="-30" cy="-250" rx="34" ry="18" fill="#fff" transform="rotate(-20 -30 -250)" opacity="0.22"/></g><path d="M -50 -190 q 3 -7 8 -4 q 4 -6 9 -1 M 16 -226 q 3 -7 8 -4 q 4 -6 9 -1 M 34 -180 q 3 -7 8 -4 q 4 -6 9 -1 M -80 -146 q 3 -7 8 -4 q 4 -6 9 -1 M 60 -140 q 3 -7 8 -4 q 4 -6 9 -1 M -16 -160 q 3 -7 8 -4 q 4 -6 9 -1 M -30 -124 q 3 -7 8 -4 q 4 -6 9 -1 M 40 -118 q 3 -7 8 -4 q 4 -6 9 -1" fill="none" stroke="#3fa14f" stroke-width="2.5" stroke-linecap="round" stroke-linejoin="round" opacity="0.45"/></g>
<g transform="translate(507.7 577.3) scale(1.193 1.193)"><ellipse cx="4" cy="0" rx="65" ry="12.6" fill="url(#voleef744c)"/><rect x="-16" y="-140" width="32" height="140" rx="8" fill="url(#vol482dad2)"/><path d="M -17 -2 Q -24 2 -34 4 L 34 4 Q 24 2 17 -2 Z" fill="#693e19"/><path d="M 0 -100 Q 22 -118 46 -150" fill="none" stroke="#7c4a1e" stroke-width="11" stroke-linecap="round" stroke-linejoin="round"/><path d="M -2 -112 Q -22 -128 -40 -160" fill="none" stroke="#7c4a1e" stroke-width="9" stroke-linecap="round" stroke-linejoin="round"/><path d="M -6 -24 q 4 -18 0 -36 M 7 -60 q -4 -16 2 -34 M -4 -100 q 3 -10 0 -18" fill="none" stroke="#543214" stroke-width="2.5" stroke-linecap="round" stroke-linejoin="round" opacity="0.55"/><circle cx="0" cy="-200" r="80" fill="url(#vola323949)"/><circle cx="-60" cy="-160" r="52" fill="url(#vol503fd79)"/><circle cx="60" cy="-160" r="52" fill="url(#vol503fd79)"/><circle cx="-25" cy="-235" r="45" fill="#56c76b" opacity="0.5"/><clipPath id="k124"><g><circle cx="0" cy="-200" r="80" fill="#000"/><circle cx="-60" cy="-160" r="52" fill="#000"/><circle cx="60" cy="-160" r="52" fill="#000"/></g></clipPath><g clip-path="url(#k124)"><ellipse cx="30" cy="-132" rx="110" ry="40" fill="#000" opacity="0.14"/><ellipse cx="-30" cy="-250" rx="34" ry="18" fill="#fff" transform="rotate(-20 -30 -250)" opacity="0.22"/></g><path d="M -50 -190 q 3 -7 8 -4 q 4 -6 9 -1 M 16 -226 q 3 -7 8 -4 q 4 -6 9 -1 M 34 -180 q 3 -7 8 -4 q 4 -6 9 -1 M -80 -146 q 3 -7 8 -4 q 4 -6 9 -1 M 60 -140 q 3 -7 8 -4 q 4 -6 9 -1 M -16 -160 q 3 -7 8 -4 q 4 -6 9 -1 M -30 -124 q 3 -7 8 -4 q 4 -6 9 -1 M 40 -118 q 3 -7 8 -4 q 4 -6 9 -1" fill="none" stroke="#3fa14f" stroke-width="2.5" stroke-linecap="round" stroke-linejoin="round" opacity="0.45"/></g>
<g transform="translate(666.5 560.6) scale(0.997 0.997)"><ellipse cx="4" cy="0" rx="65" ry="12.6" fill="url(#voleef744c)"/><rect x="-16" y="-140" width="32" height="140" rx="8" fill="url(#vol482dad2)"/><path d="M -17 -2 Q -24 2 -34 4 L 34 4 Q 24 2 17 -2 Z" fill="#693e19"/><path d="M 0 -100 Q 22 -118 46 -150" fill="none" stroke="#7c4a1e" stroke-width="11" stroke-linecap="round" stroke-linejoin="round"/><path d="M -2 -112 Q -22 -128 -40 -160" fill="none" stroke="#7c4a1e" stroke-width="9" stroke-linecap="round" stroke-linejoin="round"/><path d="M -6 -24 q 4 -18 0 -36 M 7 -60 q -4 -16 2 -34 M -4 -100 q 3 -10 0 -18" fill="none" stroke="#543214" stroke-width="2.5" stroke-linecap="round" stroke-linejoin="round" opacity="0.55"/><circle cx="0" cy="-200" r="80" fill="url(#vola323949)"/><circle cx="-60" cy="-160" r="52" fill="url(#vol503fd79)"/><circle cx="60" cy="-160" r="52" fill="url(#vol503fd79)"/><circle cx="-25" cy="-235" r="45" fill="#56c76b" opacity="0.5"/><clipPath id="k125"><g><circle cx="0" cy="-200" r="80" fill="#000"/><circle cx="-60" cy="-160" r="52" fill="#000"/><circle cx="60" cy="-160" r="52" fill="#000"/></g></clipPath><g clip-path="url(#k125)"><ellipse cx="30" cy="-132" rx="110" ry="40" fill="#000" opacity="0.14"/><ellipse cx="-30" cy="-250" rx="34" ry="18" fill="#fff" transform="rotate(-20 -30 -250)" opacity="0.22"/></g><path d="M -50 -190 q 3 -7 8 -4 q 4 -6 9 -1 M 16 -226 q 3 -7 8 -4 q 4 -6 9 -1 M 34 -180 q 3 -7 8 -4 q 4 -6 9 -1 M -80 -146 q 3 -7 8 -4 q 4 -6 9 -1 M 60 -140 q 3 -7 8 -4 q 4 -6 9 -1 M -16 -160 q 3 -7 8 -4 q 4 -6 9 -1 M -30 -124 q 3 -7 8 -4 q 4 -6 9 -1 M 40 -118 q 3 -7 8 -4 q 4 -6 9 -1" fill="none" stroke="#3fa14f" stroke-width="2.5" stroke-linecap="round" stroke-linejoin="round" opacity="0.45"/></g>
<g transform="translate(778.8 594.9) scale(1.183 1.183)"><ellipse cx="4" cy="0" rx="65" ry="12.6" fill="url(#voleef744c)"/><rect x="-16" y="-140" width="32" height="140" rx="8" fill="url(#vol482dad2)"/><path d="M -17 -2 Q -24 2 -34 4 L 34 4 Q 24 2 17 -2 Z" fill="#693e19"/><path d="M 0 -100 Q 22 -118 46 -150" fill="none" stroke="#7c4a1e" stroke-width="11" stroke-linecap="round" stroke-linejoin="round"/><path d="M -2 -112 Q -22 -128 -40 -160" fill="none" stroke="#7c4a1e" stroke-width="9" stroke-linecap="round" stroke-linejoin="round"/><path d="M -6 -24 q 4 -18 0 -36 M 7 -60 q -4 -16 2 -34 M -4 -100 q 3 -10 0 -18" fill="none" stroke="#543214" stroke-width="2.5" stroke-linecap="round" stroke-linejoin="round" opacity="0.55"/><circle cx="0" cy="-200" r="80" fill="url(#vola323949)"/><circle cx="-60" cy="-160" r="52" fill="url(#vol503fd79)"/><circle cx="60" cy="-160" r="52" fill="url(#vol503fd79)"/><circle cx="-25" cy="-235" r="45" fill="#56c76b" opacity="0.5"/><clipPath id="k126"><g><circle cx="0" cy="-200" r="80" fill="#000"/><circle cx="-60" cy="-160" r="52" fill="#000"/><circle cx="60" cy="-160" r="52" fill="#000"/></g></clipPath><g clip-path="url(#k126)"><ellipse cx="30" cy="-132" rx="110" ry="40" fill="#000" opacity="0.14"/><ellipse cx="-30" cy="-250" rx="34" ry="18" fill="#fff" transform="rotate(-20 -30 -250)" opacity="0.22"/></g><path d="M -50 -190 q 3 -7 8 -4 q 4 -6 9 -1 M 16 -226 q 3 -7 8 -4 q 4 -6 9 -1 M 34 -180 q 3 -7 8 -4 q 4 -6 9 -1 M -80 -146 q 3 -7 8 -4 q 4 -6 9 -1 M 60 -140 q 3 -7 8 -4 q 4 -6 9 -1 M -16 -160 q 3 -7 8 -4 q 4 -6 9 -1 M -30 -124 q 3 -7 8 -4 q 4 -6 9 -1 M 40 -118 q 3 -7 8 -4 q 4 -6 9 -1" fill="none" stroke="#3fa14f" stroke-width="2.5" stroke-linecap="round" stroke-linejoin="round" opacity="0.45"/></g>
<path d="M 0 600 Q 240.0 582 400.0 600 T 800 600 L 800 800 L 0 800 Z" fill="url(#volce002ab)"/>
<path d="M 0 600 Q 240.0 582 400.0 600 T 800 600" fill="none" stroke="#acebb6" stroke-width="4" stroke-linecap="round" stroke-linejoin="round" opacity="0.55"/>
<path d="M 275.2 784.3 q 6.9 -10.4 13.8 0 m 5.2 0 q 5.2 -6.9 10.4 0 M 765.7 702.1 q 4.5 -6.8 9 0 m 3.4 0 q 3.4 -4.5 6.8 0 M 312.4 782.6 q 6.9 -10.3 13.7 0 m 5.1 0 q 5.1 -6.9 10.3 0 M 730.3 702.8 q 4.5 -6.8 9.1 0 m 3.4 0 q 3.4 -4.5 6.8 0 M 444.9 743.6 q 5.7 -8.6 11.5 0 m 4.3 0 q 4.3 -5.7 8.6 0 M 608.2 631.7 q 2.4 -3.7 4.9 0 m 1.8 0 q 1.8 -2.4 3.7 0 M 272.8 732.5 q 5.4 -8.1 10.8 0 m 4.1 0 q 4.1 -5.4 8.1 0 M 2.3 657.5 q 3.2 -4.8 6.4 0 m 2.4 0 q 2.4 -3.2 4.8 0 M 111 656.6 q 3.2 -4.8 6.4 0 m 2.4 0 q 2.4 -3.2 4.8 0 M 558.1 694 q 4.3 -6.4 8.5 0 m 3.2 0 q 3.2 -4.3 6.4 0 M 103 763.5 q 6.3 -9.5 12.6 0 m 4.7 0 q 4.7 -6.3 9.5 0 M 345.3 783.9 q 6.9 -10.4 13.8 0 m 5.2 0 q 5.2 -6.9 10.4 0 M 431.8 742.8 q 5.7 -8.6 11.4 0 m 4.3 0 q 4.3 -5.7 8.6 0 M 226 764.2 q 6.3 -9.5 12.7 0 m 4.7 0 q 4.7 -6.3 9.5 0 M 87.3 728.8 q 5.3 -7.9 10.6 0 m 4 0 q 4 -5.3 7.9 0 M 321.6 734.8 q 5.5 -8.2 10.9 0 m 4.1 0 q 4.1 -5.5 8.2 0 M 467.6 737.3 q 5.5 -8.3 11.1 0 m 4.2 0 q 4.2 -5.5 8.3 0 M 718.4 724.8 q 5.2 -7.8 10.3 0 m 3.9 0 q 3.9 -5.2 7.8 0 M 187.9 787.7 q 7 -10.5 14 0 m 5.3 0 q 5.3 -7 10.5 0 M 779.6 651.4 q 3 -4.5 6.1 0 m 2.3 0 q 2.3 -3 4.5 0 M 617.8 710.9 q 4.8 -7.1 9.5 0 m 3.6 0 q 3.6 -4.8 7.1 0 M 473.7 690.3 q 4.2 -6.2 8.3 0 m 3.1 0 q 3.1 -4.2 6.2 0 M 9.8 775.7 q 6.7 -10 13.3 0 m 5 0 q 5 -6.7 10 0 M 500.4 665 q 3.4 -5.1 6.8 0 m 2.6 0 q 2.6 -3.4 5.1 0 M 682.1 718.1 q 5 -7.5 10 0 m 3.7 0 q 3.7 -5 7.5 0 M 232 720.9 q 5.1 -7.6 10.1 0 m 3.8 0 q 3.8 -5.1 7.6 0" fill="none" stroke="#51aa60" stroke-width="2.5" stroke-linecap="round" stroke-linejoin="round" opacity="0.35"/>
<circle cx="207.2" cy="308.4" r="3.2" fill="#fff3bf"/>
<polygon points="151.3,97.1 151.3,102.1 155.7,104.3 151,105.8 150.3,110.7 147.4,106.7 142.5,107.5 145.4,103.5 143.1,99.2 147.8,100.6" fill="#fff3bf" stroke="#fff3bf" stroke-width="1.3" stroke-linejoin="round"/>
<polygon points="105.8,231.8 106.7,236.9 111.6,238.4 107.1,240.8 107.1,246 103.4,242.4 98.5,244 100.8,239.4 97.8,235.2 102.9,236" fill="#fff3bf" stroke="#fff3bf" stroke-width="1.3" stroke-linejoin="round"/>
<polygon points="670.7,266.4 672.3,271.3 677.3,272 673.2,275 674,280.1 669.9,277.1 665.3,279.4 666.9,274.6 663.3,271 668.4,271" fill="#fff3bf" stroke="#fff3bf" stroke-width="1.3" stroke-linejoin="round"/>
<circle cx="697" cy="364.4" r="3.2" fill="#fff3bf"/>
<circle cx="595.8" cy="427.2" r="2" fill="#fff3bf"/>
<circle cx="680" cy="219.1" r="2.6" fill="#fff3bf"/>
<circle cx="343.7" cy="163.9" r="2.1" fill="#fff3bf"/>
<circle cx="93.9" cy="368.8" r="3.5" fill="#fff3bf"/>
<circle cx="552.7" cy="249.4" r="1.8" fill="#fff3bf"/>
<polygon points="543.4,192.8 543.9,197.6 548.5,199.2 544.1,201.3 543.9,206.1 540.6,202.6 536,203.9 538.3,199.7 535.6,195.6 540.4,196.6" fill="#fff3bf" stroke="#fff3bf" stroke-width="1.3" stroke-linejoin="round"/>
<circle cx="202.6" cy="206.8" r="2.3" fill="#fff3bf"/>
<polygon points="105.4,213.7 106.8,218.5 111.6,219.4 107.6,222.2 108.2,227.1 104.3,224.1 99.8,226.2 101.5,221.6 98.1,218 103,218.1" fill="#fff3bf" stroke="#fff3bf" stroke-width="1.3" stroke-linejoin="round"/>
<circle cx="293.2" cy="33" r="3.4" fill="#fff3bf"/>
<circle cx="311.8" cy="323.5" r="1.6" fill="#fff3bf"/>
<circle cx="113.4" cy="362.7" r="2.8" fill="#fff3bf"/>
<circle cx="127.8" cy="186.1" r="3.3" fill="#fff3bf"/>
<circle cx="642.5" cy="91.4" r="2.2" fill="#fff3bf"/>
<circle cx="573.2" cy="61.7" r="2.7" fill="#fff3bf"/>
<circle cx="578.2" cy="95.3" r="2.7" fill="#fff3bf"/>
<g><circle cx="660" cy="100" r="68.4" fill="url(#vol6fe5f1c)"/><circle cx="660" cy="100" r="54" fill="#fff3bf" opacity="0.15"/><circle cx="660" cy="100" r="36" fill="url(#vold969abe)"/><circle cx="649.2" cy="91" r="5.8" fill="#ffe066" opacity="0.6"/><circle cx="672.6" cy="110.8" r="4" fill="#ffe066" opacity="0.6"/><circle cx="661.8" cy="80.2" r="2.9" fill="#ffe066" opacity="0.5"/><path d="M 644.5 93.2 a 5 5 0 0 0 9.4 0" fill="none" stroke="#ffffff" stroke-width="1.4" stroke-linecap="round" stroke-linejoin="round" opacity="0.6"/></g>
<g transform="translate(300 800) scale(1.3 1.3)"><path d="M -40 0 Q -20 -120 -30 -260 L 30 -260 Q 20 -120 40 0 Z" fill="#5c3a1e"/><path d="M -30 -200 Q -90 -250 -130 -230" fill="none" stroke="#5c3a1e" stroke-width="18" stroke-linecap="round" stroke-linejoin="round"/><path d="M 26 -220 Q 90 -270 140 -250" fill="none" stroke="#5c3a1e" stroke-width="16" stroke-linecap="round" stroke-linejoin="round"/><circle cx="0" cy="-320" r="110" fill="#2b8a3e"/><circle cx="-100" cy="-270" r="70" fill="#237032"/><circle cx="100" cy="-280" r="70" fill="#237032"/></g>
<g transform="translate(300 380) scale(0.7 0.7)"><ellipse cx="0" cy="-3" rx="58.2" ry="12.6" fill="url(#vol2ea26ee)"/><filter id="c129" x="-15%" y="-15%" width="130%" height="130%"><feMorphology in="SourceAlpha" operator="dilate" radius="2.7" result="e"/><feFlood flood-color="#2b2b3a" flood-opacity="0.5"/><feComposite in2="e" operator="in" result="o"/><feMerge><feMergeNode in="o"/><feMergeNode in="SourceGraphic"/></feMerge></filter><g filter="url(#c129)"><rect x="-26" y="-52" width="20" height="46" rx="8" fill="url(#vol0ae62d3)"/><line x1="-16" y1="-40" x2="-16" y2="-12" stroke="#492e18" stroke-width="2" stroke-linecap="round" opacity="0.6"/><rect x="6" y="-52" width="20" height="46" rx="8" fill="url(#vol0ae62d3)"/><line x1="16" y1="-40" x2="16" y2="-12" stroke="#492e18" stroke-width="2" stroke-linecap="round" opacity="0.6"/><ellipse cx="-17" cy="-6" rx="16" ry="9" fill="#343a40" stroke="#24282c" stroke-width="2"/><ellipse cx="-14" cy="-9.2" rx="6.4" ry="2.2" fill="#fff" opacity="0.3"/><ellipse cx="17" cy="-6" rx="16" ry="9" fill="#343a40" stroke="#24282c" stroke-width="2"/><ellipse cx="14" cy="-9.2" rx="6.4" ry="2.2" fill="#fff" opacity="0.3"/><path d="M -32 -106 Q 0 -112 32 -106 L 40 -46 Q 0 -36 -40 -46 Z" fill="url(#volbbcc2e4)"/><clipPath id="k127"><path d="M -32 -106 Q 0 -112 32 -106 L 40 -46 Q 0 -36 -40 -46 Z" fill="#000"/></clipPath><g clip-path="url(#k127)"><ellipse cx="40" cy="-70" rx="22" ry="46" fill="#000" opacity="0.11"/><ellipse cx="-22" cy="-92" rx="6" ry="11" fill="#fff" transform="rotate(20 -22 -92)" opacity="0.22"/></g><path d="M -20 -106 Q 0 -92 20 -106" fill="none" stroke="#bb3d3d" stroke-width="2.5" stroke-linecap="round" stroke-linejoin="round"/><rect x="-38" y="-62" width="76" height="10" rx="5" fill="#bb3d3d"/><path d="M -28 -98 Q -48 -63 -52 -40" fill="none" stroke="#b43b3b" stroke-width="18" stroke-linecap="round" stroke-linejoin="round"/><path d="M -28 -98 Q -48 -63 -52 -40" fill="none" stroke="#fa5252" stroke-width="14" stroke-linecap="round" stroke-linejoin="round"/><circle cx="-51" cy="-45.5" r="8.4" fill="#cd4343"/><path d="M 28 -98 Q 65 -108 86 -130" fill="none" stroke="#b43b3b" stroke-width="18" stroke-linecap="round" stroke-linejoin="round"/><path d="M 28 -98 Q 65 -108 86 -130" fill="none" stroke="#fa5252" stroke-width="14" stroke-linecap="round" stroke-linejoin="round"/><circle cx="81" cy="-124.7" r="8.4" fill="#cd4343"/><ellipse cx="-44.4" cy="-45.2" rx="4.7" ry="5.8" fill="#fbd9bd" transform="rotate(30 -44.4 -45.2)" stroke="#c8ad97" stroke-width="2"/><circle cx="-52" cy="-40" r="10.5" fill="#fbd9bd" stroke="#c8ad97" stroke-width="2"/><ellipse cx="78.4" cy="-135.2" rx="4.7" ry="5.8" fill="#fbd9bd" transform="rotate(-30 78.4 -135.2)" stroke="#c8ad97" stroke-width="2"/><circle cx="86" cy="-130" r="10.5" fill="#fbd9bd" stroke="#c8ad97" stroke-width="2"/><rect x="-9" y="-116" width="18" height="16" fill="#fbd9bd"/><ellipse cx="0" cy="-106" rx="10" ry="4" fill="#c8ad97" opacity="0.7"/><g><g><circle cx="-49" cy="-148" r="11" fill="#fbd9bd"/><path d="M -50 -154 Q -55 -148 -50 -142" fill="none" stroke="#c8ad97" stroke-width="2.5" stroke-linecap="round" stroke-linejoin="round"/><circle cx="49" cy="-148" r="11" fill="#fbd9bd"/><path d="M 50 -154 Q 55 -148 50 -142" fill="none" stroke="#c8ad97" stroke-width="2.5" stroke-linecap="round" stroke-linejoin="round"/></g><circle cx="0" cy="-150" r="50" fill="url(#vol3490e56)"/><clipPath id="k128"><circle cx="0" cy="-150" r="50" fill="#000"/></clipPath><g clip-path="url(#k128)"><ellipse cx="36" cy="-124" rx="40" ry="38" fill="#000" opacity="0.07"/><ellipse cx="-22" cy="-180" rx="13" ry="7" fill="#fff" transform="rotate(-30 -22 -180)" opacity="0.22"/></g><ellipse cx="-30" cy="-128" rx="9" ry="5.5" fill="#ff8fab" opacity="0.6"/><ellipse cx="30" cy="-128" rx="9" ry="5.5" fill="#ff8fab" opacity="0.6"/><ellipse cx="-18" cy="-150" rx="8.5" ry="11.1" fill="#2b2b3a"/><circle cx="-16" cy="-153" r="2.9" fill="#fff"/><circle cx="-20.2" cy="-146.4" r="1.4" fill="#fff" opacity="0.75"/><ellipse cx="18" cy="-150" rx="8.5" ry="11.1" fill="#2b2b3a"/><circle cx="20" cy="-153" r="2.9" fill="#fff"/><circle cx="15.8" cy="-146.4" r="1.4" fill="#fff" opacity="0.75"/><path d="M -28 -172 Q -18.5 -181 -9 -172" fill="none" stroke="#2b2b3a" stroke-width="3.5" stroke-linecap="round" stroke-linejoin="round"/><path d="M 28 -172 Q 18.5 -181 9 -172" fill="none" stroke="#2b2b3a" stroke-width="3.5" stroke-linecap="round" stroke-linejoin="round"/><path d="M -4 -134 Q 0 -130 4 -134" fill="none" stroke="#bca28d" stroke-width="3" stroke-linecap="round" stroke-linejoin="round"/><ellipse cx="0" cy="-117" rx="5.5" ry="7.5" fill="#2b2b3a"/><path d="M -52 -150 L -56 -184 L -36 -176 L -30 -212 L -10 -186 L 4 -218 L 16 -186 L 36 -208 L 36 -176 L 56 -182 L 52 -150 Q 30 -172 0 -172 Q -30 -172 -52 -150 Z" fill="#e8590c"/></g></g></g>
<circle cx="700" cy="470" r="30" fill="#ffe066" opacity="0.5"/>
<circle cx="700" cy="470" r="12" fill="#ffe066"/>
<text x="620" y="380" font-family="Fredoka, Andika, sans-serif" font-weight="700" font-size="40" text-anchor="middle" fill="#ffe066">Une lumière !</text>
</svg>
