<svg xmlns="http://www.w3.org/2000/svg" viewBox="0 0 800 800" width="800" height="800">

<rect x="0" y="0" width="800" height="600" fill="#fff4e6"/>
<rect x="0" y="0" width="24" height="600" fill="#ffe8cc" opacity="0.35"/>
<rect x="60" y="0" width="24" height="600" fill="#ffe8cc" opacity="0.35"/>
<rect x="120" y="0" width="24" height="600" fill="#ffe8cc" opacity="0.35"/>
<rect x="180" y="0" width="24" height="600" fill="#ffe8cc" opacity="0.35"/>
<rect x="240" y="0" width="24" height="600" fill="#ffe8cc" opacity="0.35"/>
<rect x="300" y="0" width="24" height="600" fill="#ffe8cc" opacity="0.35"/>
<rect x="360" y="0" width="24" height="600" fill="#ffe8cc" opacity="0.35"/>
<rect x="420" y="0" width="24" height="600" fill="#ffe8cc" opacity="0.35"/>
<rect x="480" y="0" width="24" height="600" fill="#ffe8cc" opacity="0.35"/>
<rect x="540" y="0" width="24" height="600" fill="#ffe8cc" opacity="0.35"/>
<rect x="600" y="0" width="24" height="600" fill="#ffe8cc" opacity="0.35"/>
<rect x="660" y="0" width="24" height="600" fill="#ffe8cc" opacity="0.35"/>
<rect x="720" y="0" width="24" height="600" fill="#ffe8cc" opacity="0.35"/>
<rect x="780" y="0" width="24" height="600" fill="#ffe8cc" opacity="0.35"/>
<rect x="0" y="600" width="800" height="200" fill="#c68642"/>
<line x1="0" y1="650" x2="800" y2="650" stroke="#000" stroke-width="2" stroke-linecap="round" opacity="0.06"/>
<line x1="0" y1="700" x2="800" y2="700" stroke="#000" stroke-width="2" stroke-linecap="round" opacity="0.06"/>
<line x1="0" y1="750" x2="800" y2="750" stroke="#000" stroke-width="2" stroke-linecap="round" opacity="0.06"/>
<line x1="0" y1="800" x2="800" y2="800" stroke="#000" stroke-width="2" stroke-linecap="round" opacity="0.06"/>
<line x1="0" y1="850" x2="800" y2="850" stroke="#000" stroke-width="2" stroke-linecap="round" opacity="0.06"/>
<rect x="0" y="586" width="800" height="16" fill="#d9a066"/>
<g><rect x="64" y="650" width="16" height="140" fill="#a0693a"/><rect x="720" y="650" width="16" height="140" fill="#a0693a"/><rect x="50" y="632" width="700" height="22" rx="6" fill="#a0693a"/></g>
<g transform="translate(200 560) scale(1.4 1.4)"><rect x="-30" y="-18" width="64" height="16" rx="3" fill="#ff6b6b"/><rect x="-24" y="-36" width="64" height="16" rx="3" fill="#4dabf7"/><rect x="-30" y="-54" width="64" height="16" rx="3" fill="#ffd43b"/><rect x="-24" y="-72" width="64" height="16" rx="3" fill="#69db7c"/></g>
<g transform="translate(600 560) scale(1.4 1.4)"><rect x="-30" y="-18" width="64" height="16" rx="3" fill="#ff6b6b"/><rect x="-24" y="-36" width="64" height="16" rx="3" fill="#4dabf7"/><rect x="-30" y="-54" width="64" height="16" rx="3" fill="#ffd43b"/><rect x="-24" y="-72" width="64" height="16" rx="3" fill="#69db7c"/></g>
<rect x="180" y="200" width="40" height="360" fill="#c68642"/>
<rect x="580" y="200" width="40" height="360" fill="#c68642"/>
<rect x="170" y="188" width="460" height="18" rx="6" fill="#ffd43b"/>
<polygon points="630,188 660,197 630,206" fill="#f3d9b1"/>
<g><g opacity="0.3"><g transform="translate(400 200) rotate(25)"><line x1="0" y1="0" x2="0" y2="330" stroke="#495057" stroke-width="3" stroke-linecap="round"/><g transform="translate(0 330)"><g><polygon points="26,0 13,22.5 -13,22.5 -26,0 -13,-22.5 13,-22.5" fill="#adb5bd" stroke="#868e96" stroke-width="3"/><circle cx="0" cy="0" r="10" fill="#fff" stroke="#868e96" stroke-width="3"/></g></g></g></g><g opacity="0.3"><g transform="translate(400 200) rotate(-25)"><line x1="0" y1="0" x2="0" y2="330" stroke="#495057" stroke-width="3" stroke-linecap="round"/><g transform="translate(0 330)"><g><polygon points="26,0 13,22.5 -13,22.5 -26,0 -13,-22.5 13,-22.5" fill="#adb5bd" stroke="#868e96" stroke-width="3"/><circle cx="0" cy="0" r="10" fill="#fff" stroke="#868e96" stroke-width="3"/></g></g></g></g><g><g transform="translate(400 200)"><line x1="0" y1="0" x2="0" y2="330" stroke="#495057" stroke-width="3" stroke-linecap="round"/><g transform="translate(0 330)"><g><polygon points="26,0 13,22.5 -13,22.5 -26,0 -13,-22.5 13,-22.5" fill="#adb5bd" stroke="#868e96" stroke-width="3"/><circle cx="0" cy="0" r="10" fill="#fff" stroke="#868e96" stroke-width="3"/></g></g></g></g></g>
<g transform="translate(680 780) scale(0.9 0.9)"><ellipse cx="0" cy="-3" rx="54" ry="9" fill="#000" opacity="0.13"/><filter id="c42" x="-15%" y="-15%" width="130%" height="130%"><feMorphology in="SourceAlpha" operator="dilate" radius="2.41" result="e"/><feFlood flood-color="#2b2b3a" flood-opacity="0.5"/><feComposite in2="e" operator="in" result="o"/><feMerge><feMergeNode in="o"/><feMergeNode in="SourceGraphic"/></feMerge></filter><g filter="url(#c42)"><path d="M 30 -30 Q 96 -20 92 -90 Q 88 -132 56 -124 Q 36 -116 52 -98" fill="none" stroke="#8d5b34" stroke-width="10" stroke-linecap="round" stroke-linejoin="round"/><ellipse cx="-21" cy="-9" rx="19" ry="11" fill="#6d4424" stroke="#4c2f19" stroke-width="2"/><line x1="-27" y1="-4" x2="-27" y2="-10" stroke="#4c2f19" stroke-width="2" stroke-linecap="round" opacity="0.7"/><line x1="-15" y1="-4" x2="-15" y2="-10" stroke="#4c2f19" stroke-width="2" stroke-linecap="round" opacity="0.7"/><ellipse cx="21" cy="-9" rx="19" ry="11" fill="#6d4424" stroke="#4c2f19" stroke-width="2"/><line x1="15" y1="-4" x2="15" y2="-10" stroke="#4c2f19" stroke-width="2" stroke-linecap="round" opacity="0.7"/><line x1="27" y1="-4" x2="27" y2="-10" stroke="#4c2f19" stroke-width="2" stroke-linecap="round" opacity="0.7"/><ellipse cx="0" cy="-62" rx="42" ry="52" fill="#fab005"/><path d="M -24 -106 Q 0 -90 24 -106" fill="none" stroke="#c38903" stroke-width="3" stroke-linecap="round" stroke-linejoin="round"/><circle cx="0" cy="-80" r="3.6" fill="#fcdb8e" stroke="#c38903" stroke-width="1.5"/><circle cx="0" cy="-60" r="3.6" fill="#fcdb8e" stroke="#c38903" stroke-width="1.5"/><clipPath id="k40"><ellipse cx="0" cy="-62" rx="42" ry="52" fill="#000"/></clipPath><g clip-path="url(#k40)"><ellipse cx="40" cy="-46" rx="34" ry="62" fill="#000" opacity="0.11"/><ellipse cx="0" cy="-104" rx="36" ry="14" fill="#000" opacity="0.11"/><ellipse cx="-24" cy="-84" rx="7" ry="13" fill="#fff" transform="rotate(30 -24 -84)" opacity="0.22"/></g><path d="M -32 -96 Q -50 -62 -52 -40" fill="none" stroke="#b47e03" stroke-width="19" stroke-linecap="round" stroke-linejoin="round"/><path d="M -32 -96 Q -50 -62 -52 -40" fill="none" stroke="#fab005" stroke-width="15" stroke-linecap="round" stroke-linejoin="round"/><circle cx="-51.5" cy="-45.3" r="9" fill="#d49504"/><path d="M 32 -96 Q 67 -107 86 -130" fill="none" stroke="#b47e03" stroke-width="19" stroke-linecap="round" stroke-linejoin="round"/><path d="M 32 -96 Q 67 -107 86 -130" fill="none" stroke="#fab005" stroke-width="15" stroke-linecap="round" stroke-linejoin="round"/><circle cx="81.4" cy="-124.5" r="9" fill="#d49504"/><ellipse cx="-43.7" cy="-45.8" rx="5.2" ry="6.3" fill="#8d5b34" transform="rotate(30 -43.7 -45.8)" stroke="#654125" stroke-width="2"/><circle cx="-52" cy="-40" r="11.5" fill="#8d5b34" stroke="#654125" stroke-width="2"/><ellipse cx="77.7" cy="-135.8" rx="5.2" ry="6.3" fill="#8d5b34" transform="rotate(-30 77.7 -135.8)" stroke="#654125" stroke-width="2"/><circle cx="86" cy="-130" r="11.5" fill="#8d5b34" stroke="#654125" stroke-width="2"/><g><circle cx="-58" cy="-150" r="22" fill="#8d5b34"/><circle cx="-58" cy="-150" r="12" fill="#e8b98a"/><circle cx="58" cy="-150" r="22" fill="#8d5b34"/><circle cx="58" cy="-150" r="12" fill="#e8b98a"/><circle cx="0" cy="-150" r="55" fill="#8d5b34"/><clipPath id="k41"><circle cx="0" cy="-150" r="55" fill="#000"/></clipPath><g clip-path="url(#k41)"><ellipse cx="41.2" cy="-125.2" rx="44" ry="41.2" fill="#000" opacity="0.08"/><ellipse cx="-24.8" cy="-181.9" rx="14.3" ry="7.7" fill="#fff" transform="rotate(-30 -24.8 -181.9)" opacity="0.22"/></g><path d="M -14 -199 Q -12 -217 -2 -207 Q 2 -223 9 -206 Q 16 -215 16 -199 Z" fill="#8d5b34"/><path d="M 0 -176 Q -14 -198 -30 -190 Q -50 -180 -44 -150 Q -40 -136 -30 -134 Q -40 -104 0 -100 Q 40 -104 30 -134 Q 40 -136 44 -150 Q 50 -180 30 -190 Q 14 -198 0 -176 Z" fill="#f3d9b1"/><ellipse cx="-36" cy="-128" rx="9" ry="5.5" fill="#ff8fab" opacity="0.7"/><ellipse cx="36" cy="-128" rx="9" ry="5.5" fill="#ff8fab" opacity="0.7"/><ellipse cx="-22" cy="-153.2" rx="6.5" ry="8.5" fill="#2b2b3a"/><circle cx="-20" cy="-156.2" r="2.2" fill="#fff"/><circle cx="-24.2" cy="-149.6" r="1.1" fill="#fff" opacity="0.75"/><ellipse cx="16" cy="-153.2" rx="6.5" ry="8.5" fill="#2b2b3a"/><circle cx="18" cy="-156.2" r="2.2" fill="#fff"/><circle cx="13.8" cy="-149.6" r="1.1" fill="#fff" opacity="0.75"/><ellipse cx="-5" cy="-128" rx="2.5" ry="3.5" fill="#623f24"/><ellipse cx="5" cy="-128" rx="2.5" ry="3.5" fill="#623f24"/><path d="M -13 -120 Q 0 -96 13 -120 Z" fill="#c92a2a" stroke="#2b2b3a" stroke-width="3" stroke-linecap="round" stroke-linejoin="round"/><ellipse cx="0" cy="-109" rx="6" ry="3.5" fill="#ff8787"/></g></g></g>
</svg>
