<svg xmlns="http://www.w3.org/2000/svg" viewBox="0 0 800 800" width="800" height="800">
<defs><linearGradient id="d27" x1="0" y1="0" x2="0" y2="1"><stop offset="0" stop-color="#74c0fc"/><stop offset="0.5" stop-color="#b9dffd"/><stop offset="1" stop-color="#e7f5ff"/></linearGradient><linearGradient id="vol0044542" x1="0" y1="0" x2="1" y2="1"><stop offset="0" stop-color="#ffffff"/><stop offset="0.5" stop-color="#fff"/><stop offset="1" stop-color="#d6d6d6"/></linearGradient><radialGradient id="vol0786585" cx="0.4" cy="0.3" r="0.8"><stop offset="0" stop-color="#ff8787"/><stop offset="0.6" stop-color="#f03e3e"/><stop offset="1" stop-color="#a61e1e"/></radialGradient><radialGradient id="vol0b5e702" cx="0.5" cy="0.5" r="0.5"><stop offset="0" stop-color="#1c2a52" stop-opacity="0.149"/><stop offset="0.62" stop-color="#1c2a52" stop-opacity="0.132"/><stop offset="1" stop-color="#1c2a52" stop-opacity="0"/></radialGradient><linearGradient id="vol0faf7e7" x1="0" y1="-68" x2="0" y2="55" gradientUnits="userSpaceOnUse"><stop offset="0" stop-color="#ffffff" stop-opacity="0.5"/><stop offset="0.4" stop-color="#ffffff" stop-opacity="0"/><stop offset="0.62" stop-color="#1c2a52" stop-opacity="0"/><stop offset="1" stop-color="#1c2a52" stop-opacity="0.16"/></linearGradient><linearGradient id="vol1887eac" x1="0" y1="0" x2="0" y2="1"><stop offset="0" stop-color="#ff922b"/><stop offset="1" stop-color="#d9480f"/></linearGradient><radialGradient id="vol213cf61" cx="0.4" cy="0.4" r="0.6" fx="0.3" fy="0.3"><stop offset="0" stop-color="#ffeca3"/><stop offset="0.55" stop-color="#ffe066"/><stop offset="1" stop-color="#e0c559"/></radialGradient><radialGradient id="vol285ebc9" cx="0.5" cy="0.5" r="0.5"><stop offset="0" stop-color="#000" stop-opacity="0.286"/><stop offset="0.55" stop-color="#000" stop-opacity="0.143"/><stop offset="1" stop-color="#000" stop-opacity="0"/></radialGradient><linearGradient id="vol3082a02" x1="0" y1="0" x2="1" y2="1"><stop offset="0" stop-color="#fbdfc7"/><stop offset="0.5" stop-color="#fbd9bd"/><stop offset="1" stop-color="#d2b69e"/></linearGradient><radialGradient id="vol3490e56" cx="0.4" cy="0.4" r="0.6" fx="0.3" fy="0.3"><stop offset="0" stop-color="#fce2cd"/><stop offset="0.55" stop-color="#fbd9bd"/><stop offset="1" stop-color="#d2b69e"/></radialGradient><linearGradient id="vol386655e" x1="0" y1="0" x2="1" y2="1"><stop offset="0" stop-color="#9f7047"/><stop offset="0.5" stop-color="#8d5524"/><stop offset="1" stop-color="#76471e"/></linearGradient><linearGradient id="vol38c8b34" x1="0" y1="0" x2="1" y2="1"><stop offset="0" stop-color="#4c4c59"/><stop offset="0.5" stop-color="#2b2b3a"/><stop offset="1" stop-color="#242430"/></linearGradient><radialGradient id="vol39543c1" cx="0.5" cy="0.5" r="0.5"><stop offset="0" stop-color="#1c2a52" stop-opacity="0.095"/><stop offset="0.62" stop-color="#1c2a52" stop-opacity="0.084"/><stop offset="1" stop-color="#1c2a52" stop-opacity="0"/></radialGradient><linearGradient id="vol39dc834" x1="0" y1="0" x2="1" y2="1"><stop offset="0" stop-color="#3a77af"/><stop offset="0.5" stop-color="#155ea0"/><stop offset="1" stop-color="#114e86"/></linearGradient><linearGradient id="vol3a9f983" x1="0" y1="0" x2="1" y2="1"><stop offset="0" stop-color="#d14c4c"/><stop offset="0.5" stop-color="#c92a2a"/><stop offset="1" stop-color="#a82323"/></linearGradient><linearGradient id="vol3af45ef" x1="0" y1="0" x2="1" y2="1"><stop offset="0" stop-color="#ffa0b8"/><stop offset="0.5" stop-color="#ff8fab"/><stop offset="1" stop-color="#d6788f"/></linearGradient><linearGradient id="vol3c06fcf" x1="0" y1="0" x2="1" y2="1"><stop offset="0" stop-color="#54595e"/><stop offset="0.5" stop-color="#343a40"/><stop offset="1" stop-color="#2b3035"/></linearGradient><linearGradient id="vol3eeee75" x1="0" y1="0" x2="1" y2="1"><stop offset="0" stop-color="#fa6d6d"/><stop offset="0.5" stop-color="#fa5252"/><stop offset="1" stop-color="#d24444"/></linearGradient><linearGradient id="vol4111e0b" x1="0" y1="0" x2="0" y2="1"><stop offset="0" stop-color="#549ee0"/><stop offset="0.3" stop-color="#1c7ed6"/><stop offset="1" stop-color="#1562a6"/></linearGradient><linearGradient id="vol433af68" x1="0" y1="0" x2="1" y2="1"><stop offset="0" stop-color="#d8dadd"/><stop offset="0.5" stop-color="#d1d4d7"/><stop offset="1" stop-color="#afb2b4"/></linearGradient><linearGradient id="vol4430391" x1="0" y1="0" x2="1" y2="1"><stop offset="0" stop-color="#ffebd4"/><stop offset="0.5" stop-color="#ffe8cc"/><stop offset="1" stop-color="#d6c2ab"/></linearGradient><linearGradient id="vol6b79f13" x1="0" y1="0" x2="1" y2="0"><stop offset="0" stop-color="#545f7d"/><stop offset="0.38" stop-color="#1c2a52"/><stop offset="1" stop-color="#131d39"/></linearGradient><linearGradient id="vol6bd020e" x1="0" y1="0" x2="1" y2="0"><stop offset="0" stop-color="#529cdf"/><stop offset="0.38" stop-color="#1c7ed6"/><stop offset="1" stop-color="#1562a6"/></linearGradient><radialGradient id="vol6ff428d" cx="0.5" cy="0.5" r="0.5" fx="0.4" fy="0.4"><stop offset="0" stop-color="#fff2c4"/><stop offset="0.6" stop-color="#ffd43b"/><stop offset="1" stop-color="#eac336"/></radialGradient><radialGradient id="vol702fa5f" cx="0.4" cy="0.4" r="0.6" fx="0.3" fy="0.3"><stop offset="0" stop-color="#ffbe79"/><stop offset="0.55" stop-color="#ffa94d"/><stop offset="1" stop-color="#d18a3f"/></radialGradient><linearGradient id="vol70795a0" x1="0" y1="0" x2="1" y2="1"><stop offset="0" stop-color="#f9f9fa"/><stop offset="0.5" stop-color="#f8f9fa"/><stop offset="1" stop-color="#d0d1d2"/></linearGradient><linearGradient id="vol765ee29" x1="0" y1="0" x2="1" y2="0"><stop offset="0" stop-color="#e76262"/><stop offset="0.38" stop-color="#e03131"/><stop offset="1" stop-color="#ae2626"/></linearGradient><linearGradient id="vol79d93f2" x1="0" y1="0" x2="1" y2="1"><stop offset="0" stop-color="#846147"/><stop offset="0.5" stop-color="#6d4424"/><stop offset="1" stop-color="#5b391e"/></linearGradient><linearGradient id="vol7a70c7e" x1="0" y1="0" x2="1" y2="1"><stop offset="0" stop-color="#50975e"/><stop offset="1" stop-color="#1b5e28"/></linearGradient><radialGradient id="vol7b4b2e5" cx="0.4" cy="0.4" r="0.6" fx="0.3" fy="0.3"><stop offset="0" stop-color="#ffc17e"/><stop offset="0.55" stop-color="#ffa94d"/><stop offset="1" stop-color="#cc873d"/></radialGradient><radialGradient id="vol7e369e4" cx="0.5" cy="0.5" r="0.5"><stop offset="0" stop-color="#1c2a52" stop-opacity="0.108"/><stop offset="0.62" stop-color="#1c2a52" stop-opacity="0.096"/><stop offset="1" stop-color="#1c2a52" stop-opacity="0"/></radialGradient><linearGradient id="vol7f84eac" x1="0" y1="0" x2="1" y2="1"><stop offset="0" stop-color="#5c9bce"/><stop offset="0.5" stop-color="#3d88c5"/><stop offset="1" stop-color="#3372a5"/></linearGradient><linearGradient id="vol817cdf9" x1="0" y1="0" x2="1" y2="1"><stop offset="0" stop-color="#ffb669"/><stop offset="0.5" stop-color="#ffa94d"/><stop offset="1" stop-color="#d68d40"/></linearGradient><linearGradient id="vol8759066" x1="0" y1="0" x2="1" y2="0"><stop offset="0" stop-color="#666b6f"/><stop offset="0.38" stop-color="#343a40"/><stop offset="1" stop-color="#24282c"/></linearGradient><radialGradient id="vol89766ea" cx="0.4" cy="0.4" r="0.6" fx="0.3" fy="0.3"><stop offset="0" stop-color="#6cac78"/><stop offset="0.55" stop-color="#278639"/><stop offset="1" stop-color="#1c6029"/></radialGradient><radialGradient id="vol8bda838" cx="0.5" cy="0.5" r="0.7"><stop offset="0.5" stop-color="#1c2a52" stop-opacity="0"/><stop offset="0.8" stop-color="#1c2a52" stop-opacity="0.036"/><stop offset="1" stop-color="#1c2a52" stop-opacity="0.08"/></radialGradient><linearGradient id="vol9009eb4" x1="0" y1="0" x2="1" y2="1"><stop offset="0" stop-color="#4092dc"/><stop offset="0.5" stop-color="#1c7ed6"/><stop offset="1" stop-color="#1769b3"/></linearGradient><linearGradient id="vol904759d" x1="0" y1="0" x2="0" y2="1"><stop offset="0.35" stop-color="#f0f9ff" stop-opacity="0"/><stop offset="0.75" stop-color="#f0f9ff" stop-opacity="0.35"/><stop offset="1" stop-color="#f0f9ff" stop-opacity="0.1"/></linearGradient><linearGradient id="vol9448686" x1="0" y1="0" x2="1" y2="1"><stop offset="0" stop-color="#3c7cb8"/><stop offset="0.5" stop-color="#1864ab"/><stop offset="1" stop-color="#14548f"/></linearGradient><radialGradient id="vol9abd463" cx="0.5" cy="0.5" r="0.5"><stop offset="0" stop-color="#1c2a52" stop-opacity="0.117"/><stop offset="0.6" stop-color="#1c2a52" stop-opacity="0.059"/><stop offset="1" stop-color="#1c2a52" stop-opacity="0"/></radialGradient><linearGradient id="vol9c9ea18" x1="0" y1="0" x2="1" y2="1"><stop offset="0" stop-color="#c24a4a"/><stop offset="0.5" stop-color="#b72828"/><stop offset="1" stop-color="#992121"/></linearGradient><linearGradient id="vola10e909" x1="0" y1="0" x2="1" y2="1"><stop offset="0" stop-color="#ffd1d1"/><stop offset="0.5" stop-color="#ffc9c9"/><stop offset="1" stop-color="#d6a8a8"/></linearGradient><linearGradient id="vola1830b3" x1="0" y1="0" x2="1" y2="1"><stop offset="0" stop-color="#d5dadf"/><stop offset="0.5" stop-color="#ced4da"/><stop offset="1" stop-color="#adb2b7"/></linearGradient><radialGradient id="vola5db7ce" cx="0.5" cy="0.5" r="0.5"><stop offset="0.55" stop-color="#ffd43b" stop-opacity="0.35"/><stop offset="1" stop-color="#ffd43b" stop-opacity="0"/></radialGradient><linearGradient id="vola88da3a" x1="0" y1="0" x2="1" y2="1"><stop offset="0" stop-color="#69b8f8"/><stop offset="0.5" stop-color="#4dabf7"/><stop offset="1" stop-color="#408fcf"/></linearGradient><linearGradient id="volb001013" x1="0" y1="0" x2="1" y2="1"><stop offset="0" stop-color="#fff9e0"/><stop offset="0.5" stop-color="#fff9db"/><stop offset="1" stop-color="#d6d1b7"/></linearGradient><linearGradient id="volbb93d11" x1="0" y1="0" x2="1" y2="1"><stop offset="0" stop-color="#ffda5a"/><stop offset="0.5" stop-color="#ffd43b"/><stop offset="1" stop-color="#d6b231"/></linearGradient><linearGradient id="volbeaff1e" x1="0" y1="0" x2="0" y2="1"><stop offset="0" stop-color="#ffc078"/><stop offset="1" stop-color="#f76707"/></linearGradient><radialGradient id="volc3784ac" cx="0.4" cy="0.4" r="0.6" fx="0.3" fy="0.3"><stop offset="0" stop-color="#71bd7f"/><stop offset="0.55" stop-color="#2f9e44"/><stop offset="1" stop-color="#247b35"/></radialGradient><linearGradient id="volc69f596" x1="0" y1="0" x2="1" y2="1"><stop offset="0" stop-color="#ab4545"/><stop offset="0.5" stop-color="#9c2222"/><stop offset="1" stop-color="#831c1c"/></linearGradient><radialGradient id="volc76cad1" cx="0.4" cy="0.4" r="0.6" fx="0.3" fy="0.3"><stop offset="0" stop-color="#fff7ed"/><stop offset="0.55" stop-color="#fff4e6"/><stop offset="1" stop-color="#e0d6ca"/></radialGradient><linearGradient id="volca73c33" x1="0" y1="0" x2="1" y2="1"><stop offset="0" stop-color="#ff9a9a"/><stop offset="0.5" stop-color="#ff8787"/><stop offset="1" stop-color="#d67171"/></linearGradient><linearGradient id="volccad9f9" x1="0" y1="0" x2="1" y2="1"><stop offset="0" stop-color="#44474b"/><stop offset="0.5" stop-color="#212529"/><stop offset="1" stop-color="#1b1f22"/></linearGradient><linearGradient id="volcf66396" x1="0" y1="0" x2="1" y2="1"><stop offset="0" stop-color="#dea05f"/><stop offset="0.5" stop-color="#d88f41"/><stop offset="1" stop-color="#b57836"/></linearGradient><linearGradient id="voldf499f5" x1="0" y1="0" x2="1" y2="1"><stop offset="0" stop-color="#d7eeff"/><stop offset="0.5" stop-color="#d0ebff"/><stop offset="1" stop-color="#aec5d6"/></linearGradient><linearGradient id="vole772153" x1="0" y1="0" x2="1" y2="1"><stop offset="0" stop-color="#ffffff"/><stop offset="0.5" stop-color="#ffffff"/><stop offset="1" stop-color="#d6d6d6"/></linearGradient><radialGradient id="vole894bc6" cx="0.4" cy="0.4" r="0.6" fx="0.3" fy="0.3"><stop offset="0" stop-color="#93725d"/><stop offset="0.55" stop-color="#6f4428"/><stop offset="1" stop-color="#5d3921"/></radialGradient><linearGradient id="voled3c066" x1="0" y1="0" x2="1" y2="1"><stop offset="0" stop-color="#eceff1"/><stop offset="0.5" stop-color="#e9ecef"/><stop offset="1" stop-color="#c3c6c8"/></linearGradient><linearGradient id="volfc9011c" x1="0" y1="0" x2="1" y2="1"><stop offset="0" stop-color="#86614a"/><stop offset="0.5" stop-color="#6f4428"/><stop offset="1" stop-color="#5d3921"/></linearGradient><linearGradient id="volfd13db6" x1="0" y1="0" x2="1" y2="1"><stop offset="0" stop-color="#3b7fbb"/><stop offset="0.5" stop-color="#1667af"/><stop offset="1" stop-color="#125693"/></linearGradient></defs>
<rect x="0" y="0" width="800" height="800" fill="url(#d27)"/>
<rect x="0" y="0" width="800" height="800" fill="url(#vol904759d)"/>
<rect x="0" y="560" width="800" height="240" fill="url(#vol4111e0b)"/>
<path d="M 0 590 q 20 -12 40 0 M 120 590 q 20 -12 40 0 M 240 590 q 20 -12 40 0 M 360 590 q 20 -12 40 0 M 480 590 q 20 -12 40 0 M 600 590 q 20 -12 40 0 M 720 590 q 20 -12 40 0 M 840 590 q 20 -12 40 0" fill="none" stroke="#4dabf7" stroke-width="5" stroke-linecap="round" stroke-linejoin="round"/>
<path d="M 60 625 q 20 -12 40 0 M 180 625 q 20 -12 40 0 M 300 625 q 20 -12 40 0 M 420 625 q 20 -12 40 0 M 540 625 q 20 -12 40 0 M 660 625 q 20 -12 40 0 M 780 625 q 20 -12 40 0 M 900 625 q 20 -12 40 0" fill="none" stroke="#4dabf7" stroke-width="5" stroke-linecap="round" stroke-linejoin="round"/>
<path d="M 0 660 q 20 -12 40 0 M 120 660 q 20 -12 40 0 M 240 660 q 20 -12 40 0 M 360 660 q 20 -12 40 0 M 480 660 q 20 -12 40 0 M 600 660 q 20 -12 40 0 M 720 660 q 20 -12 40 0 M 840 660 q 20 -12 40 0" fill="none" stroke="#4dabf7" stroke-width="5" stroke-linecap="round" stroke-linejoin="round"/>
<path d="M 60 695 q 20 -12 40 0 M 180 695 q 20 -12 40 0 M 300 695 q 20 -12 40 0 M 420 695 q 20 -12 40 0 M 540 695 q 20 -12 40 0 M 660 695 q 20 -12 40 0 M 780 695 q 20 -12 40 0 M 900 695 q 20 -12 40 0" fill="none" stroke="#4dabf7" stroke-width="5" stroke-linecap="round" stroke-linejoin="round"/>
<path d="M 0 730 q 20 -12 40 0 M 120 730 q 20 -12 40 0 M 240 730 q 20 -12 40 0 M 360 730 q 20 -12 40 0 M 480 730 q 20 -12 40 0 M 600 730 q 20 -12 40 0 M 720 730 q 20 -12 40 0 M 840 730 q 20 -12 40 0" fill="none" stroke="#4dabf7" stroke-width="5" stroke-linecap="round" stroke-linejoin="round"/>
<path d="M 60 765 q 20 -12 40 0 M 180 765 q 20 -12 40 0 M 300 765 q 20 -12 40 0 M 420 765 q 20 -12 40 0 M 540 765 q 20 -12 40 0 M 660 765 q 20 -12 40 0 M 780 765 q 20 -12 40 0 M 900 765 q 20 -12 40 0" fill="none" stroke="#4dabf7" stroke-width="5" stroke-linecap="round" stroke-linejoin="round"/>
<path d="M 0 800 q 20 -12 40 0 M 120 800 q 20 -12 40 0 M 240 800 q 20 -12 40 0 M 360 800 q 20 -12 40 0 M 480 800 q 20 -12 40 0 M 600 800 q 20 -12 40 0 M 720 800 q 20 -12 40 0 M 840 800 q 20 -12 40 0" fill="none" stroke="#4dabf7" stroke-width="5" stroke-linecap="round" stroke-linejoin="round"/>
<path d="M 306.5 603.3 h 19.1 M 181.4 676.6 h 11.9 M 637.2 762 h 16.8 M 11.3 755.9 h 21.7 M 739.3 733.7 h 24.8 M 703.1 634.3 h 24.8 M 496.6 658.7 h 13 M 351.8 749.6 h 10.9 M 219.3 578.4 h 23.6 M 761 607.7 h 11.6 M 188.1 791.1 h 11.7 M 499.2 643.5 h 25.3 M 255.8 583.7 h 22.8 M 292.2 785.9 h 16.4" fill="none" stroke="#ffffff" stroke-width="3" stroke-linecap="round" stroke-linejoin="round" opacity="0.45"/>
<g><circle cx="110" cy="110" r="80" fill="url(#vola5db7ce)"/><line x1="172" y1="110" x2="192" y2="110" stroke="#ffd43b" stroke-width="8" stroke-linecap="round"/><line x1="163.7" y1="141" x2="181" y2="151" stroke="#ffd43b" stroke-width="8" stroke-linecap="round"/><line x1="141" y1="163.7" x2="151" y2="181" stroke="#ffd43b" stroke-width="8" stroke-linecap="round"/><line x1="110" y1="172" x2="110" y2="192" stroke="#ffd43b" stroke-width="8" stroke-linecap="round"/><line x1="79" y1="163.7" x2="69" y2="181" stroke="#ffd43b" stroke-width="8" stroke-linecap="round"/><line x1="56.3" y1="141" x2="39" y2="151" stroke="#ffd43b" stroke-width="8" stroke-linecap="round"/><line x1="48" y1="110" x2="28" y2="110" stroke="#ffd43b" stroke-width="8" stroke-linecap="round"/><line x1="56.3" y1="79" x2="39" y2="69" stroke="#ffd43b" stroke-width="8" stroke-linecap="round"/><line x1="79" y1="56.3" x2="69" y2="39" stroke="#ffd43b" stroke-width="8" stroke-linecap="round"/><line x1="110" y1="48" x2="110" y2="28" stroke="#ffd43b" stroke-width="8" stroke-linecap="round"/><line x1="141" y1="56.3" x2="151" y2="39" stroke="#ffd43b" stroke-width="8" stroke-linecap="round"/><line x1="163.7" y1="79" x2="181" y2="69" stroke="#ffd43b" stroke-width="8" stroke-linecap="round"/><circle cx="110" cy="110" r="50" fill="url(#vol6ff428d)"/></g>
<g transform="translate(700 250) scale(0.6 0.6)"><g><circle cx="-55" cy="10" r="38" fill="url(#vole772153)"/><circle cx="-15" cy="-18" r="50" fill="url(#vole772153)"/><circle cx="40" cy="-8" r="42" fill="url(#vole772153)"/><circle cx="78" cy="18" r="30" fill="url(#vole772153)"/><rect x="-95" y="5" width="200" height="50" rx="25" fill="url(#vole772153)"/><circle cx="-55" cy="10" r="38" fill="url(#vol0faf7e7)"/><circle cx="-15" cy="-18" r="50" fill="url(#vol0faf7e7)"/><circle cx="40" cy="-8" r="42" fill="url(#vol0faf7e7)"/><circle cx="78" cy="18" r="30" fill="url(#vol0faf7e7)"/><rect x="-95" y="5" width="200" height="50" rx="25" fill="url(#vol0faf7e7)"/><ellipse cx="-22" cy="-46" rx="22" ry="9" fill="#ffffff" transform="rotate(-12 -22 -46)" opacity="0.55"/></g></g>
<g transform="translate(400 640)"><rect x="-8" y="-470" width="16" height="360" fill="url(#vol79d93f2)"/><path d="M 14 -440 Q 120 -360 14 -170 Z" fill="url(#vol70795a0)" stroke="#dee2e6" stroke-width="3" stroke-linecap="round" stroke-linejoin="round"/><path d="M -14 -440 Q -170 -330 -14 -170 Z" fill="url(#volb001013)" stroke="#dee2e6" stroke-width="3" stroke-linecap="round" stroke-linejoin="round"/><rect x="8" y="-470" width="90" height="54" rx="4" fill="url(#vol3c06fcf)"/><ellipse cx="52" cy="-443" rx="28" ry="12" fill="url(#vola1830b3)"/><polygon points="76,-443 92,-456 92,-430" fill="url(#vola1830b3)"/><circle cx="38" cy="-446" r="3" fill="url(#vol3c06fcf)"/><g><g><g transform="translate(-170 -130) scale(0.95 0.95)"><ellipse cx="20.8" cy="-4.8" rx="72.8" ry="11.2" fill="url(#vol9abd463)"/><ellipse cx="0" cy="-3" rx="54.6" ry="11.7" fill="url(#vol285ebc9)"/><filter id="c30" x="-15%" y="-15%" width="130%" height="130%"><feMorphology in="SourceAlpha" operator="dilate" radius="2.35" result="e"/><feFlood flood-color="#2b2b3a" flood-opacity="0.5"/><feComposite in2="e" operator="in" result="o"/><feMerge><feMergeNode in="o"/><feMergeNode in="SourceGraphic"/></feMerge></filter><g filter="url(#c30)"><g><rect x="-26" y="-52" width="20" height="46" rx="8" fill="url(#vol8759066)"/><line x1="-16" y1="-40" x2="-16" y2="-12" stroke="#292e33" stroke-width="2" stroke-linecap="round" opacity="0.6"/><rect x="6" y="-52" width="20" height="46" rx="8" fill="url(#vol8759066)"/><line x1="16" y1="-40" x2="16" y2="-12" stroke="#292e33" stroke-width="2" stroke-linecap="round" opacity="0.6"/></g><ellipse cx="-17" cy="-6" rx="16" ry="9" fill="url(#volccad9f9)" stroke="#17191c" stroke-width="2"/><ellipse cx="-14" cy="-9.2" rx="6.4" ry="2.2" fill="#fff" opacity="0.3"/><ellipse cx="17" cy="-6" rx="16" ry="9" fill="url(#volccad9f9)" stroke="#17191c" stroke-width="2"/><ellipse cx="14" cy="-9.2" rx="6.4" ry="2.2" fill="#fff" opacity="0.3"/><g><path d="M -32 -106 Q 0 -112 32 -106 L 40 -46 Q 0 -36 -40 -46 Z" fill="url(#vol6bd020e)"/><clipPath id="k28"><path d="M -32 -106 Q 0 -112 32 -106 L 40 -46 Q 0 -36 -40 -46 Z" fill="#000"/></clipPath><g clip-path="url(#k28)"><ellipse cx="40" cy="-70" rx="22" ry="46" fill="url(#vol0b5e702)"/><ellipse cx="0" cy="-40" rx="44" ry="8" fill="url(#vol0b5e702)"/><ellipse cx="42" cy="-66" rx="6" ry="30" fill="#fff4e6" opacity="0.16"/><ellipse cx="-22" cy="-92" rx="6" ry="11" fill="#fff" transform="rotate(20 -22 -92)" opacity="0.24"/><ellipse cx="-33" cy="-70" rx="3" ry="16" fill="#fff" transform="rotate(6 -33 -70)" opacity="0.24"/></g><path d="M -20 -106 Q 0 -92 20 -106" fill="none" stroke="#155ea0" stroke-width="2.5" stroke-linecap="round" stroke-linejoin="round"/><rect x="-38" y="-62" width="76" height="10" rx="5" fill="url(#vol39dc834)"/></g><path d="M -28 -98 Q -48 -63 -52 -40" fill="none" stroke="#145a9a" stroke-width="18" stroke-linecap="round" stroke-linejoin="round"/><path d="M -28 -98 Q -48 -63 -52 -40" fill="none" stroke="#1c7ed6" stroke-width="14" stroke-linecap="round" stroke-linejoin="round"/><circle cx="-51" cy="-45.5" r="8.4" fill="url(#volfd13db6)"/><path d="M 28 -98 Q 48 -63 52 -40" fill="none" stroke="#145a9a" stroke-width="18" stroke-linecap="round" stroke-linejoin="round"/><path d="M 28 -98 Q 48 -63 52 -40" fill="none" stroke="#1c7ed6" stroke-width="14" stroke-linecap="round" stroke-linejoin="round"/><circle cx="51" cy="-45.5" r="8.4" fill="url(#volfd13db6)"/><ellipse cx="-44.4" cy="-45.2" rx="4.7" ry="5.8" fill="url(#vol3082a02)" transform="rotate(30 -44.4 -45.2)" stroke="#c8ad97" stroke-width="2"/><circle cx="-52" cy="-40" r="10.5" fill="url(#vol3082a02)" stroke="#c8ad97" stroke-width="2"/><ellipse cx="44.4" cy="-45.2" rx="4.7" ry="5.8" fill="url(#vol3082a02)" transform="rotate(-30 44.4 -45.2)" stroke="#c8ad97" stroke-width="2"/><circle cx="52" cy="-40" r="10.5" fill="url(#vol3082a02)" stroke="#c8ad97" stroke-width="2"/><g><rect x="-9" y="-116" width="18" height="16" fill="url(#vol3082a02)"/><ellipse cx="0" cy="-106" rx="10" ry="4" fill="#c8ad97" opacity="0.7"/></g><g><g><circle cx="-49" cy="-148" r="11" fill="url(#vol3082a02)"/><path d="M -50 -154 Q -55 -148 -50 -142" fill="none" stroke="#c8ad97" stroke-width="2.5" stroke-linecap="round" stroke-linejoin="round"/><circle cx="49" cy="-148" r="11" fill="url(#vol3082a02)"/><path d="M 50 -154 Q 55 -148 50 -142" fill="none" stroke="#c8ad97" stroke-width="2.5" stroke-linecap="round" stroke-linejoin="round"/></g><circle cx="0" cy="-150" r="50" fill="url(#vol3490e56)"/><clipPath id="k29"><circle cx="0" cy="-150" r="50" fill="#000"/></clipPath><g clip-path="url(#k29)"><ellipse cx="36" cy="-124" rx="40" ry="38" fill="url(#vol39543c1)"/><ellipse cx="51" cy="-140" rx="8" ry="26" fill="#fff4e6" transform="rotate(-15 51 -140)" opacity="0.16"/><ellipse cx="-22" cy="-180" rx="13" ry="7" fill="#fff" transform="rotate(-30 -22 -180)" opacity="0.24"/></g><g><path d="M -48 -146 Q -52 -96 -20 -76 Q 0 -60 20 -76 Q 52 -96 48 -146 Q 40 -116 20 -112 Q 0 -104 -20 -112 Q -40 -116 -48 -146 Z" fill="url(#voled3c066)"/><path d="M -26 -126 Q -12 -136 0 -128 Q 12 -136 26 -126 Q 14 -118 0 -122 Q -14 -118 -26 -126 Z" fill="url(#vol433af68)"/></g><ellipse cx="-30" cy="-128" rx="9" ry="5.5" fill="#ff8fab" opacity="0.6"/><ellipse cx="30" cy="-128" rx="9" ry="5.5" fill="#ff8fab" opacity="0.6"/><ellipse cx="-18" cy="-150" rx="6.5" ry="8.5" fill="url(#vol38c8b34)"/><circle cx="-16" cy="-153" r="2.2" fill="url(#vol0044542)"/><circle cx="-20.2" cy="-146.4" r="1.1" fill="#fff" opacity="0.75"/><ellipse cx="18" cy="-150" rx="6.5" ry="8.5" fill="url(#vol38c8b34)"/><circle cx="20" cy="-153" r="2.2" fill="url(#vol0044542)"/><circle cx="15.8" cy="-146.4" r="1.1" fill="#fff" opacity="0.75"/><path d="M -4 -134 Q 0 -130 4 -134" fill="none" stroke="#bca28d" stroke-width="3" stroke-linecap="round" stroke-linejoin="round"/><path d="M -10.8 -121 Q 0 -109 10.8 -121" fill="none" stroke="#2b2b3a" stroke-width="3.8" stroke-linecap="round" stroke-linejoin="round"/><g><ellipse cx="-48" cy="-150" rx="12" ry="22" fill="url(#voled3c066)"/><ellipse cx="48" cy="-150" rx="12" ry="22" fill="url(#voled3c066)"/></g></g></g></g><g transform="translate(-170 -130) scale(0.95 0.95)"><g><path d="M -54 -160 Q -52 -214 0 -216 Q 52 -214 54 -160 Z" fill="url(#vol9448686)"/><rect x="-58" y="-170" width="116" height="18" rx="8" fill="url(#voldf499f5)"/><circle cx="0" cy="-220" r="13" fill="url(#vol3eeee75)"/></g></g></g><g><g transform="translate(10 -130)"><ellipse cx="22.4" cy="-4.8" rx="72.8" ry="11.2" fill="url(#vol9abd463)"/><ellipse cx="1.6" cy="-3" rx="54.6" ry="11.7" fill="url(#vol285ebc9)"/><filter id="c33" x="-15%" y="-15%" width="130%" height="130%"><feMorphology in="SourceAlpha" operator="dilate" radius="2.3" result="e"/><feFlood flood-color="#2b2b3a" flood-opacity="0.5"/><feComposite in2="e" operator="in" result="o"/><feMerge><feMergeNode in="o"/><feMergeNode in="SourceGraphic"/></feMerge></filter><g filter="url(#c33)"><g><circle cx="-50.7" cy="-131.5" r="20" fill="url(#vol38c8b34)"/><circle cx="-54" cy="-150" r="20" fill="url(#vol38c8b34)"/><circle cx="-50.7" cy="-168.5" r="20" fill="url(#vol38c8b34)"/><circle cx="-41.4" cy="-184.7" r="20" fill="url(#vol38c8b34)"/><circle cx="-27" cy="-196.8" r="20" fill="url(#vol38c8b34)"/><circle cx="-9.4" cy="-203.2" r="20" fill="url(#vol38c8b34)"/><circle cx="9.4" cy="-203.2" r="20" fill="url(#vol38c8b34)"/><circle cx="27" cy="-196.8" r="20" fill="url(#vol38c8b34)"/><circle cx="41.4" cy="-184.7" r="20" fill="url(#vol38c8b34)"/><circle cx="50.7" cy="-168.5" r="20" fill="url(#vol38c8b34)"/><circle cx="54" cy="-150" r="20" fill="url(#vol38c8b34)"/><circle cx="50.7" cy="-131.5" r="20" fill="url(#vol38c8b34)"/><circle cx="-56" cy="-110" r="18" fill="url(#vol38c8b34)"/><circle cx="-50" cy="-90" r="15" fill="url(#vol38c8b34)"/><circle cx="56" cy="-110" r="18" fill="url(#vol38c8b34)"/><circle cx="50" cy="-90" r="15" fill="url(#vol38c8b34)"/></g><g><rect x="-26" y="-52" width="20" height="46" rx="8" fill="url(#vol6b79f13)"/><line x1="-16" y1="-40" x2="-16" y2="-12" stroke="#162141" stroke-width="2" stroke-linecap="round" opacity="0.6"/><rect x="6" y="-52" width="20" height="46" rx="8" fill="url(#vol6b79f13)"/><line x1="16" y1="-40" x2="16" y2="-12" stroke="#162141" stroke-width="2" stroke-linecap="round" opacity="0.6"/></g><ellipse cx="-17" cy="-6" rx="16" ry="9" fill="url(#volc69f596)" stroke="#6d1717" stroke-width="2"/><ellipse cx="-14" cy="-9.2" rx="6.4" ry="2.2" fill="#fff" opacity="0.3"/><ellipse cx="17" cy="-6" rx="16" ry="9" fill="url(#volc69f596)" stroke="#6d1717" stroke-width="2"/><ellipse cx="14" cy="-9.2" rx="6.4" ry="2.2" fill="#fff" opacity="0.3"/><g transform="rotate(2 0 -46)"><g><path d="M -32 -106 Q 0 -112 32 -106 L 40 -46 Q 0 -36 -40 -46 Z" fill="url(#vol765ee29)"/><clipPath id="k31"><path d="M -32 -106 Q 0 -112 32 -106 L 40 -46 Q 0 -36 -40 -46 Z" fill="#000"/></clipPath><g clip-path="url(#k31)"><ellipse cx="40" cy="-70" rx="22" ry="46" fill="url(#vol0b5e702)"/><ellipse cx="0" cy="-40" rx="44" ry="8" fill="url(#vol0b5e702)"/><ellipse cx="42" cy="-66" rx="6" ry="30" fill="#fff4e6" opacity="0.16"/><ellipse cx="-22" cy="-92" rx="6" ry="11" fill="#fff" transform="rotate(20 -22 -92)" opacity="0.24"/><ellipse cx="-33" cy="-70" rx="3" ry="16" fill="#fff" transform="rotate(6 -33 -70)" opacity="0.24"/></g><path d="M -20 -106 Q 0 -92 20 -106" fill="none" stroke="#a82424" stroke-width="2.5" stroke-linecap="round" stroke-linejoin="round"/><rect x="-38" y="-62" width="76" height="10" rx="5" fill="url(#vol3c06fcf)"/><rect x="-8" y="-64" width="16" height="14" rx="3" fill="url(#volbb93d11)"/></g><path d="M -28 -98 Q -48 -63 -52 -40" fill="none" stroke="#a12323" stroke-width="18" stroke-linecap="round" stroke-linejoin="round"/><path d="M -28 -98 Q -48 -63 -52 -40" fill="none" stroke="#e03131" stroke-width="14" stroke-linecap="round" stroke-linejoin="round"/><circle cx="-51" cy="-45.5" r="8.4" fill="url(#vol9c9ea18)"/><path d="M 28 -98 Q 65 -108 86 -130" fill="none" stroke="#a12323" stroke-width="18" stroke-linecap="round" stroke-linejoin="round"/><path d="M 28 -98 Q 65 -108 86 -130" fill="none" stroke="#e03131" stroke-width="14" stroke-linecap="round" stroke-linejoin="round"/><circle cx="81" cy="-124.7" r="8.4" fill="url(#vol9c9ea18)"/><ellipse cx="-44.4" cy="-45.2" rx="4.7" ry="5.8" fill="url(#volfc9011c)" transform="rotate(30 -44.4 -45.2)" stroke="#583620" stroke-width="2"/><circle cx="-52" cy="-40" r="10.5" fill="url(#volfc9011c)" stroke="#583620" stroke-width="2"/><ellipse cx="78.4" cy="-135.2" rx="4.7" ry="5.8" fill="url(#volfc9011c)" transform="rotate(-30 78.4 -135.2)" stroke="#583620" stroke-width="2"/><circle cx="86" cy="-130" r="10.5" fill="url(#volfc9011c)" stroke="#583620" stroke-width="2"/><g><rect x="-9" y="-116" width="18" height="16" fill="url(#volfc9011c)"/><ellipse cx="0" cy="-106" rx="10" ry="4" fill="#583620" opacity="0.7"/></g><g><g><circle cx="-49" cy="-148" r="11" fill="url(#volfc9011c)"/><path d="M -50 -154 Q -55 -148 -50 -142" fill="none" stroke="#583620" stroke-width="2.5" stroke-linecap="round" stroke-linejoin="round"/><circle cx="49" cy="-148" r="11" fill="url(#volfc9011c)"/><path d="M 50 -154 Q 55 -148 50 -142" fill="none" stroke="#583620" stroke-width="2.5" stroke-linecap="round" stroke-linejoin="round"/></g><circle cx="0" cy="-150" r="50" fill="url(#vole894bc6)"/><clipPath id="k32"><circle cx="0" cy="-150" r="50" fill="#000"/></clipPath><g clip-path="url(#k32)"><ellipse cx="36" cy="-124" rx="40" ry="38" fill="url(#vol39543c1)"/><ellipse cx="51" cy="-140" rx="8" ry="26" fill="#fff4e6" transform="rotate(-15 51 -140)" opacity="0.16"/><ellipse cx="-22" cy="-180" rx="13" ry="7" fill="#fff" transform="rotate(-30 -22 -180)" opacity="0.24"/></g><ellipse cx="-30" cy="-128" rx="9" ry="5.5" fill="#ff8fab" opacity="0.6"/><ellipse cx="30" cy="-128" rx="9" ry="5.5" fill="#ff8fab" opacity="0.6"/><path d="M -26 -147 Q -18 -159 -10 -147" fill="none" stroke="#2b2b3a" stroke-width="3.8" stroke-linecap="round" stroke-linejoin="round"/><path d="M 10 -147 Q 18 -159 26 -147" fill="none" stroke="#2b2b3a" stroke-width="3.8" stroke-linecap="round" stroke-linejoin="round"/><path d="M -4 -134 Q 0 -130 4 -134" fill="none" stroke="#53331e" stroke-width="3" stroke-linecap="round" stroke-linejoin="round"/><path d="M -11.7 -123 Q 0 -99 11.7 -123 Z" fill="url(#vol3a9f983)" stroke="#2b2b3a" stroke-width="3" stroke-linecap="round" stroke-linejoin="round"/><ellipse cx="0" cy="-112" rx="5.4" ry="3.5" fill="url(#volca73c33)"/><g><circle cx="-42.5" cy="-170.4" r="19" fill="url(#vol38c8b34)"/><circle cx="-33.7" cy="-185.7" r="19" fill="url(#vol38c8b34)"/><circle cx="-18.6" cy="-196.3" r="19" fill="url(#vol38c8b34)"/><circle cx="0" cy="-200" r="19" fill="url(#vol38c8b34)"/><circle cx="18.6" cy="-196.3" r="19" fill="url(#vol38c8b34)"/><circle cx="33.7" cy="-185.7" r="19" fill="url(#vol38c8b34)"/><circle cx="42.5" cy="-170.4" r="19" fill="url(#vol38c8b34)"/></g></g></g></g></g><g transform="translate(10 -130)"><g><path d="M -80 -194 Q -50 -188 0 -190 Q 50 -188 80 -194 Q 62 -210 44 -208 Q 28 -256 0 -256 Q -28 -256 -44 -208 Q -62 -210 -80 -194 Z" fill="url(#vol3c06fcf)"/><path d="M -80 -194 Q -50 -188 0 -190 Q 50 -188 80 -194" fill="none" stroke="#ffd43b" stroke-width="5" stroke-linecap="round" stroke-linejoin="round"/><circle cx="0" cy="-228" r="11" fill="url(#vol70795a0)"/><rect x="-7" y="-221" width="14" height="8" rx="3" fill="url(#vol70795a0)"/><circle cx="-4" cy="-229" r="2.8" fill="url(#vol3c06fcf)"/><circle cx="4" cy="-229" r="2.8" fill="url(#vol3c06fcf)"/><line x1="-15" y1="-202" x2="15" y2="-212" stroke="#f8f9fa" stroke-width="4" stroke-linecap="round"/><line x1="-15" y1="-212" x2="15" y2="-202" stroke="#f8f9fa" stroke-width="4" stroke-linecap="round"/></g></g></g><g transform="translate(190 -130) scale(0.75 0.75)"><ellipse cx="21.6" cy="-4.8" rx="75.6" ry="11.2" fill="url(#vol9abd463)"/><ellipse cx="0" cy="-3" rx="56.7" ry="11.7" fill="url(#vol285ebc9)"/><filter id="c36" x="-15%" y="-15%" width="130%" height="130%"><feMorphology in="SourceAlpha" operator="dilate" radius="2.62" result="e"/><feFlood flood-color="#2b2b3a" flood-opacity="0.5"/><feComposite in2="e" operator="in" result="o"/><feMerge><feMergeNode in="o"/><feMergeNode in="SourceGraphic"/></feMerge></filter><g filter="url(#c36)"><path d="M 28 -40 Q 80 -40 78 -95 Q 76 -120 92 -126" fill="none" stroke="#ffa94d" stroke-width="13" stroke-linecap="round" stroke-linejoin="round"/><path d="M 84 -112 Q 86 -122 92 -126" fill="none" stroke="#cc873d" stroke-width="13" stroke-linecap="round" stroke-linejoin="round"/><ellipse cx="-21" cy="-10.5" rx="18.2" ry="11" fill="url(#volcf66396)" transform="rotate(-7 -21 -10.5)" stroke="#97642d" stroke-width="2"/><line x1="-27" y1="-4.8" x2="-26.7" y2="-10.7" stroke="#97642d" stroke-width="2" stroke-linecap="round" opacity="0.7"/><line x1="-15" y1="-6.2" x2="-14.8" y2="-12.2" stroke="#97642d" stroke-width="2" stroke-linecap="round" opacity="0.7"/><ellipse cx="21" cy="-7.5" rx="19.8" ry="11" fill="url(#volcf66396)" transform="rotate(7 21 -7.5)" stroke="#97642d" stroke-width="2"/><line x1="15" y1="-3.2" x2="14.8" y2="-9.2" stroke="#97642d" stroke-width="2" stroke-linecap="round" opacity="0.7"/><line x1="27" y1="-1.8" x2="26.7" y2="-7.7" stroke="#97642d" stroke-width="2" stroke-linecap="round" opacity="0.7"/><ellipse cx="0" cy="-62" rx="42" ry="52" fill="url(#vol7b4b2e5)"/><ellipse cx="0" cy="-54" rx="27" ry="35" fill="url(#volc76cad1)"/><path d="M -25 -66 l -5 -4 l 1 6" fill="none" stroke="#d8cfc3" stroke-width="2" stroke-linecap="round" stroke-linejoin="round"/><path d="M -24 -42 l -5 -4 l 1 6" fill="none" stroke="#d8cfc3" stroke-width="2" stroke-linecap="round" stroke-linejoin="round"/><path d="M 25 -66 l 5 -4 l -1 6" fill="none" stroke="#d8cfc3" stroke-width="2" stroke-linecap="round" stroke-linejoin="round"/><path d="M 24 -42 l 5 -4 l -1 6" fill="none" stroke="#d8cfc3" stroke-width="2" stroke-linecap="round" stroke-linejoin="round"/><clipPath id="k34"><ellipse cx="0" cy="-62" rx="42" ry="52" fill="#000"/></clipPath><g clip-path="url(#k34)"><ellipse cx="40" cy="-46" rx="34" ry="62" fill="url(#vol0b5e702)"/><ellipse cx="0" cy="-104" rx="36" ry="14" fill="url(#vol0b5e702)"/><ellipse cx="0" cy="-6" rx="40" ry="12" fill="url(#vol0b5e702)"/><ellipse cx="46" cy="-52" rx="9" ry="34" fill="#fff4e6" opacity="0.16"/><ellipse cx="-24" cy="-84" rx="7" ry="13" fill="#fff" transform="rotate(30 -24 -84)" opacity="0.24"/><ellipse cx="-36" cy="-56" rx="3.5" ry="18" fill="#fff" transform="rotate(8 -36 -56)" opacity="0.24"/></g><path d="M -32 -96 Q -50 -62 -52 -40" fill="none" stroke="#b77937" stroke-width="19" stroke-linecap="round" stroke-linejoin="round"/><path d="M -32 -96 Q -50 -62 -52 -40" fill="none" stroke="#ffa94d" stroke-width="15" stroke-linecap="round" stroke-linejoin="round"/><path d="M 32 -96 Q 50 -62 52 -40" fill="none" stroke="#b77937" stroke-width="19" stroke-linecap="round" stroke-linejoin="round"/><path d="M 32 -96 Q 50 -62 52 -40" fill="none" stroke="#ffa94d" stroke-width="15" stroke-linecap="round" stroke-linejoin="round"/><ellipse cx="-43.7" cy="-45.8" rx="5.2" ry="6.3" fill="url(#vol817cdf9)" transform="rotate(30 -43.7 -45.8)" stroke="#b77937" stroke-width="2"/><circle cx="-52" cy="-40" r="11.5" fill="url(#vol817cdf9)" stroke="#b77937" stroke-width="2"/><ellipse cx="43.7" cy="-45.8" rx="5.2" ry="6.3" fill="url(#vol817cdf9)" transform="rotate(-30 43.7 -45.8)" stroke="#b77937" stroke-width="2"/><circle cx="52" cy="-40" r="11.5" fill="url(#vol817cdf9)" stroke="#b77937" stroke-width="2"/><g transform="rotate(4 0 -100)"><g><polygon points="-52,-170 -48,-228 -12,-200" fill="url(#vol817cdf9)"/><polygon points="-44,-178 -43,-216 -20,-198" fill="url(#vola10e909)"/><polygon points="52,-170 48,-228 12,-200" fill="url(#vol817cdf9)"/><polygon points="44,-178 43,-216 20,-198" fill="url(#vola10e909)"/><circle cx="0" cy="-150" r="55" fill="url(#vol702fa5f)"/><clipPath id="k35"><circle cx="0" cy="-150" r="55" fill="#000"/></clipPath><g clip-path="url(#k35)"><ellipse cx="41.2" cy="-125.2" rx="44" ry="41.2" fill="url(#vol7e369e4)"/><ellipse cx="56.1" cy="-136.2" rx="8.8" ry="30.3" fill="#fff4e6" transform="rotate(-15 56.1 -136.2)" opacity="0.16"/><ellipse cx="-24.8" cy="-181.9" rx="14.3" ry="7.7" fill="#fff" transform="rotate(-30 -24.8 -181.9)" opacity="0.24"/></g><polygon points="-46,-146 -64,-138 -53,-132 -62,-123 -47,-120" fill="url(#vol817cdf9)"/><polygon points="46,-146 64,-138 53,-132 62,-123 47,-120" fill="url(#vol817cdf9)"/><path d="M -14 -199 Q -12 -217 -2 -207 Q 2 -223 9 -206 Q 16 -215 16 -199 Z" fill="url(#vol817cdf9)"/><ellipse cx="-36" cy="-128" rx="9" ry="5.5" fill="#ff8fab" opacity="0.7"/><ellipse cx="36" cy="-128" rx="9" ry="5.5" fill="#ff8fab" opacity="0.7"/><path d="M -27 -149 Q -19 -161 -11 -149" fill="none" stroke="#2b2b3a" stroke-width="3.8" stroke-linecap="round" stroke-linejoin="round"/><path d="M 11 -149 Q 19 -161 27 -149" fill="none" stroke="#2b2b3a" stroke-width="3.8" stroke-linecap="round" stroke-linejoin="round"/><polygon points="-6,-134 6,-134 0,-127" fill="url(#vol3af45ef)"/><path d="M -12 -122 Q 0 -110 12 -122" fill="none" stroke="#2b2b3a" stroke-width="3.8" stroke-linecap="round" stroke-linejoin="round"/><line x1="-14" y1="-130" x2="-46" y2="-136" stroke="#868e96" stroke-width="2" stroke-linecap="round"/><line x1="-14" y1="-126" x2="-46" y2="-122" stroke="#868e96" stroke-width="2" stroke-linecap="round"/><line x1="14" y1="-130" x2="46" y2="-136" stroke="#868e96" stroke-width="2" stroke-linecap="round"/><line x1="14" y1="-126" x2="46" y2="-122" stroke="#868e96" stroke-width="2" stroke-linecap="round"/><g><polygon points="28,-196 8,-212 8,-180" fill="url(#vola88da3a)"/><polygon points="28,-196 48,-212 48,-180" fill="url(#vola88da3a)"/><circle cx="28" cy="-196" r="7" fill="url(#vol7f84eac)"/></g></g></g></g></g></g><path d="M -270 -130 L 270 -130 Q 250 -20 180 10 L -200 10 Q -260 -30 -270 -130 Z" fill="url(#vol386655e)"/><rect x="-270" y="-140" width="540" height="20" rx="6" fill="url(#vol79d93f2)"/><line x1="-240" y1="-80" x2="230" y2="-80" stroke="#6d4424" stroke-width="4" stroke-linecap="round"/><circle cx="-150" cy="-60" r="14" fill="url(#vol4430391)" stroke="#6d4424" stroke-width="4"/><circle cx="-50" cy="-60" r="14" fill="url(#vol4430391)" stroke="#6d4424" stroke-width="4"/><circle cx="50" cy="-60" r="14" fill="url(#vol4430391)" stroke="#6d4424" stroke-width="4"/><circle cx="150" cy="-60" r="14" fill="url(#vol4430391)" stroke="#6d4424" stroke-width="4"/><text x="0" y="-94" font-family="Fredoka, Andika, sans-serif" font-weight="700" font-size="28" text-anchor="middle" fill="#fff3bf">LA SARDINE</text></g>
<g transform="translate(150 220) scale(0.6 0.6)"><g><path d="M -20 -40 Q -60 -10 -70 30 L -56 34 Q -44 0 -10 -30 Z" fill="url(#vol3eeee75)"/><path d="M -10 -36 Q -40 0 -40 40 L -28 40 Q -26 6 0 -30 Z" fill="url(#vol9009eb4)"/></g><g><filter id="c38" x="-15%" y="-15%" width="130%" height="130%"><feMorphology in="SourceAlpha" operator="dilate" radius="2.3" result="e"/><feFlood flood-color="#2b2b3a" flood-opacity="0.3"/><feComposite in2="e" operator="in" result="o"/><feMerge><feMergeNode in="o"/><feMergeNode in="SourceGraphic"/></feMerge></filter><g filter="url(#c38)"><line x1="-12" y1="-30" x2="-12" y2="-4" stroke="#f08c00" stroke-width="4" stroke-linecap="round"/><path d="M -21 0 L -12 -6 L -3 0" fill="none" stroke="#f08c00" stroke-width="3.5" stroke-linecap="round" stroke-linejoin="round"/><line x1="12" y1="-30" x2="12" y2="-4" stroke="#f08c00" stroke-width="4" stroke-linecap="round"/><path d="M 3 0 L 12 -6 L 21 0" fill="none" stroke="#f08c00" stroke-width="3.5" stroke-linecap="round" stroke-linejoin="round"/><polygon points="38,-70 66,-86 62,-60" fill="url(#vol7a70c7e)"/><path d="M 42 -70 L 63 -80 M 42 -68 L 62 -66" fill="none" stroke="#195825" stroke-width="1.5" stroke-linecap="round" stroke-linejoin="round" opacity="0.6"/><ellipse cx="-50" cy="-88" rx="14" ry="30" fill="url(#vol89766ea)" transform="rotate(-40 -50 -88)"/><line x1="-45.5" y1="-76.1" x2="-51" y2="-85.2" stroke="#1a5b26" stroke-width="1.7" stroke-linecap="round" opacity="0.55"/><line x1="-39.4" y1="-75.4" x2="-46.1" y2="-83.4" stroke="#1a5b26" stroke-width="1.7" stroke-linecap="round" opacity="0.55"/><line x1="-33.3" y1="-74.6" x2="-41.3" y2="-81.6" stroke="#1a5b26" stroke-width="1.7" stroke-linecap="round" opacity="0.55"/><ellipse cx="50" cy="-88" rx="14" ry="30" fill="url(#vol89766ea)" transform="rotate(40 50 -88)"/><line x1="39.1" y1="-81.5" x2="47.1" y2="-88.5" stroke="#1a5b26" stroke-width="1.7" stroke-linecap="round" opacity="0.55"/><line x1="39.4" y1="-75.4" x2="46.1" y2="-83.4" stroke="#1a5b26" stroke-width="1.7" stroke-linecap="round" opacity="0.55"/><line x1="39.7" y1="-69.2" x2="45.2" y2="-78.3" stroke="#1a5b26" stroke-width="1.7" stroke-linecap="round" opacity="0.55"/><circle cx="0" cy="-68" r="44" fill="url(#volc3784ac)"/><ellipse cx="0" cy="-52" rx="28" ry="26" fill="url(#vol213cf61)"/><path d="M -14 -40 q 4 4 8 0 M 2 -38 q 4 4 8 0 M -6 -30 q 4 4 8 0" fill="none" stroke="#ccb351" stroke-width="1.6" stroke-linecap="round" stroke-linejoin="round" opacity="0.6"/><clipPath id="k37"><circle cx="0" cy="-68" r="44" fill="#000"/></clipPath><g clip-path="url(#k37)"><ellipse cx="30" cy="-40" rx="40" ry="34" fill="url(#vol0b5e702)"/><ellipse cx="44" cy="-60" rx="7" ry="26" fill="#fff4e6" opacity="0.16"/><ellipse cx="-20" cy="-98" rx="12" ry="7" fill="#fff" transform="rotate(-30 -20 -98)" opacity="0.24"/></g><path d="M -6 -112 Q -2 -124 6 -118 Q 2 -126 12 -124" fill="none" stroke="#257e36" stroke-width="4" stroke-linecap="round" stroke-linejoin="round"/><ellipse cx="-26" cy="-70" rx="7" ry="4.5" fill="#ff8fab" opacity="0.7"/><ellipse cx="26" cy="-70" rx="7" ry="4.5" fill="#ff8fab" opacity="0.7"/><path d="M -21.8 -79 Q -15 -89.7 -8.2 -79" fill="none" stroke="#2b2b3a" stroke-width="3.2" stroke-linecap="round" stroke-linejoin="round"/><path d="M 8.2 -79 Q 15 -89.7 21.8 -79" fill="none" stroke="#2b2b3a" stroke-width="3.2" stroke-linecap="round" stroke-linejoin="round"/><polygon points="-9,-70 9,-70 0,-80" fill="url(#volbeaff1e)"/><polygon points="-8,-66 8,-66 0,-54" fill="url(#vol1887eac)"/></g></g><path d="M -6 -108 Q -14 -134 4 -140 Q 0 -124 10 -110 Z" fill="url(#vol3eeee75)"/></g>
<g><polygon points="540,96 470,300 580,96" fill="url(#vole772153)" stroke="#dee2e6" stroke-width="3"/><rect x="360" y="30" width="400" height="80" rx="40" fill="url(#vole772153)" stroke="#dee2e6" stroke-width="3"/><polygon points="542,94 470,300 578,94" fill="url(#vole772153)"/><text x="560" y="82.6" font-family="Fredoka, Andika, sans-serif" font-weight="700" font-size="36" text-anchor="middle" fill="#2b2b3a">Cap sur le trésor !</text></g>
<g transform="translate(730 530) rotate(-12) scale(-1 1)"><g data-relief="non"><ellipse cx="-12" cy="-8" rx="13" ry="5" fill="#e7f5ff" transform="rotate(-35 -12 -8)" opacity="0.85" stroke="#a5b4c8" stroke-width="1"/><ellipse cx="12" cy="-8" rx="13" ry="5" fill="#e7f5ff" transform="rotate(35 12 -8)" opacity="0.85" stroke="#a5b4c8" stroke-width="1"/><ellipse cx="0" cy="2" rx="7" ry="10" fill="#2b2b3a"/><circle cx="0" cy="-9" r="5.5" fill="#2b2b3a"/><circle cx="-2" cy="-10.5" r="1.4" fill="#fff"/><circle cx="2" cy="-10.5" r="1.4" fill="#fff"/><path d="M -2 -13 Q -6 -20 -9 -20 M 2 -13 Q 6 -20 9 -20" fill="none" stroke="#2b2b3a" stroke-width="1.4" stroke-linecap="round" stroke-linejoin="round"/><path d="M 0 -3 Q -14 -6 -15 6 Q -12 14 -3 10 Z" fill="url(#vol0786585)"/><circle cx="-9" cy="1" r="2.4" fill="#2b2b3a"/><circle cx="-6" cy="7" r="1.8" fill="#2b2b3a"/><path d="M 0 -3 Q 14 -6 15 6 Q 12 14 3 10 Z" fill="url(#vol0786585)"/><circle cx="9" cy="1" r="2.4" fill="#2b2b3a"/><circle cx="6" cy="7" r="1.8" fill="#2b2b3a"/><path d="M -26 10 q 4 -3 8 0 M -30 2 q 4 -3 8 0" fill="none" stroke="#868e96" stroke-width="1.5" stroke-linecap="round" stroke-linejoin="round" opacity="0.7"/></g></g>
<g data-finition="oui"><rect x="0" y="0" width="800" height="800" fill="url(#vol8bda838)"/></g>
</svg>
