<svg xmlns="http://www.w3.org/2000/svg" viewBox="0 0 800 800" width="800" height="800">
<defs><linearGradient id="d1" x1="0" y1="0" x2="0" y2="1"><stop offset="0" stop-color="#c3fae8"/><stop offset="1" stop-color="#fff9db"/></linearGradient></defs>
<rect x="0" y="0" width="800" height="800" fill="url(#d1)"/>
<path d="M 0 640 Q 240.0 622 400.0 640 T 800 640 L 800 800 L 0 800 Z" fill="#8ce99a"/>
<g transform="translate(70 700) scale(3.2 3.2)"><line x1="0" y1="0" x2="0" y2="-80" stroke="#40c057" stroke-width="5" stroke-linecap="round"/><ellipse cx="10" cy="-36" rx="12" ry="5" fill="#51cf66" transform="rotate(-30 10 -36)"/><circle cx="11" cy="-80" r="10" fill="#ff8787"/><circle cx="3.4" cy="-69.5" r="10" fill="#ff8787"/><circle cx="-8.9" cy="-73.5" r="10" fill="#ff8787"/><circle cx="-8.9" cy="-86.5" r="10" fill="#ff8787"/><circle cx="3.4" cy="-90.5" r="10" fill="#ff8787"/><circle cx="0" cy="-80" r="8" fill="#ffd43b"/></g>
<g transform="translate(740 700) scale(3.6 3.6)"><line x1="0" y1="0" x2="0" y2="-80" stroke="#40c057" stroke-width="5" stroke-linecap="round"/><ellipse cx="10" cy="-36" rx="12" ry="5" fill="#51cf66" transform="rotate(-30 10 -36)"/><circle cx="11" cy="-80" r="10" fill="#ffd43b"/><circle cx="3.4" cy="-69.5" r="10" fill="#ffd43b"/><circle cx="-8.9" cy="-73.5" r="10" fill="#ffd43b"/><circle cx="-8.9" cy="-86.5" r="10" fill="#ffd43b"/><circle cx="3.4" cy="-90.5" r="10" fill="#ffd43b"/><circle cx="0" cy="-80" r="8" fill="#ffd43b"/></g>
<g transform="translate(200 660) scale(1.4 1.4)"><path d="M -14 0 Q -12 -18 -20 -30 Q -6 -16 -4 0 Q -2 -26 4 -40 Q 6 -18 6 0 Q 10 -16 22 -26 Q 14 -12 14 0 Z" fill="#51cf66"/></g>
<g transform="translate(600 660) scale(1.2 1.2)"><path d="M -14 0 Q -12 -18 -20 -30 Q -6 -16 -4 0 Q -2 -26 4 -40 Q 6 -18 6 0 Q 10 -16 22 -26 Q 14 -12 14 0 Z" fill="#51cf66"/></g>
<g transform="translate(620 770) scale(2.4 2.4)"><line x1="0" y1="0" x2="0" y2="-120" stroke="#40c057" stroke-width="8" stroke-linecap="round"/><ellipse cx="18" cy="-60" rx="22" ry="9" fill="#51cf66" transform="rotate(-30 18 -60)"/><ellipse cx="28" cy="-150" rx="30" ry="22" fill="#f06595"/><ellipse cx="14" cy="-129.2" rx="30" ry="22" fill="#f06595" transform="rotate(60 14 -129.2)"/><ellipse cx="-14" cy="-129.2" rx="30" ry="22" fill="#f06595" transform="rotate(120 -14 -129.2)"/><ellipse cx="-28" cy="-150" rx="30" ry="22" fill="#f06595" transform="rotate(180 -28 -150)"/><ellipse cx="-14" cy="-170.8" rx="30" ry="22" fill="#f06595" transform="rotate(240 -14 -170.8)"/><ellipse cx="14" cy="-170.8" rx="30" ry="22" fill="#f06595" transform="rotate(300 14 -170.8)"/><circle cx="0" cy="-150" r="24" fill="#cc557e"/><path d="M -12 -150 Q 0 -168 12 -150 Q 0 -140 -12 -150" fill="none" stroke="#a84668" stroke-width="3" stroke-linecap="round" stroke-linejoin="round"/></g>
<g transform="translate(330 700) scale(1.7 1.7)"><g><ellipse cx="-66" cy="-130" rx="44" ry="64" fill="#e6fcf5" transform="rotate(-30 -66 -130)" opacity="0.8" stroke="#a5d8ff" stroke-width="3"/><ellipse cx="-58" cy="-64" rx="30" ry="40" fill="#e6fcf5" transform="rotate(30 -58 -64)" opacity="0.8" stroke="#a5d8ff" stroke-width="3"/><ellipse cx="66" cy="-130" rx="44" ry="64" fill="#e6fcf5" transform="rotate(30 66 -130)" opacity="0.8" stroke="#a5d8ff" stroke-width="3"/><ellipse cx="58" cy="-64" rx="30" ry="40" fill="#e6fcf5" transform="rotate(-30 58 -64)" opacity="0.8" stroke="#a5d8ff" stroke-width="3"/></g><circle cx="0" cy="-210" r="26" fill="#f783ac"/><ellipse cx="-16" cy="-6" rx="14" ry="8" fill="#0c805d"/><ellipse cx="16" cy="-6" rx="14" ry="8" fill="#0c805d"/><path d="M -26 -106 Q 0 -112 26 -106 L 32 -74 Q 60 -34 66 -12 Q 0 2 -66 -12 Q -60 -34 -32 -74 Z" fill="#12b886"/><rect x="-32" y="-80" width="64" height="10" rx="5" fill="#0f9c71"/><path d="M -28 -98 Q -48 -63 -52 -40" fill="none" stroke="#12b886" stroke-width="14" stroke-linecap="round" stroke-linejoin="round"/><path d="M 28 -98 Q 56 -116 68 -146" fill="none" stroke="#12b886" stroke-width="14" stroke-linecap="round" stroke-linejoin="round"/><g transform="translate(68 -146) rotate(15) scale(0.9 0.9)"><line x1="0" y1="0" x2="0" y2="-70" stroke="#343a40" stroke-width="6" stroke-linecap="round"/><line x1="0" y1="0" x2="0" y2="-18" stroke="#f59f00" stroke-width="7" stroke-linecap="round"/><circle cx="0" cy="-82" r="22" fill="#ffd43b" opacity="0.3"/><polygon points="0,-97 4,-87.5 14.3,-86.6 6.4,-79.9 8.8,-69.9 0,-75.2 -8.8,-69.9 -6.4,-79.9 -14.3,-86.6 -4,-87.5" fill="#ffd43b" stroke="#ffd43b" stroke-width="2.7" stroke-linejoin="round"/></g><circle cx="-52" cy="-40" r="10.5" fill="#fbd9bd"/><circle cx="68" cy="-146" r="10.5" fill="#fbd9bd"/><rect x="-9" y="-116" width="18" height="16" fill="#fbd9bd"/><circle cx="-49" cy="-148" r="11" fill="#fbd9bd"/><circle cx="49" cy="-148" r="11" fill="#fbd9bd"/><circle cx="0" cy="-150" r="50" fill="#fbd9bd"/><ellipse cx="-30" cy="-128" rx="9" ry="5.5" fill="#ff8fab" opacity="0.6"/><ellipse cx="30" cy="-128" rx="9" ry="5.5" fill="#ff8fab" opacity="0.6"/><path d="M -26 -147 Q -18 -159 -10 -147" fill="none" stroke="#2b2b3a" stroke-width="3.8" stroke-linecap="round" stroke-linejoin="round"/><path d="M 10 -147 Q 18 -159 26 -147" fill="none" stroke="#2b2b3a" stroke-width="3.8" stroke-linecap="round" stroke-linejoin="round"/><path d="M -4 -134 Q 0 -130 4 -134" fill="none" stroke="#bca28d" stroke-width="3" stroke-linecap="round" stroke-linejoin="round"/><path d="M -11.7 -123 Q 0 -99 11.7 -123 Z" fill="#c92a2a" stroke="#2b2b3a" stroke-width="3" stroke-linecap="round" stroke-linejoin="round"/><ellipse cx="0" cy="-112" rx="5.4" ry="3.5" fill="#ff8787"/><path d="M -54 -144 Q -60 -210 0 -210 Q 60 -210 54 -144 Q 50 -168 30 -178 Q 22 -164 4 -178 Q -12 -164 -24 -178 Q -46 -170 -54 -144 Z" fill="#f783ac"/><circle cx="0" cy="-210" r="26" fill="#f783ac"/></g>
<g transform="translate(470 330) scale(1.3 1.3)"><circle cx="1.7" cy="19.7" r="3.8" fill="#ffd43b"/><polygon points="15,7.9 13.6,13.5 17.9,17.4 12.2,17.7 9.9,23.1 7.7,17.7 1.9,17.2 6.4,13.4 5.1,7.8 10,10.9" fill="#ffd43b" stroke="#ffd43b" stroke-width="1.5" stroke-linejoin="round"/><polygon points="20.4,-60.8 20.5,-55.8 25,-53.6 20.3,-51.9 19.6,-46.9 16.5,-50.9 11.5,-50.1 14.4,-54.2 12.1,-58.7 16.9,-57.2" fill="#ffd43b" stroke="#ffd43b" stroke-width="1.3" stroke-linejoin="round"/><circle cx="-3.9" cy="23.3" r="3.2" fill="#ffd43b"/><polygon points="20.5,55 19.2,62.5 25.3,67 17.8,68.1 15.3,75.2 12,68.5 4.4,68.4 9.8,63.1 7.6,55.9 14.3,59.4" fill="#ffd43b" stroke="#ffd43b" stroke-width="2" stroke-linejoin="round"/><polygon points="11.1,-30.7 10.8,-25.3 15.5,-22.6 10.3,-21.2 9.2,-15.9 6.2,-20.4 0.9,-19.8 4.2,-24 2,-29 7.1,-27.1" fill="#ffd43b" stroke="#ffd43b" stroke-width="1.4" stroke-linejoin="round"/><circle cx="-7" cy="-61.5" r="4.8" fill="#ffd43b"/><polygon points="44.5,15.4 44.7,22.3 51,25.2 44.5,27.6 43.7,34.5 39.4,29.1 32.6,30.4 36.5,24.7 33.1,18.6 39.8,20.5" fill="#ffd43b" stroke="#ffd43b" stroke-width="1.8" stroke-linejoin="round"/><polygon points="21.7,31.2 20.6,35.6 23.9,38.6 19.4,38.8 17.6,43 16,38.8 11.5,38.3 15,35.4 14,31 17.8,33.5" fill="#ffd43b" stroke="#ffd43b" stroke-width="1.2" stroke-linejoin="round"/></g>
<g transform="translate(200 420) scale(0.9 0.9)"><circle cx="16.1" cy="-57.8" r="4" fill="#f783ac"/><polygon points="2.2,4.5 2.6,11.4 9,14.1 2.6,16.7 1.9,23.5 -2.5,18.2 -9.2,19.7 -5.5,13.9 -9,8 -2.4,9.7" fill="#f783ac" stroke="#f783ac" stroke-width="1.8" stroke-linejoin="round"/><polygon points="4.1,-45.3 5.6,-38.1 12.7,-36.1 6.3,-32.5 6.6,-25.2 1.2,-30.1 -5.6,-27.6 -2.6,-34.2 -7.2,-40 0.1,-39.2" fill="#f783ac" stroke="#f783ac" stroke-width="1.9" stroke-linejoin="round"/><circle cx="17.6" cy="-52" r="3.8" fill="#f783ac"/><polygon points="-48,-19.1 -48,-14.1 -43.6,-11.9 -48.2,-10.4 -49,-5.5 -51.9,-9.5 -56.8,-8.7 -53.9,-12.7 -56.2,-17.1 -51.5,-15.6" fill="#f783ac" stroke="#f783ac" stroke-width="1.3" stroke-linejoin="round"/><polygon points="14.8,-36.8 14.2,-29.3 20.5,-25.4 13.2,-23.7 11.4,-16.5 7.6,-22.8 0.1,-22.3 5,-28 2.2,-34.9 9.1,-32" fill="#f783ac" stroke="#f783ac" stroke-width="1.9" stroke-linejoin="round"/><circle cx="18.3" cy="-27.2" r="3.2" fill="#f783ac"/><polygon points="18.9,-64.8 20.8,-59.1 26.8,-58.3 22,-54.7 23,-48.8 18.1,-52.3 12.8,-49.5 14.6,-55.2 10.3,-59.4 16.3,-59.4" fill="#f783ac" stroke="#f783ac" stroke-width="1.6" stroke-linejoin="round"/><polygon points="20.9,40.7 19.5,45.9 23.4,49.5 18.1,49.7 15.9,54.6 14,49.6 8.7,49 12.9,45.7 11.8,40.4 16.3,43.4" fill="#f783ac" stroke="#f783ac" stroke-width="1.4" stroke-linejoin="round"/></g>
</svg>
