<svg xmlns="http://www.w3.org/2000/svg" viewBox="0 0 800 800" width="800" height="800">

<rect x="0" y="0" width="800" height="560" fill="#fff4e6"/>
<rect x="0" y="0" width="24" height="560" fill="#ffd8a8" opacity="0.35"/>
<rect x="60" y="0" width="24" height="560" fill="#ffd8a8" opacity="0.35"/>
<rect x="120" y="0" width="24" height="560" fill="#ffd8a8" opacity="0.35"/>
<rect x="180" y="0" width="24" height="560" fill="#ffd8a8" opacity="0.35"/>
<rect x="240" y="0" width="24" height="560" fill="#ffd8a8" opacity="0.35"/>
<rect x="300" y="0" width="24" height="560" fill="#ffd8a8" opacity="0.35"/>
<rect x="360" y="0" width="24" height="560" fill="#ffd8a8" opacity="0.35"/>
<rect x="420" y="0" width="24" height="560" fill="#ffd8a8" opacity="0.35"/>
<rect x="480" y="0" width="24" height="560" fill="#ffd8a8" opacity="0.35"/>
<rect x="540" y="0" width="24" height="560" fill="#ffd8a8" opacity="0.35"/>
<rect x="600" y="0" width="24" height="560" fill="#ffd8a8" opacity="0.35"/>
<rect x="660" y="0" width="24" height="560" fill="#ffd8a8" opacity="0.35"/>
<rect x="720" y="0" width="24" height="560" fill="#ffd8a8" opacity="0.35"/>
<rect x="780" y="0" width="24" height="560" fill="#ffd8a8" opacity="0.35"/>
<rect x="0" y="560" width="800" height="240" fill="#e8c39e"/>
<line x1="0" y1="610" x2="800" y2="610" stroke="#000" stroke-width="2" stroke-linecap="round" opacity="0.06"/>
<line x1="0" y1="660" x2="800" y2="660" stroke="#000" stroke-width="2" stroke-linecap="round" opacity="0.06"/>
<line x1="0" y1="710" x2="800" y2="710" stroke="#000" stroke-width="2" stroke-linecap="round" opacity="0.06"/>
<line x1="0" y1="760" x2="800" y2="760" stroke="#000" stroke-width="2" stroke-linecap="round" opacity="0.06"/>
<line x1="0" y1="810" x2="800" y2="810" stroke="#000" stroke-width="2" stroke-linecap="round" opacity="0.06"/>
<rect x="0" y="546" width="800" height="16" fill="#d9a066"/>
<g><rect x="72" y="72" width="216" height="186" rx="6" fill="#ffffff"/><rect x="80" y="80" width="200" height="170" fill="#a5d8ff"/><clipPath id="c7"><rect x="80" y="80" width="200" height="170" fill="#000"/></clipPath><g clip-path="url(#c7)"><g><rect x="80" y="200" width="200" height="50" fill="#8ce99a"/><g transform="translate(220 250) scale(0.4 0.4)"><rect x="-16" y="-140" width="32" height="140" rx="8" fill="#8d5524"/><circle cx="0" cy="-200" r="80" fill="#51cf66"/><circle cx="-60" cy="-160" r="52" fill="#40c057"/><circle cx="60" cy="-160" r="52" fill="#40c057"/><circle cx="-25" cy="-235" r="45" fill="#40c057" opacity="0.5"/></g></g></g><rect x="176" y="80" width="8" height="170" fill="#ffffff"/><rect x="80" y="161" width="200" height="8" fill="#ffffff"/><path d="M 60 66 L 110 66 Q 90 165.0 110 270 L 60 270 Z" fill="#69db7c"/><path d="M 300 66 L 250 66 Q 270 165.0 250 270 L 300 270 Z" fill="#69db7c"/><rect x="50" y="58" width="260" height="12" rx="6" fill="#adb5bd"/></g>
<g><rect x="424" y="640" width="16" height="120" fill="#c68642"/><rect x="680" y="640" width="16" height="120" fill="#c68642"/><rect x="410" y="622" width="300" height="22" rx="6" fill="#c68642"/></g>
<g transform="translate(560 622) scale(0.9 0.9)"><ellipse cx="0" cy="0" rx="90" ry="22" fill="#fff" stroke="#dee2e6" stroke-width="3"/><ellipse cx="0" cy="-8" rx="70" ry="16" fill="#f6c453" stroke="#e8a200" stroke-width="2"/><ellipse cx="0" cy="-17" rx="70" ry="16" fill="#f6c453" stroke="#e8a200" stroke-width="2"/><ellipse cx="0" cy="-26" rx="70" ry="16" fill="#f6c453" stroke="#e8a200" stroke-width="2"/><ellipse cx="0" cy="-35" rx="70" ry="16" fill="#f6c453" stroke="#e8a200" stroke-width="2"/><ellipse cx="0" cy="-44" rx="70" ry="16" fill="#f6c453" stroke="#e8a200" stroke-width="2"/></g>
<g transform="translate(330 790) scale(1.15 1.15)"><ellipse cx="62" cy="-58" rx="26" ry="58" fill="#e8a87c" transform="rotate(40 62 -58)"/><ellipse cx="95" cy="-95" rx="14" ry="20" fill="#fff4e6" transform="rotate(40 95 -95)"/><ellipse cx="-21" cy="-9" rx="19" ry="11" fill="#c58e69"/><ellipse cx="21" cy="-9" rx="19" ry="11" fill="#c58e69"/><ellipse cx="0" cy="-62" rx="42" ry="52" fill="#2f9e44"/><path d="M -32 -96 Q -50 -62 -52 -40" fill="none" stroke="#2f9e44" stroke-width="15" stroke-linecap="round" stroke-linejoin="round"/><path d="M 32 -96 Q 58 -115 68 -146" fill="none" stroke="#2f9e44" stroke-width="15" stroke-linecap="round" stroke-linejoin="round"/><g transform="translate(70 -146) scale(0.6 0.6)"><ellipse cx="0" cy="0" rx="70" ry="18" fill="#343a40"/><rect x="60" y="-8" width="120" height="16" rx="8" fill="#495057"/><ellipse cx="-10" cy="-150" rx="56" ry="16" fill="#f6c453" transform="rotate(-12 -10 -150)" stroke="#e8a200" stroke-width="3"/><g transform="translate(-60 -120) rotate(-90) scale(0.7 0.7)"><line x1="0" y1="0" x2="-40" y2="0" stroke="#2b2b3a" stroke-width="4" stroke-linecap="round" opacity="0.5"/><line x1="0" y1="16" x2="-34" y2="16" stroke="#2b2b3a" stroke-width="4" stroke-linecap="round" opacity="0.5"/><line x1="0" y1="32" x2="-28" y2="32" stroke="#2b2b3a" stroke-width="4" stroke-linecap="round" opacity="0.5"/></g></g><circle cx="-52" cy="-40" r="11.5" fill="#e8a87c"/><circle cx="68" cy="-146" r="11.5" fill="#e8a87c"/><g><polygon points="-52,-170 -48,-228 -12,-200" fill="#e8a87c"/><polygon points="-44,-178 -43,-216 -20,-198" fill="#fff4e6"/><polygon points="-50.5,-212 -48,-228 -36,-219" fill="#5c3d2e"/><polygon points="52,-170 48,-228 12,-200" fill="#e8a87c"/><polygon points="44,-178 43,-216 20,-198" fill="#fff4e6"/><polygon points="50.5,-212 48,-228 36,-219" fill="#5c3d2e"/><circle cx="0" cy="-150" r="55" fill="#e8a87c"/><path d="M -54 -140 Q -30 -142 0 -120 Q 30 -142 54 -140 Q 44 -98 0 -96 Q -44 -98 -54 -140 Z" fill="#fff4e6"/><ellipse cx="-36" cy="-128" rx="9" ry="5.5" fill="#ff8fab" opacity="0.7"/><ellipse cx="36" cy="-128" rx="9" ry="5.5" fill="#ff8fab" opacity="0.7"/><path d="M -27 -149 Q -19 -161 -11 -149" fill="none" stroke="#2b2b3a" stroke-width="3.8" stroke-linecap="round" stroke-linejoin="round"/><path d="M 11 -149 Q 19 -161 27 -149" fill="none" stroke="#2b2b3a" stroke-width="3.8" stroke-linecap="round" stroke-linejoin="round"/><ellipse cx="0" cy="-128" rx="8" ry="6" fill="#2b2b3a"/><path d="M -13 -120 Q 0 -96 13 -120 Z" fill="#c92a2a" stroke="#2b2b3a" stroke-width="3" stroke-linecap="round" stroke-linejoin="round"/><ellipse cx="0" cy="-109" rx="6" ry="3.5" fill="#ff8787"/><g><circle cx="-19" cy="-152" r="15" fill="none" stroke="#2b2b3a" stroke-width="3.5"/><circle cx="19" cy="-152" r="15" fill="none" stroke="#2b2b3a" stroke-width="3.5"/><line x1="-4" y1="-152" x2="4" y2="-152" stroke="#2b2b3a" stroke-width="3" stroke-linecap="round"/></g></g></g>
<g transform="translate(610 790) scale(0.95 0.95)"><ellipse cx="62" cy="-58" rx="26" ry="58" fill="#f76707" transform="rotate(40 62 -58)"/><ellipse cx="95" cy="-95" rx="14" ry="20" fill="#fff4e6" transform="rotate(40 95 -95)"/><ellipse cx="-21" cy="-9" rx="19" ry="11" fill="#5c3d2e"/><ellipse cx="21" cy="-9" rx="19" ry="11" fill="#5c3d2e"/><ellipse cx="0" cy="-62" rx="42" ry="52" fill="#ffd43b"/><clipPath id="m8"><ellipse cx="0" cy="-62" rx="42" ry="52" fill="#000"/></clipPath><g clip-path="url(#m8)"><rect x="-60" y="-118" width="120" height="8" fill="#fab005"/><rect x="-60" y="-100" width="120" height="8" fill="#fab005"/><rect x="-60" y="-82" width="120" height="8" fill="#fab005"/><rect x="-60" y="-64" width="120" height="8" fill="#fab005"/><rect x="-60" y="-46" width="120" height="8" fill="#fab005"/><rect x="-60" y="-28" width="120" height="8" fill="#fab005"/><rect x="-60" y="-10" width="120" height="8" fill="#fab005"/></g><path d="M -32 -96 Q -59 -124.5 -70 -165" fill="none" stroke="#ffd43b" stroke-width="15" stroke-linecap="round" stroke-linejoin="round"/><path d="M 32 -96 Q 59 -124.5 70 -165" fill="none" stroke="#ffd43b" stroke-width="15" stroke-linecap="round" stroke-linejoin="round"/><circle cx="-70" cy="-165" r="11.5" fill="#f76707"/><circle cx="70" cy="-165" r="11.5" fill="#f76707"/><g><polygon points="-52,-170 -48,-228 -12,-200" fill="#f76707"/><polygon points="-44,-178 -43,-216 -20,-198" fill="#fff4e6"/><polygon points="-50.5,-212 -48,-228 -36,-219" fill="#5c3d2e"/><polygon points="52,-170 48,-228 12,-200" fill="#f76707"/><polygon points="44,-178 43,-216 20,-198" fill="#fff4e6"/><polygon points="50.5,-212 48,-228 36,-219" fill="#5c3d2e"/><circle cx="0" cy="-150" r="55" fill="#f76707"/><path d="M -54 -140 Q -30 -142 0 -120 Q 30 -142 54 -140 Q 44 -98 0 -96 Q -44 -98 -54 -140 Z" fill="#fff4e6"/><ellipse cx="-36" cy="-128" rx="9" ry="5.5" fill="#ff8fab" opacity="0.7"/><ellipse cx="36" cy="-128" rx="9" ry="5.5" fill="#ff8fab" opacity="0.7"/><path d="M -27 -149 Q -19 -161 -11 -149" fill="none" stroke="#2b2b3a" stroke-width="3.8" stroke-linecap="round" stroke-linejoin="round"/><path d="M 11 -149 Q 19 -161 27 -149" fill="none" stroke="#2b2b3a" stroke-width="3.8" stroke-linecap="round" stroke-linejoin="round"/><ellipse cx="0" cy="-128" rx="8" ry="6" fill="#2b2b3a"/><path d="M -13 -120 Q 0 -96 13 -120 Z" fill="#c92a2a" stroke="#2b2b3a" stroke-width="3" stroke-linecap="round" stroke-linejoin="round"/><ellipse cx="0" cy="-109" rx="6" ry="3.5" fill="#ff8787"/></g></g>
<text x="560" y="150" font-family="Fredoka, Andika, sans-serif" font-weight="700" font-size="70" text-anchor="middle" fill="#f76707" stroke="#fff" stroke-width="10" stroke-linejoin="round" paint-order="stroke">Hop !</text>
</svg>
