<svg xmlns="http://www.w3.org/2000/svg" viewBox="0 0 800 800" width="800" height="800">
  <defs>
    <linearGradient id="ciel" x1="0" y1="0" x2="0" y2="1">
      <stop offset="0" stop-color="#4dabf7"/>
      <stop offset="1" stop-color="#d0ebff"/>
    </linearGradient>
  </defs>
  <rect width="800" height="800" fill="url(#ciel)"/>
  <g><rect x="674" y="6" width="12" height="26" rx="6" fill="#ffc93c" transform="rotate(0 680 100)"/><rect x="674" y="6" width="12" height="26" rx="6" fill="#ffc93c" transform="rotate(30 680 100)"/><rect x="674" y="6" width="12" height="26" rx="6" fill="#ffc93c" transform="rotate(60 680 100)"/><rect x="674" y="6" width="12" height="26" rx="6" fill="#ffc93c" transform="rotate(90 680 100)"/><rect x="674" y="6" width="12" height="26" rx="6" fill="#ffc93c" transform="rotate(120 680 100)"/><rect x="674" y="6" width="12" height="26" rx="6" fill="#ffc93c" transform="rotate(150 680 100)"/><rect x="674" y="6" width="12" height="26" rx="6" fill="#ffc93c" transform="rotate(180 680 100)"/><rect x="674" y="6" width="12" height="26" rx="6" fill="#ffc93c" transform="rotate(210 680 100)"/><rect x="674" y="6" width="12" height="26" rx="6" fill="#ffc93c" transform="rotate(240 680 100)"/><rect x="674" y="6" width="12" height="26" rx="6" fill="#ffc93c" transform="rotate(270 680 100)"/><rect x="674" y="6" width="12" height="26" rx="6" fill="#ffc93c" transform="rotate(300 680 100)"/><rect x="674" y="6" width="12" height="26" rx="6" fill="#ffc93c" transform="rotate(330 680 100)"/><circle cx="680" cy="100" r="58" fill="#ffd93d"/></g>
  <path d="M 0 700 Q 400 670 800 700 L 800 800 L 0 800 Z" fill="#69db7c"/>
  <path d="M 0 750 Q 300 725 800 755 L 800 800 L 0 800 Z" fill="#51cf66"/>
  <ellipse cx="400" cy="740" rx="260" ry="30" fill="#2b8a3e" opacity="0.35"/>
  <path d="M 350 760 Q 365 600 360 470 Q 300 420 220 400 L 226 386 Q 310 400 368 440 Q 372 360 330 300 L 344 292 Q 392 350 395 430 Q 440 360 520 330 L 526 344 Q 450 380 420 460 Q 425 600 450 760 Z" fill="#7a4e2d"/>
  <path d="M 385 520 q 10 30 0 60 M 405 640 q -8 20 0 40" stroke="#5e3a20" stroke-width="5" fill="none" stroke-linecap="round"/>
  <ellipse cx="402" cy="560" rx="16" ry="22" fill="#4a2c16"/>
  <circle cx="433" cy="155" r="49" fill="#40c057"/><circle cx="421" cy="254" r="52" fill="#2b8a3e"/><circle cx="508" cy="231" r="44" fill="#2f9e44"/><circle cx="383" cy="345" r="57" fill="#2b8a3e"/><circle cx="468" cy="216" r="37" fill="#37b24d"/><circle cx="303" cy="217" r="57" fill="#40c057"/><circle cx="352" cy="187" r="36" fill="#2b8a3e"/><circle cx="393" cy="260" r="59" fill="#2b8a3e"/><circle cx="423" cy="200" r="37" fill="#37b24d"/><circle cx="364" cy="159" r="37" fill="#2f9e44"/><circle cx="374" cy="237" r="54" fill="#40c057"/><circle cx="276" cy="258" r="40" fill="#2f9e44"/><circle cx="375" cy="228" r="47" fill="#40c057"/><circle cx="389" cy="261" r="50" fill="#37b24d"/><circle cx="474" cy="303" r="43" fill="#37b24d"/><circle cx="232" cy="343" r="53" fill="#37b24d"/><circle cx="299" cy="263" r="50" fill="#2f9e44"/><circle cx="257" cy="344" r="54" fill="#40c057"/><circle cx="181" cy="309" r="53" fill="#40c057"/><circle cx="209" cy="363" r="43" fill="#37b24d"/><circle cx="227" cy="291" r="39" fill="#2b8a3e"/><circle cx="159" cy="281" r="37" fill="#2b8a3e"/><circle cx="253" cy="416" r="53" fill="#2b8a3e"/><circle cx="164" cy="354" r="59" fill="#2f9e44"/><circle cx="198" cy="326" r="56" fill="#2b8a3e"/><circle cx="270" cy="324" r="55" fill="#40c057"/><circle cx="174" cy="349" r="39" fill="#2f9e44"/><circle cx="263" cy="331" r="52" fill="#40c057"/><circle cx="271" cy="371" r="44" fill="#40c057"/><circle cx="351" cy="321" r="47" fill="#2b8a3e"/><circle cx="554" cy="353" r="49" fill="#2b8a3e"/><circle cx="587" cy="337" r="43" fill="#2b8a3e"/><circle cx="526" cy="364" r="53" fill="#2b8a3e"/><circle cx="550" cy="287" r="54" fill="#2b8a3e"/><circle cx="643" cy="300" r="39" fill="#40c057"/><circle cx="493" cy="289" r="35" fill="#37b24d"/><circle cx="647" cy="323" r="37" fill="#40c057"/><circle cx="490" cy="376" r="52" fill="#2f9e44"/><circle cx="576" cy="303" r="42" fill="#2f9e44"/><circle cx="481" cy="344" r="60" fill="#2b8a3e"/><circle cx="584" cy="320" r="45" fill="#40c057"/><circle cx="636" cy="295" r="41" fill="#40c057"/><circle cx="605" cy="355" r="37" fill="#2f9e44"/><circle cx="613" cy="322" r="57" fill="#2f9e44"/><circle cx="504" cy="263" r="38" fill="#2f9e44"/><circle cx="363" cy="233" r="42" fill="#2b8a3e"/><circle cx="328" cy="190" r="54" fill="#37b24d"/><circle cx="338" cy="176" r="48" fill="#2b8a3e"/><circle cx="338" cy="155" r="42" fill="#2b8a3e"/><circle cx="329" cy="185" r="59" fill="#40c057"/><circle cx="358" cy="187" r="35" fill="#2f9e44"/><circle cx="302" cy="190" r="42" fill="#2b8a3e"/><circle cx="246" cy="221" r="35" fill="#2f9e44"/><circle cx="330" cy="238" r="41" fill="#2f9e44"/><circle cx="328" cy="163" r="35" fill="#2f9e44"/><circle cx="401" cy="172" r="58" fill="#37b24d"/><circle cx="320" cy="164" r="36" fill="#37b24d"/><circle cx="329" cy="181" r="51" fill="#37b24d"/><circle cx="282" cy="199" r="36" fill="#37b24d"/><circle cx="377" cy="209" r="34" fill="#37b24d"/><circle cx="465" cy="178" r="43" fill="#37b24d"/><circle cx="395" cy="177" r="59" fill="#37b24d"/><circle cx="545" cy="161" r="56" fill="#37b24d"/><circle cx="466" cy="186" r="44" fill="#37b24d"/><circle cx="480" cy="180" r="59" fill="#2b8a3e"/><circle cx="492" cy="204" r="46" fill="#2b8a3e"/><circle cx="564" cy="184" r="50" fill="#37b24d"/><circle cx="466" cy="130" r="59" fill="#40c057"/><circle cx="477" cy="195" r="38" fill="#37b24d"/><circle cx="475" cy="170" r="36" fill="#2f9e44"/><circle cx="527" cy="183" r="35" fill="#2f9e44"/><circle cx="448" cy="145" r="55" fill="#40c057"/><circle cx="475" cy="177" r="41" fill="#2b8a3e"/><circle cx="489" cy="225" r="43" fill="#2f9e44"/><circle cx="409" cy="190" r="35" fill="#37b24d"/>
  <g transform="translate(560 765) scale(0.8)">
    <path d="M -20 -20 C -90 -10 -110 -90 -80 -140 C -60 -175 -10 -160 -30 -120 C -45 -95 -60 -70 -20 -50 Z" fill="#c8702c"/>
    <path d="M -60 -120 C -70 -100 -60 -80 -40 -70" stroke="#e39a55" stroke-width="8" fill="none" stroke-linecap="round"/>
    <ellipse cx="10" cy="-35" rx="38" ry="40" fill="#d9823a"/>
    <ellipse cx="22" cy="-30" rx="18" ry="26" fill="#f5d1a3"/>
    <circle cx="30" cy="-85" r="30" fill="#d9823a"/>
    <polygon points="12,-108 18,-132 30,-110" fill="#d9823a"/>
    <ellipse cx="50" cy="-78" rx="12" ry="9" fill="#f5d1a3"/>
    <circle cx="60" cy="-80" r="4" fill="#2b2b3a"/>
    <path d="M 28 -86 q 7 6 14 0" stroke="#2b2b3a" stroke-width="4" fill="none" stroke-linecap="round"/>
    <ellipse cx="18" cy="-74" rx="7" ry="4" fill="#ff9eb5"/>
    <ellipse cx="0" cy="0" rx="18" ry="7" fill="#b35f22"/><ellipse cx="34" cy="0" rx="16" ry="7" fill="#b35f22"/>
    
  </g>
  <g font-family="Arial, sans-serif" font-weight="bold" fill="#495057"><text x="630" y="640" font-size="34">z</text><text x="660" y="605" font-size="26">z</text></g>
</svg>
