<svg xmlns="http://www.w3.org/2000/svg" viewBox="0 0 800 800" width="800" height="800">
<defs><linearGradient id="d12" x1="0" y1="0" x2="0" y2="1"><stop offset="0" stop-color="#d0ebff"/><stop offset="1" stop-color="#f1f3f5"/></linearGradient></defs>
<rect x="0" y="0" width="800" height="800" fill="url(#d12)"/>
<g transform="translate(110 560) scale(0.9 0.9)"><rect x="-12" y="-40" width="24" height="40" rx="4" fill="#7c4a1e"/><polygon points="-90,-40 0,-150 90,-40" fill="#2f9e44"/><polygon points="-31.5,-112 0,-150 31.5,-112" fill="#fff"/><polygon points="-72,-110 0,-220 72,-110" fill="#37b24d"/><polygon points="-25.2,-182 0,-220 25.2,-182" fill="#fff"/><polygon points="-52,-170 0,-280 52,-170" fill="#2f9e44"/><polygon points="-18.2,-242 0,-280 18.2,-242" fill="#fff"/></g>
<g transform="translate(700 560)"><rect x="-12" y="-40" width="24" height="40" rx="4" fill="#7c4a1e"/><polygon points="-90,-40 0,-150 90,-40" fill="#2f9e44"/><polygon points="-31.5,-112 0,-150 31.5,-112" fill="#fff"/><polygon points="-72,-110 0,-220 72,-110" fill="#37b24d"/><polygon points="-25.2,-182 0,-220 25.2,-182" fill="#fff"/><polygon points="-52,-170 0,-280 52,-170" fill="#2f9e44"/><polygon points="-18.2,-242 0,-280 18.2,-242" fill="#fff"/></g>
<g transform="translate(610 540) scale(0.7 0.7)"><rect x="-12" y="-40" width="24" height="40" rx="4" fill="#7c4a1e"/><polygon points="-90,-40 0,-150 90,-40" fill="#2f9e44"/><polygon points="-31.5,-112 0,-150 31.5,-112" fill="#fff"/><polygon points="-72,-110 0,-220 72,-110" fill="#37b24d"/><polygon points="-25.2,-182 0,-220 25.2,-182" fill="#fff"/><polygon points="-52,-170 0,-280 52,-170" fill="#2f9e44"/><polygon points="-18.2,-242 0,-280 18.2,-242" fill="#fff"/></g>
<rect x="0" y="560" width="800" height="240" fill="#ffffff"/>
<path d="M 0 560 Q 200 530 400 560 Q 600 590 800 555 L 800 600 L 0 600 Z" fill="#f8f9fa"/>
<circle cx="289.2" cy="259.5" r="4.7" fill="#ffffff" opacity="0.9"/>
<circle cx="357.4" cy="221.1" r="5.6" fill="#ffffff" opacity="0.9"/>
<circle cx="207.1" cy="342.9" r="3" fill="#ffffff" opacity="0.9"/>
<circle cx="241.6" cy="180.9" r="3.6" fill="#ffffff" opacity="0.9"/>
<circle cx="594.7" cy="167.5" r="6.2" fill="#ffffff" opacity="0.9"/>
<circle cx="765" cy="136.9" r="6.6" fill="#ffffff" opacity="0.9"/>
<circle cx="646.1" cy="360.4" r="3.1" fill="#ffffff" opacity="0.9"/>
<circle cx="365.4" cy="338.4" r="4.2" fill="#ffffff" opacity="0.9"/>
<circle cx="179.5" cy="167.3" r="4" fill="#ffffff" opacity="0.9"/>
<circle cx="630.3" cy="187.8" r="4.7" fill="#ffffff" opacity="0.9"/>
<circle cx="514.4" cy="512.1" r="4.2" fill="#ffffff" opacity="0.9"/>
<circle cx="35.2" cy="525.9" r="6.3" fill="#ffffff" opacity="0.9"/>
<circle cx="632.3" cy="282.6" r="3.9" fill="#ffffff" opacity="0.9"/>
<circle cx="123.6" cy="164.3" r="4.8" fill="#ffffff" opacity="0.9"/>
<circle cx="52.6" cy="377.6" r="5.9" fill="#ffffff" opacity="0.9"/>
<circle cx="10.5" cy="454.9" r="5" fill="#ffffff" opacity="0.9"/>
<circle cx="735" cy="256.5" r="6.2" fill="#ffffff" opacity="0.9"/>
<circle cx="363.4" cy="331" r="5" fill="#ffffff" opacity="0.9"/>
<circle cx="18.2" cy="77.7" r="3.9" fill="#ffffff" opacity="0.9"/>
<circle cx="325" cy="199.4" r="5.2" fill="#ffffff" opacity="0.9"/>
<circle cx="527.5" cy="216" r="4.3" fill="#ffffff" opacity="0.9"/>
<circle cx="408.9" cy="514.5" r="6.1" fill="#ffffff" opacity="0.9"/>
<circle cx="524.3" cy="441.2" r="3.9" fill="#ffffff" opacity="0.9"/>
<circle cx="80.7" cy="50.3" r="3.5" fill="#ffffff" opacity="0.9"/>
<circle cx="7.3" cy="337.8" r="6.7" fill="#ffffff" opacity="0.9"/>
<circle cx="90.9" cy="370.9" r="6.8" fill="#ffffff" opacity="0.9"/>
<circle cx="612.3" cy="82.7" r="5.6" fill="#ffffff" opacity="0.9"/>
<circle cx="204.4" cy="96.2" r="3" fill="#ffffff" opacity="0.9"/>
<circle cx="420.3" cy="496.3" r="3.4" fill="#ffffff" opacity="0.9"/>
<circle cx="117.8" cy="209.7" r="3.2" fill="#ffffff" opacity="0.9"/>
<g><line x1="737" y1="100" x2="757" y2="100" stroke="#ffd43b" stroke-width="8" stroke-linecap="round"/><line x1="729.4" y1="128.5" x2="746.7" y2="138.5" stroke="#ffd43b" stroke-width="8" stroke-linecap="round"/><line x1="708.5" y1="149.4" x2="718.5" y2="166.7" stroke="#ffd43b" stroke-width="8" stroke-linecap="round"/><line x1="680" y1="157" x2="680" y2="177" stroke="#ffd43b" stroke-width="8" stroke-linecap="round"/><line x1="651.5" y1="149.4" x2="641.5" y2="166.7" stroke="#ffd43b" stroke-width="8" stroke-linecap="round"/><line x1="630.6" y1="128.5" x2="613.3" y2="138.5" stroke="#ffd43b" stroke-width="8" stroke-linecap="round"/><line x1="623" y1="100" x2="603" y2="100" stroke="#ffd43b" stroke-width="8" stroke-linecap="round"/><line x1="630.6" y1="71.5" x2="613.3" y2="61.5" stroke="#ffd43b" stroke-width="8" stroke-linecap="round"/><line x1="651.5" y1="50.6" x2="641.5" y2="33.3" stroke="#ffd43b" stroke-width="8" stroke-linecap="round"/><line x1="680" y1="43" x2="680" y2="23" stroke="#ffd43b" stroke-width="8" stroke-linecap="round"/><line x1="708.5" y1="50.6" x2="718.5" y2="33.3" stroke="#ffd43b" stroke-width="8" stroke-linecap="round"/><line x1="729.4" y1="71.5" x2="746.7" y2="61.5" stroke="#ffd43b" stroke-width="8" stroke-linecap="round"/><circle cx="680" cy="100" r="45" fill="#ffd43b"/></g>
<g transform="translate(250 770) scale(1.2 1.2)"><ellipse cx="40" cy="-16" rx="30" ry="50" fill="#5c3a1e" transform="rotate(60 40 -16)"/><g><line x1="22" y1="-28" x2="62" y2="-6" stroke="#4a2e16" stroke-width="2" stroke-linecap="round" opacity="0.5"/><line x1="30" y1="-40" x2="68" y2="-20" stroke="#4a2e16" stroke-width="2" stroke-linecap="round" opacity="0.5"/></g><ellipse cx="-21" cy="-9" rx="19" ry="11" fill="#5c3a1e"/><ellipse cx="21" cy="-9" rx="19" ry="11" fill="#5c3a1e"/><ellipse cx="0" cy="-62" rx="42" ry="52" fill="#8f5b34"/><ellipse cx="0" cy="-54" rx="27" ry="35" fill="#d9b48f"/><path d="M -32 -96 Q -50 -62 -52 -40" fill="none" stroke="#8f5b34" stroke-width="15" stroke-linecap="round" stroke-linejoin="round"/><path d="M 32 -96 Q 58 -115 68 -146" fill="none" stroke="#8f5b34" stroke-width="15" stroke-linecap="round" stroke-linejoin="round"/><circle cx="-52" cy="-40" r="11.5" fill="#8f5b34"/><circle cx="68" cy="-146" r="11.5" fill="#8f5b34"/><g><circle cx="-40" cy="-194" r="19" fill="#8f5b34"/><circle cx="-40" cy="-194" r="10" fill="#d9b48f"/><circle cx="40" cy="-194" r="19" fill="#8f5b34"/><circle cx="40" cy="-194" r="10" fill="#d9b48f"/><circle cx="0" cy="-150" r="55" fill="#8f5b34"/><ellipse cx="0" cy="-126" rx="25" ry="19" fill="#d9b48f"/><ellipse cx="-36" cy="-128" rx="9" ry="5.5" fill="#ff8fab" opacity="0.7"/><ellipse cx="36" cy="-128" rx="9" ry="5.5" fill="#ff8fab" opacity="0.7"/><path d="M -27 -149 Q -19 -161 -11 -149" fill="none" stroke="#2b2b3a" stroke-width="3.8" stroke-linecap="round" stroke-linejoin="round"/><path d="M 11 -149 Q 19 -161 27 -149" fill="none" stroke="#2b2b3a" stroke-width="3.8" stroke-linecap="round" stroke-linejoin="round"/><ellipse cx="0" cy="-134" rx="10" ry="7" fill="#2b2b3a"/><path d="M -13 -122 Q 0 -98 13 -122 Z" fill="#c92a2a" stroke="#2b2b3a" stroke-width="3" stroke-linecap="round" stroke-linejoin="round"/><ellipse cx="0" cy="-111" rx="6" ry="3.5" fill="#ff8787"/><rect x="-9" y="-114" width="18" height="14" rx="3" fill="#fff" stroke="#2b2b3a" stroke-width="1.5"/><line x1="0" y1="-114" x2="0" y2="-100" stroke="#2b2b3a" stroke-width="1.5" stroke-linecap="round"/><g><path d="M -56 -160 Q -56 -222 0 -222 Q 56 -222 56 -160 Z" fill="#1c7ed6"/><rect x="-60" y="-172" width="120" height="20" rx="10" fill="#fff"/><circle cx="0" cy="-226" r="16" fill="#fff"/></g><g><rect x="-42" y="-104" width="84" height="18" rx="9" fill="#1c7ed6"/><path d="M 18 -94 L 30 -48 L 14 -48 L 8 -94 Z" fill="#1c7ed6"/><line x1="15" y1="-56" x2="29" y2="-56" stroke="#fff" stroke-width="3" stroke-linecap="round" opacity="0.6"/></g></g></g>
<circle cx="330" cy="380" r="26" fill="#fff" stroke="#dee2e6" stroke-width="3"/>
<g transform="translate(370 400) rotate(180) scale(0.8 0.8)"><line x1="0" y1="0" x2="-40" y2="0" stroke="#2b2b3a" stroke-width="4" stroke-linecap="round" opacity="0.5"/><line x1="0" y1="16" x2="-34" y2="16" stroke="#2b2b3a" stroke-width="4" stroke-linecap="round" opacity="0.5"/><line x1="0" y1="32" x2="-28" y2="32" stroke="#2b2b3a" stroke-width="4" stroke-linecap="round" opacity="0.5"/></g>
<g transform="translate(560 770) scale(0.9 0.9)"><ellipse cx="40" cy="-16" rx="30" ry="50" fill="#5c3a1e" transform="rotate(60 40 -16)"/><g><line x1="22" y1="-28" x2="62" y2="-6" stroke="#4a2e16" stroke-width="2" stroke-linecap="round" opacity="0.5"/><line x1="30" y1="-40" x2="68" y2="-20" stroke="#4a2e16" stroke-width="2" stroke-linecap="round" opacity="0.5"/></g><ellipse cx="-21" cy="-9" rx="19" ry="11" fill="#5c3a1e"/><ellipse cx="21" cy="-9" rx="19" ry="11" fill="#5c3a1e"/><ellipse cx="0" cy="-62" rx="42" ry="52" fill="#8f5b34"/><ellipse cx="0" cy="-54" rx="27" ry="35" fill="#d9b48f"/><path d="M -32 -96 Q -59 -124.5 -70 -165" fill="none" stroke="#8f5b34" stroke-width="15" stroke-linecap="round" stroke-linejoin="round"/><path d="M 32 -96 Q 59 -124.5 70 -165" fill="none" stroke="#8f5b34" stroke-width="15" stroke-linecap="round" stroke-linejoin="round"/><circle cx="-70" cy="-165" r="11.5" fill="#8f5b34"/><circle cx="70" cy="-165" r="11.5" fill="#8f5b34"/><g><circle cx="-40" cy="-194" r="19" fill="#8f5b34"/><circle cx="-40" cy="-194" r="10" fill="#d9b48f"/><circle cx="40" cy="-194" r="19" fill="#8f5b34"/><circle cx="40" cy="-194" r="10" fill="#d9b48f"/><circle cx="0" cy="-150" r="55" fill="#8f5b34"/><ellipse cx="0" cy="-126" rx="25" ry="19" fill="#d9b48f"/><ellipse cx="-36" cy="-128" rx="9" ry="5.5" fill="#ff8fab" opacity="0.7"/><ellipse cx="36" cy="-128" rx="9" ry="5.5" fill="#ff8fab" opacity="0.7"/><path d="M -27 -149 Q -19 -161 -11 -149" fill="none" stroke="#2b2b3a" stroke-width="3.8" stroke-linecap="round" stroke-linejoin="round"/><path d="M 11 -149 Q 19 -161 27 -149" fill="none" stroke="#2b2b3a" stroke-width="3.8" stroke-linecap="round" stroke-linejoin="round"/><ellipse cx="0" cy="-134" rx="10" ry="7" fill="#2b2b3a"/><path d="M -13 -122 Q 0 -98 13 -122 Z" fill="#c92a2a" stroke="#2b2b3a" stroke-width="3" stroke-linecap="round" stroke-linejoin="round"/><ellipse cx="0" cy="-111" rx="6" ry="3.5" fill="#ff8787"/><rect x="-9" y="-114" width="18" height="14" rx="3" fill="#fff" stroke="#2b2b3a" stroke-width="1.5"/><line x1="0" y1="-114" x2="0" y2="-100" stroke="#2b2b3a" stroke-width="1.5" stroke-linecap="round"/><g><polygon points="28,-196 8,-212 8,-180" fill="#f783ac"/><polygon points="28,-196 48,-212 48,-180" fill="#f783ac"/><circle cx="28" cy="-196" r="7" fill="#c56889"/></g><g><path d="M -56 -160 Q -56 -222 0 -222 Q 56 -222 56 -160 Z" fill="#f783ac"/><rect x="-60" y="-172" width="120" height="20" rx="10" fill="#fff"/><circle cx="0" cy="-226" r="16" fill="#fff"/></g></g></g>
<circle cx="470" cy="300" r="22" fill="#fff" stroke="#dee2e6" stroke-width="3"/>
<text x="400" y="180" font-family="Fredoka, Andika, sans-serif" font-weight="700" font-size="72" text-anchor="middle" fill="#1c7ed6" stroke="#fff" stroke-width="10.3" stroke-linejoin="round" paint-order="stroke">Bataille !</text>
</svg>
